;TYPE=PLATED
;Layer: PTH_Through
;EasyEDA Pro Client v2.2.32.3, 2024-11-26 15:57:29
;Gerber Generator version 0.3
M48
METRIC,LZ,000.00000
;Hole size 1 = 0.30500 METRIC
T01C0.30500
;Hole size 2 = 0.91440 METRIC
T02C0.91440
;Hole size 3 = 1.20000 METRIC
T03C1.20000
;Hole size 4 = 1.90002 METRIC
T04C1.90002
;Hole size 5 = 4.00000 METRIC
T05C4.00000
;Hole size 6 = 4.39999 METRIC
T06C4.39999
%
G05
G90
T01
X63.80087Y44.52934
X65.78851Y44.56801
X63.84921Y27.42949
X65.84458Y27.42175
X90.10417Y24.3939
X92.14594Y24.3939
X90.12447Y41.50825
X92.17784Y41.50825
T02
X84.60463Y56.2605
X86.60463Y56.2605
X84.60463Y39.15146
X86.60463Y39.15146
X84.60463Y22.04242
X86.60463Y22.04242
X71.56271Y29.84033
X69.56271Y29.84033
X71.56271Y12.73129
X69.56271Y12.73129
X71.56271Y46.94937
X69.56271Y46.94937
T03
X89.66167Y63.22543
X92.20167Y63.22543
X89.86537Y6.30826
X92.40537Y6.30826
T04
X83.37461Y47.33052
X83.37461Y52.41049
X83.37461Y30.22148
X83.37461Y35.30146
X83.37461Y13.11245
X83.37461Y18.19242
X72.79273Y38.77031
X72.79273Y33.69033
X72.79273Y21.66127
X72.79273Y16.5813
X72.79273Y55.87934
X72.79273Y50.79937
T05
X57.07243Y65.41859
X57.08294Y3.39949
X99.07947Y3.42523
X99.06884Y65.42427
T06
X70.6064Y64.40219
X77.80638Y64.40219
X70.62108Y5.03081
X77.82107Y5.03081
M30