G04 Layer: BottomPasteMaskLayer*
G04 EasyEDA Pro v2.2.32.3, 2024-11-26 15:57:28*
G04 Gerber Generator version 0.3*
G04 Scale: 100 percent, Rotated: No, Reflected: No*
G04 Dimensions in millimeters*
G04 Leading zeros omitted, absolute positions, 3 integers and 5 decimals*
%FSLAX35Y35*%
%MOMM*%
%ADD10C,0.254*%
G75*


G04 PolygonModel Start*
G36*
G01X9278569Y5280643D02*
G01X9278569Y5408641D01*
G01X9273568Y5413642D01*
G01X9158567Y5413642D01*
G01X9153568Y5408641D01*
G01X9153065Y5367638D01*
G01X9198066Y5367638D01*
G01X9198066Y5322639D01*
G01X9154066Y5322639D01*
G01X9153568Y5280643D01*
G01X9158567Y5275641D01*
G01X9273568Y5275641D01*
G01X9278569Y5280643D01*
G37*
G36*
G01X9063568Y5280643D02*
G01X9063566Y5322639D01*
G01X9019068Y5322639D01*
G01X9019068Y5367638D01*
G01X9063065Y5367638D01*
G01X9063568Y5408641D01*
G01X9058567Y5413642D01*
G01X8943569Y5413642D01*
G01X8938567Y5408641D01*
G01X8938567Y5280643D01*
G01X8943569Y5275641D01*
G01X9058567Y5275641D01*
G01X9063568Y5280643D01*
G37*
G36*
G01X9278569Y3553443D02*
G01X9278569Y3681441D01*
G01X9273568Y3686442D01*
G01X9158567Y3686442D01*
G01X9153568Y3681441D01*
G01X9153065Y3640438D01*
G01X9198066Y3640438D01*
G01X9198066Y3595439D01*
G01X9154066Y3595439D01*
G01X9153568Y3553443D01*
G01X9158567Y3548441D01*
G01X9273568Y3548441D01*
G01X9278569Y3553443D01*
G37*
G36*
G01X9063568Y3553443D02*
G01X9063566Y3595439D01*
G01X9019068Y3595439D01*
G01X9019068Y3640438D01*
G01X9063065Y3640438D01*
G01X9063568Y3681441D01*
G01X9058567Y3686442D01*
G01X8943569Y3686442D01*
G01X8938567Y3681441D01*
G01X8938567Y3553443D01*
G01X8943569Y3548441D01*
G01X9058567Y3548441D01*
G01X9063568Y3553443D01*
G37*
G36*
G01X9278569Y1851643D02*
G01X9278569Y1979641D01*
G01X9273568Y1984642D01*
G01X9158567Y1984642D01*
G01X9153568Y1979641D01*
G01X9153065Y1938638D01*
G01X9198066Y1938638D01*
G01X9198066Y1893639D01*
G01X9154066Y1893639D01*
G01X9153568Y1851643D01*
G01X9158567Y1846641D01*
G01X9273568Y1846641D01*
G01X9278569Y1851643D01*
G37*
G36*
G01X9063568Y1851643D02*
G01X9063566Y1893639D01*
G01X9019068Y1893639D01*
G01X9019068Y1938638D01*
G01X9063065Y1938638D01*
G01X9063568Y1979641D01*
G01X9058567Y1984642D01*
G01X8943569Y1984642D01*
G01X8938567Y1979641D01*
G01X8938567Y1851643D01*
G01X8943569Y1846641D01*
G01X9058567Y1846641D01*
G01X9063568Y1851643D01*
G37*
G36*
G01X6312765Y1611343D02*
G01X6312765Y1483345D01*
G01X6317766Y1478344D01*
G01X6432767Y1478344D01*
G01X6437766Y1483345D01*
G01X6438269Y1524348D01*
G01X6393268Y1524348D01*
G01X6393268Y1569347D01*
G01X6437268Y1569347D01*
G01X6437766Y1611343D01*
G01X6432767Y1616345D01*
G01X6317766Y1616345D01*
G01X6312765Y1611343D01*
G37*
G36*
G01X6527766Y1611343D02*
G01X6527768Y1569347D01*
G01X6572267Y1569347D01*
G01X6572267Y1524348D01*
G01X6528269Y1524348D01*
G01X6527766Y1483345D01*
G01X6532767Y1478344D01*
G01X6647765Y1478344D01*
G01X6652767Y1483345D01*
G01X6652767Y1611343D01*
G01X6647765Y1616345D01*
G01X6532767Y1616345D01*
G01X6527766Y1611343D01*
G37*
G36*
G01X6312765Y3287743D02*
G01X6312765Y3159745D01*
G01X6317766Y3154744D01*
G01X6432767Y3154744D01*
G01X6437766Y3159745D01*
G01X6438269Y3200748D01*
G01X6393268Y3200748D01*
G01X6393268Y3245747D01*
G01X6437268Y3245747D01*
G01X6437766Y3287743D01*
G01X6432767Y3292745D01*
G01X6317766Y3292745D01*
G01X6312765Y3287743D01*
G37*
G36*
G01X6527766Y3287743D02*
G01X6527768Y3245747D01*
G01X6572267Y3245747D01*
G01X6572267Y3200748D01*
G01X6528269Y3200748D01*
G01X6527766Y3159745D01*
G01X6532767Y3154744D01*
G01X6647765Y3154744D01*
G01X6652767Y3159745D01*
G01X6652767Y3287743D01*
G01X6647765Y3292745D01*
G01X6532767Y3292745D01*
G01X6527766Y3287743D01*
G37*
G36*
G01X6312765Y5040343D02*
G01X6312765Y4912345D01*
G01X6317766Y4907344D01*
G01X6432767Y4907344D01*
G01X6437766Y4912345D01*
G01X6438269Y4953348D01*
G01X6393268Y4953348D01*
G01X6393268Y4998347D01*
G01X6437268Y4998347D01*
G01X6437766Y5040343D01*
G01X6432767Y5045345D01*
G01X6317766Y5045345D01*
G01X6312765Y5040343D01*
G37*
G36*
G01X6527766Y5040343D02*
G01X6527768Y4998347D01*
G01X6572267Y4998347D01*
G01X6572267Y4953348D01*
G01X6528269Y4953348D01*
G01X6527766Y4912345D01*
G01X6532767Y4907344D01*
G01X6647765Y4907344D01*
G01X6652767Y4912345D01*
G01X6652767Y5040343D01*
G01X6647765Y5045345D01*
G01X6532767Y5045345D01*
G01X6527766Y5040343D01*
G37*

G04 Pad Start*
G04 Pad End*
G54D10*

M02*

