G04 Layer: TopLayer*
G04 EasyEDA Pro v2.2.32.3, 2024-11-26 15:57:28*
G04 Gerber Generator version 0.3*
G04 Scale: 100 percent, Rotated: No, Reflected: No*
G04 Dimensions in millimeters*
G04 Leading zeros omitted, absolute positions, 3 integers and 5 decimals*
%FSLAX35Y35*%
%MOMM*%
%ADD10C,0.2032*%
%ADD11C,6.0*%
%ADD12R,2.0X2.0*%
%ADD13C,2.0*%
%ADD14C,2.79999*%
%ADD15C,1.524*%
%ADD16C,5.79999*%
%ADD17R,1.13254X1.37701*%
%ADD18C,0.6190*%
%ADD19C,0.61*%
%ADD20C,0.254*%
G75*


G04 Copper Start*
G36*
G01X5807395Y-47367D02*
G01X5710006Y-47691D01*
G03X5707431Y-47367I-2575J-10091D01*
G02X5317846Y342218I0J389585D01*
G02X5707431Y731803I389585J0D01*
G01X5707431Y731803D01*
G01X6107430Y731803D01*
G01X6107430Y731803D01*
G03X6117844Y742217I0J10414D01*
G01X6117844Y742217D01*
G01X6117844Y6142206D01*
G01X6117844Y6142206D01*
G03X6107430Y6152620I-10414J0D01*
G01X6107430Y6152620D01*
G01X5811135Y6152620D01*
G03X5807430Y6153302I-3705J-9733D01*
G03X5803725Y6152620I0J-10414D01*
G01X5707431Y6152620D01*
G01X5707431Y6152620D01*
G02X5317846Y6542206I0J389585D01*
G02X5701465Y6931745I389585J0D01*
G01X5701465Y6931745D01*
G03X5704960Y6931141I3495J9810D01*
G01X5704960Y6931141D01*
G01X5704997Y6931141D01*
G01X5704997Y6931141D01*
G01X5705026Y6931141D01*
G01X5705026Y6931141D01*
G01X5807463Y6931791D01*
G01X6307429Y6931791D01*
G01X6307429Y6931791D01*
G01X9307423Y6931791D01*
G01X9307423Y6931791D01*
G01X9807422Y6931791D01*
G01X9807457Y6931791D01*
G01X9904848Y6932114D01*
G03X9907421Y6931791I2573J10091D01*
G02X10297006Y6542206I0J-389585D01*
G02X9907421Y6152620I-389585J0D01*
G01X9907421Y6152620D01*
G01X9507422Y6152620D01*
G01X9507422Y6152620D01*
G03X9497008Y6142206I0J-10414D01*
G01X9497008Y6142206D01*
G01X9497008Y742217D01*
G01X9497008Y742217D01*
G03X9507422Y731803I10414J0D01*
G01X9507422Y731803D01*
G01X9907421Y731803D01*
G01X9907421Y731803D01*
G02X10297006Y342218I0J-389585D01*
G02X9909946Y-47359I-389585J0D01*
G01X9909946Y-47359D01*
G01X9908712Y-47286D01*
G01X9908704Y-47286D01*
G01X9807418Y-47367D01*
G01X9307423Y-47367D01*
G01X9307423Y-47367D01*
G01X6307429Y-47367D01*
G01X6307429Y-47367D01*
G01X5807430Y-47367D01*
G01X5807395Y-47367D01*
G37*
%LPC*%
G36*
G01X8074978Y147494D02*
G03X8110792Y183308I0J35814D01*
G01X8110792Y183308D01*
G01X8110792Y1133686D01*
G01X8337895Y1133686D01*
G01X8337895Y1133686D01*
G03X8350250Y1135884I0J35814D01*
G03X8513275Y1311232I-12788J175348D01*
G03X8337461Y1487046I-175814J0D01*
G03X8304009Y1483834I0J-175814D01*
G01X8110792Y1483834D01*
G01X8110792Y2847344D01*
G01X8318529Y2847344D01*
G03X8337461Y2846322I18933J174791D01*
G03X8356013Y2847303I0J175814D01*
G01X8472516Y2845714D01*
G01X8472516Y2845714D01*
G01X8473005Y2845711D01*
G03X8508819Y2881525I0J35814D01*
G01X8508808Y2882385D01*
G01X8508808Y2882385D01*
G01X8506604Y2974165D01*
G03X8513275Y3022135I-169143J47971D01*
G03X8504106Y3078171I-175814J0D01*
G01X8502084Y3162337D01*
G01X8502084Y3162337D01*
G03X8466901Y3197286I-35804J-860D01*
G01X8466901Y3197286D01*
G01X8338997Y3199502D01*
G01X8338997Y3199502D01*
G01X8338377Y3199507D01*
G01X8338140Y3199506D01*
G01X8338140Y3199506D01*
G01X8110792Y3198002D01*
G01X8110792Y4557039D01*
G01X8358369Y4557039D01*
G01X8483938Y4556209D01*
G01X8483938Y4556209D01*
G01X8484175Y4556208D01*
G03X8519989Y4592022I0J35814D01*
G01X8519985Y4592550D01*
G01X8519985Y4592550D01*
G01X8515893Y4870356D01*
G01X8515893Y4870356D01*
G03X8480208Y4905642I-35810J-528D01*
G01X8480208Y4905642D01*
G01X8368826Y4906032D01*
G03X8337461Y4908853I-31365J-172993D01*
G03X8307309Y4906248I0J-175814D01*
G01X8110792Y4906936D01*
G01X8110792Y6769019D01*
G01X8110792Y6769019D01*
G03X8074978Y6804833I-35814J0D01*
G01X8074977Y6804833D01*
G01X7488524Y6804833D01*
G01X7488524Y6804833D01*
G03X7452710Y6769019I0J-35814D01*
G01X7452710Y6769019D01*
G01X7452710Y5768709D01*
G01X7153667Y5769041D01*
G01X7153667Y5769041D01*
G01X7153627Y5769041D01*
G03X7117813Y5733227I0J-35814D01*
G01X7117813Y5733227D01*
G01X7117813Y5657526D01*
G03X7103459Y5587947I161460J-69579D01*
G03X7117813Y5518368I175814J0D01*
G01X7117813Y5453274D01*
G01X7117813Y5453274D01*
G03X7153627Y5417460I35814J0D01*
G01X7153706Y5417461D01*
G01X7235612Y5417641D01*
G03X7279273Y5412133I43661J170306D01*
G03X7323683Y5417835I0J175814D01*
G01X7452710Y5418119D01*
G01X7452710Y4051035D01*
G01X7304522Y4051035D01*
G03X7279273Y4052857I-25249J-173991D01*
G03X7254024Y4051035I0J-175814D01*
G01X7127722Y4051035D01*
G01X7127722Y4051035D01*
G03X7091908Y4015221I0J-35814D01*
G01X7091908Y4015221D01*
G01X7091908Y3736925D01*
G01X7091908Y3736925D01*
G03X7127705Y3701111I35814J0D01*
G01X7127705Y3701111D01*
G01X7452710Y3700954D01*
G01X7452710Y2343668D01*
G01X7133263Y2348833D01*
G01X7133263Y2348833D01*
G01X7132684Y2348838D01*
G03X7096870Y2313024I0J-35814D01*
G01X7096871Y2312768D01*
G01X7096871Y2312768D01*
G01X7098885Y2030435D01*
G01X7098885Y2030435D01*
G03X7133701Y1994890I35813J255D01*
G01X7133701Y1994890D01*
G01X7260165Y1991368D01*
G03X7279273Y1990326I19108J174772D01*
G03X7292279Y1990808I0J175814D01*
G01X7452710Y1991010D01*
G01X7452710Y183308D01*
G01X7452710Y183308D01*
G03X7488524Y147494I35814J0D01*
G01X7488524Y147494D01*
G01X8074977Y147494D01*
G01X8074978Y147494D01*
G37*
G36*
G01X8560473Y5575583D02*
G03X8660473Y5514038I100000J50470D01*
G03X8772487Y5626052I0J112014D01*
G03X8740612Y5704313I-112014J0D01*
G01X8739315Y5705626D01*
G01X8739315Y5705626D01*
G01X8739101Y5705832D01*
G03X8737059Y5707794I-78628J-79779D01*
G01X8736206Y5708614D01*
G01X8736206Y5708614D01*
G01X8734626Y5710044D01*
G01X8734626Y5710044D01*
G01X8730525Y5713540D01*
G01X8730525Y5713540D01*
G01X8728862Y5714875D01*
G01X8728862Y5714875D01*
G01X8724843Y5717908D01*
G01X8724843Y5717908D01*
G01X8723157Y5719105D01*
G01X8723157Y5719105D01*
G01X8716418Y5723605D01*
G01X8716417Y5723605D01*
G01X8715939Y5723919D01*
G01X8715939Y5723919D01*
G01X8709052Y5728360D01*
G01X8708987Y5730371D01*
G01X8708987Y5757241D01*
G01X9148195Y6196449D01*
G01X9150717Y6196545D01*
G01X9153592Y6196477D01*
G01X9158502Y6196090D01*
G01X9167448Y6194882D01*
G01X9181639Y6192309D01*
G03X9220167Y6186729I38528J130234D01*
G03X9228536Y6186987I0J135814D01*
G01X9228536Y6186987D01*
G01X9228808Y6187004D01*
G01X9228808Y6187004D01*
G03X9355981Y6322543I-8641J135539D01*
G03X9282523Y6443196I-135814J0D01*
G01X9271980Y6450311D01*
G01X9264652Y6455744D01*
G01X9260847Y6458910D01*
G01X9258745Y6460870D01*
G01X9257081Y6462628D01*
G01X9257081Y6494993D01*
G01X9257304Y6497279D01*
G01X9265194Y6497279D01*
G01X9265194Y6497279D01*
G03X9301008Y6533093I0J35814D01*
G01X9301008Y6533093D01*
G01X9301008Y6670794D01*
G01X9301008Y6670794D01*
G03X9265194Y6706608I-35814J0D01*
G01X9265194Y6706608D01*
G01X9151940Y6706608D01*
G01X9151940Y6706608D01*
G03X9116126Y6670794I0J-35814D01*
G01X9116126Y6670794D01*
G01X9116126Y6533093D01*
G01X9116126Y6533093D01*
G03X9151940Y6497279I35814J0D01*
G01X9151940Y6497279D01*
G01X9159829Y6497279D01*
G01X9160053Y6494993D01*
G01X9160053Y6459256D01*
G01X9159946Y6455915D01*
G01X9159707Y6453568D01*
G01X9159566Y6452728D01*
G01X9159382Y6451904D01*
G01X9159203Y6451276D01*
G01X9159036Y6450797D01*
G01X9158876Y6450415D01*
G01X9158711Y6450078D01*
G01X9158518Y6449736D01*
G01X9158272Y6449352D01*
G01X9158059Y6449056D01*
G01X9157185Y6447983D01*
G01X9156202Y6446921D01*
G01X9154242Y6445039D01*
G01X9145094Y6437338D01*
G01X9145090Y6437334D01*
G01X9133884Y6427898D01*
G01X9133884Y6427898D01*
G01X9132382Y6426559D01*
G01X9132382Y6426559D01*
G01X9126525Y6421035D01*
G01X9126525Y6421035D01*
G01X9125196Y6419715D01*
G01X9125196Y6419715D01*
G01X9123581Y6418023D01*
G03X9120321Y6414610I96586J-95480D01*
G01X9120321Y6414610D01*
G01X9119659Y6413889D01*
G01X9119659Y6413889D01*
G01X9119470Y6413678D01*
G03X9101981Y6389457I100697J-91135D01*
G01X9101981Y6422543D01*
G01X9101981Y6422543D01*
G03X9066167Y6458357I-35814J0D01*
G01X9066167Y6458357D01*
G01X9057305Y6458357D01*
G01X9057081Y6460643D01*
G01X9057081Y6494993D01*
G01X9057305Y6497279D01*
G01X9065194Y6497279D01*
G01X9065194Y6497279D01*
G03X9101008Y6533093I0J35814D01*
G01X9101008Y6533093D01*
G01X9101008Y6670794D01*
G01X9101008Y6670794D01*
G03X9065194Y6706608I-35814J0D01*
G01X9065194Y6706608D01*
G01X8951940Y6706608D01*
G01X8951940Y6706608D01*
G03X8916126Y6670794I0J-35814D01*
G01X8916126Y6670794D01*
G01X8916126Y6533093D01*
G01X8916126Y6533093D01*
G03X8951940Y6497279I35814J0D01*
G01X8951940Y6497279D01*
G01X8959830Y6497279D01*
G01X8960053Y6494993D01*
G01X8960053Y6460643D01*
G01X8959830Y6458357D01*
G01X8866167Y6458357D01*
G01X8866167Y6458357D01*
G03X8830353Y6422543I0J-35814D01*
G01X8830353Y6422543D01*
G01X8830353Y6222543D01*
G01X8830353Y6222543D01*
G03X8849979Y6190597I35814J0D01*
G01X8426169Y5766787D01*
G01X8426169Y5766787D01*
G03X8411959Y5732482I34305J-34305D01*
G01X8411959Y5732482D01*
G01X8411959Y5730371D01*
G01X8411893Y5728328D01*
G01X8402241Y5722134D01*
G01X8402241Y5722134D01*
G01X8401199Y5721440D01*
G01X8401199Y5721440D01*
G01X8396298Y5718048D01*
G01X8396298Y5718048D01*
G01X8394714Y5716886D01*
G01X8394714Y5716886D01*
G01X8390671Y5713746D01*
G01X8390671Y5713746D01*
G01X8389190Y5712531D01*
G01X8389190Y5712531D01*
G01X8386108Y5709862D01*
G01X8386108Y5709862D01*
G01X8384741Y5708614D01*
G01X8384740Y5708614D01*
G01X8383887Y5707794D01*
G03X8381845Y5705832I76586J-81742D01*
G01X8381631Y5705626D01*
G01X8381631Y5705626D01*
G01X8380334Y5704313D01*
G01X8380334Y5704313D01*
G03X8348459Y5626052I80140J-78261D01*
G03X8460473Y5514038I112014J0D01*
G03X8560473Y5575583I0J112014D01*
G37*
G36*
G01X9572133Y342523D02*
G03X9907947Y6709I335814J0D01*
G03X10243761Y342523I0J335814D01*
G03X9907947Y678337I-335814J0D01*
G03X9572133Y342523I0J-335814D01*
G37*
G36*
G01X5372480Y339949D02*
G03X5708294Y4134I335814J0D01*
G03X6044108Y339949I0J335814D01*
G03X5708294Y675763I-335814J0D01*
G03X5372480Y339949I0J-335814D01*
G37*
G36*
G01X9906884Y6206613D02*
G03X10242698Y6542427I0J335814D01*
G03X9906884Y6878241I-335814J0D01*
G03X9571070Y6542427I0J-335814D01*
G03X9906884Y6206613I335814J0D01*
G37*
G36*
G01X5707243Y6206045D02*
G03X6043057Y6541859I0J335814D01*
G03X5707243Y6877673I-335814J0D01*
G03X5371429Y6541859I0J-335814D01*
G03X5707243Y6206045I335814J0D01*
G37*
G36*
G01X6313773Y4452934D02*
G03X6380087Y4386620I66314J0D01*
G03X6446148Y4447147I0J66314D01*
G01X6446335Y4447674D01*
G01X6446611Y4448314D01*
G01X6644716Y4646420D01*
G01X6851942Y4646420D01*
G01X6853985Y4646354D01*
G01X6858506Y4639308D01*
G01X6712844Y4639308D01*
G01X6712844Y4639308D01*
G03X6678539Y4625099I0J-48514D01*
G01X6678539Y4625099D01*
G01X6576643Y4523202D01*
G01X6573923Y4522932D01*
G03X6512537Y4456801I4927J-66131D01*
G03X6578851Y4390487I66314J0D01*
G03X6644981Y4451874I0J66314D01*
G01X6645252Y4454593D01*
G01X6732939Y4542280D01*
G01X7052121Y4542280D01*
G01X7052121Y4542280D01*
G03X7086425Y4556489I0J48514D01*
G01X7086425Y4556489D01*
G01X7116800Y4586864D01*
G01X7118292Y4588263D01*
G01X7129497Y4585817D01*
G01X7129497Y4585817D01*
G01X7130727Y4585571D01*
G01X7130727Y4585571D01*
G01X7136591Y4584504D01*
G01X7136591Y4584504D01*
G01X7138530Y4584206D01*
G01X7138530Y4584206D01*
G01X7143608Y4583567D01*
G01X7143608Y4583567D01*
G01X7145517Y4583379D01*
G01X7145517Y4583379D01*
G01X7149584Y4583087D01*
G01X7149584Y4583087D01*
G01X7151432Y4583003D01*
G01X7151432Y4583003D01*
G01X7152624Y4582979D01*
G03X7155437Y4582923I3637J111955D01*
G01X7155743Y4582917D01*
G01X7155743Y4582917D01*
G01X7156456Y4582910D01*
G01X7157595Y4582928D01*
G03X7163127Y4583131I-1334J112006D01*
G01X7163424Y4583149D01*
G03X7268275Y4694934I-7163J111785D01*
G03X7156261Y4806948I-112014J0D01*
G03X7056261Y4745404I0J-112014D01*
G03X6956261Y4806948I-100000J-50470D01*
G03X6878000Y4775073I0J-112014D01*
G01X6876686Y4773775D01*
G01X6876686Y4773775D01*
G01X6876482Y4773563D01*
G03X6874512Y4771513I79779J-78629D01*
G01X6873698Y4770665D01*
G01X6873698Y4770665D01*
G01X6872270Y4769088D01*
G01X6872270Y4769088D01*
G01X6868774Y4764987D01*
G01X6868774Y4764987D01*
G01X6867439Y4763323D01*
G01X6867439Y4763323D01*
G01X6864406Y4759304D01*
G01X6864406Y4759304D01*
G01X6863209Y4757619D01*
G01X6863209Y4757619D01*
G01X6858708Y4750879D01*
G01X6858708Y4750879D01*
G01X6858394Y4750400D01*
G01X6858394Y4750400D01*
G01X6853953Y4743513D01*
G01X6851944Y4743448D01*
G01X6624621Y4743448D01*
G01X6624621Y4743448D01*
G03X6590317Y4729239I0J-48514D01*
G01X6590317Y4729239D01*
G01X6380475Y4519396D01*
G01X6375985Y4519121D01*
G01X6375985Y4519121D01*
G01X6375768Y4519107D01*
G03X6313773Y4452934I4319J-66173D01*
G37*
G36*
G01X6518144Y2742175D02*
G03X6584458Y2675861I66314J0D01*
G03X6650589Y2737248I0J66314D01*
G01X6650859Y2739968D01*
G01X6742268Y2831376D01*
G01X7052121Y2831376D01*
G01X7052121Y2831376D01*
G03X7086425Y2845586I0J48514D01*
G01X7086425Y2845586D01*
G01X7116800Y2875960D01*
G01X7118292Y2877359D01*
G01X7129497Y2874913D01*
G01X7129497Y2874913D01*
G01X7130727Y2874667D01*
G01X7130727Y2874667D01*
G01X7136591Y2873600D01*
G01X7136591Y2873600D01*
G01X7138530Y2873302D01*
G01X7138530Y2873302D01*
G01X7143608Y2872664D01*
G01X7143608Y2872664D01*
G01X7145517Y2872475D01*
G01X7145517Y2872475D01*
G01X7149584Y2872184D01*
G01X7149584Y2872184D01*
G01X7151432Y2872099D01*
G01X7151432Y2872099D01*
G01X7152624Y2872075D01*
G03X7155437Y2872019I3637J111955D01*
G01X7155743Y2872013D01*
G01X7155743Y2872013D01*
G01X7156456Y2872006D01*
G01X7157595Y2872024D01*
G03X7163127Y2872227I-1334J112006D01*
G01X7163424Y2872246D01*
G03X7268275Y2984030I-7163J111785D01*
G03X7156261Y3096044I-112014J0D01*
G03X7056261Y3034500I0J-112014D01*
G03X6956261Y3096044I-100000J-50470D01*
G03X6878048Y3064217I0J-112014D01*
G01X6876727Y3062914D01*
G01X6876727Y3062914D01*
G01X6876461Y3062637D01*
G03X6874679Y3060786I79801J-78607D01*
G01X6873751Y3059822D01*
G01X6873751Y3059822D01*
G01X6872341Y3058269D01*
G01X6872341Y3058269D01*
G01X6868852Y3054192D01*
G01X6868852Y3054192D01*
G01X6867536Y3052560D01*
G01X6867536Y3052560D01*
G01X6864503Y3048564D01*
G01X6864503Y3048564D01*
G01X6863271Y3046836D01*
G01X6863271Y3046836D01*
G01X6858169Y3039216D01*
G01X6858169Y3039216D01*
G01X6857961Y3038903D01*
G01X6857961Y3038903D01*
G01X6854012Y3032868D01*
G01X6851942Y3032801D01*
G01X6626260Y3032801D01*
G01X6626260Y3032801D01*
G03X6591955Y3018592I0J-48514D01*
G01X6591955Y3018592D01*
G01X6382713Y2809350D01*
G01X6379994Y2809080D01*
G03X6318607Y2742949I4926J-66131D01*
G03X6384921Y2676635I66314J0D01*
G03X6451051Y2738011I0J66314D01*
G01X6451322Y2740741D01*
G01X6451322Y2740741D01*
G01X6646355Y2935773D01*
G01X6851943Y2935773D01*
G01X6853929Y2935709D01*
G01X6858562Y2928404D01*
G01X6722173Y2928404D01*
G01X6722173Y2928404D01*
G03X6687868Y2914195I0J-48514D01*
G01X6687868Y2914195D01*
G01X6582250Y2808577D01*
G01X6579530Y2808306D01*
G03X6518144Y2742175I4927J-66131D01*
G37*
G36*
G01X8560473Y3864679D02*
G03X8660473Y3803135I100000J50470D01*
G03X8772479Y3913814I0J112014D01*
G01X8772479Y3913814D01*
G01X8772497Y3914953D01*
G01X8772490Y3915668D01*
G01X8772490Y3915668D01*
G01X8772484Y3915970D01*
G03X8772427Y3918800I-112011J-822D01*
G01X8772404Y3919980D01*
G01X8772404Y3919980D01*
G01X8772298Y3922104D01*
G01X8772298Y3922104D01*
G01X8771871Y3927476D01*
G01X8771871Y3927476D01*
G01X8771638Y3929597D01*
G01X8771638Y3929597D01*
G01X8770941Y3934584D01*
G01X8770941Y3934584D01*
G01X8770596Y3936622D01*
G01X8770596Y3936622D01*
G01X8769012Y3944570D01*
G01X8769012Y3944570D01*
G01X8768896Y3945131D01*
G01X8768896Y3945131D01*
G01X8767166Y3953141D01*
G01X8768543Y3954610D01*
G01X8857804Y4043871D01*
G01X9159344Y4043871D01*
G01X9159344Y4043871D01*
G03X9193649Y4058080I0J48514D01*
G01X9193649Y4058080D01*
G01X9219992Y4084423D01*
G01X9222713Y4084694D01*
G03X9284099Y4150825I-4928J66131D01*
G03X9217784Y4217139I-66314J0D01*
G03X9151654Y4155762I0J-66314D01*
G01X9151383Y4153032D01*
G01X9139249Y4140899D01*
G01X9078014Y4140899D01*
G03X9078761Y4150825I-65567J9926D01*
G03X9012447Y4217139I-66314J0D01*
G03X8972410Y4203688I0J-66314D01*
G01X8971197Y4203624D01*
G01X8970756Y4203620D01*
G01X8741633Y4203620D01*
G01X8741633Y4203620D01*
G03X8707329Y4189411I0J-48514D01*
G01X8707329Y4189411D01*
G01X8525611Y4007693D01*
G01X8522499Y4008618D01*
G01X8521837Y4008859D01*
G03X8460473Y4027163I-61364J-93710D01*
G03X8348459Y3915149I0J-112014D01*
G03X8460473Y3803135I112014J0D01*
G03X8560473Y3864679I0J112014D01*
G37*
G36*
G01X8560473Y2153775D02*
G03X8660473Y2092231I100000J50470D01*
G03X8772479Y2202911I0J112014D01*
G01X8772479Y2202911D01*
G01X8772497Y2204049D01*
G01X8772490Y2204765D01*
G01X8772490Y2204765D01*
G01X8772484Y2205067D01*
G03X8772427Y2207896I-112011J-822D01*
G01X8772404Y2209076D01*
G01X8772404Y2209076D01*
G01X8772298Y2211200D01*
G01X8772298Y2211200D01*
G01X8771871Y2216572D01*
G01X8771871Y2216572D01*
G01X8771638Y2218694D01*
G01X8771638Y2218694D01*
G01X8770941Y2223680D01*
G01X8770941Y2223680D01*
G01X8770596Y2225718D01*
G01X8770596Y2225718D01*
G01X8769012Y2233666D01*
G01X8769012Y2233666D01*
G01X8768896Y2234227D01*
G01X8768896Y2234227D01*
G01X8767166Y2242237D01*
G01X8768541Y2243704D01*
G01X8857273Y2332436D01*
G01X9159955Y2332436D01*
G01X9159955Y2332436D01*
G03X9194260Y2346645I0J48514D01*
G01X9194260Y2346645D01*
G01X9220615Y2373000D01*
G01X9221107Y2373285D01*
G01X9221392Y2373425D01*
G03X9280908Y2439390I-6798J65965D01*
G03X9214594Y2505704I-66314J0D01*
G03X9148421Y2443709I0J-66314D01*
G01X9148400Y2443376D01*
G01X9148400Y2443376D01*
G03X9148285Y2440192I66194J-3987D01*
G01X9148208Y2437811D01*
G01X9139860Y2429464D01*
G01X9075984Y2429464D01*
G03X9076731Y2439390I-65567J9926D01*
G03X9010417Y2505704I-66314J0D01*
G03X8967359Y2489823I0J-66314D01*
G01X8967009Y2489545D01*
G01X8966927Y2489490D01*
G01X8966467Y2489229D01*
G01X8966220Y2489111D01*
G01X8738028Y2489111D01*
G01X8738028Y2489111D01*
G03X8703723Y2474902I0J-48514D01*
G01X8703723Y2474902D01*
G01X8525611Y2296790D01*
G01X8522499Y2297714D01*
G01X8521837Y2297955D01*
G03X8460473Y2316259I-61364J-93710D01*
G03X8348459Y2204245I0J-112014D01*
G03X8460473Y2092231I112014J0D01*
G03X8560473Y2153775I0J112014D01*
G37*
G36*
G01X9290098Y224482D02*
G03X9325912Y260296I0J35814D01*
G01X9325912Y260296D01*
G01X9325912Y397997D01*
G01X9325912Y397997D01*
G03X9290098Y433811I-35814J0D01*
G01X9290098Y433811D01*
G01X9289275Y433811D01*
G01X9289051Y436097D01*
G01X9289051Y490909D01*
G01X9289737Y491938D01*
G01X9291833Y494566D01*
G01X9294666Y497686D01*
G01X9300289Y503207D01*
G01X9322634Y522494D01*
G01X9322634Y522495D01*
G01X9322895Y522722D01*
G01X9322895Y522722D01*
G01X9323894Y523601D01*
G03X9376351Y630826I-83356J107225D01*
G03X9240537Y766640I-135814J0D01*
G03X9122351Y697739I0J-135814D01*
G01X9122351Y730826D01*
G01X9122351Y730826D01*
G03X9086537Y766640I-35814J0D01*
G01X9086537Y766640D01*
G01X8886537Y766640D01*
G01X8886537Y766640D01*
G03X8850723Y730826I0J-35814D01*
G01X8850723Y730826D01*
G01X8850723Y530826D01*
G01X8850723Y530826D01*
G03X8886537Y495012I35814J0D01*
G01X8886537Y495012D01*
G01X8937800Y495012D01*
G01X8938023Y492726D01*
G01X8938023Y376081D01*
G01X8938023Y376081D01*
G03X8941031Y359265I48514J0D01*
G01X8941031Y260296D01*
G01X8941031Y260296D01*
G03X8976845Y224482I35814J0D01*
G01X8976845Y224482D01*
G01X9090099Y224482D01*
G01X9090099Y224482D01*
G03X9125913Y260296I0J35814D01*
G01X9125913Y260296D01*
G01X9125913Y397997D01*
G01X9125913Y397997D01*
G03X9090099Y433811I-35814J0D01*
G01X9090099Y433811D01*
G01X9035051Y433811D01*
G01X9035051Y492726D01*
G01X9035275Y495012D01*
G01X9086537Y495012D01*
G01X9086537Y495012D01*
G03X9122351Y530826I0J35814D01*
G01X9122351Y530826D01*
G01X9122351Y563912D01*
G03X9156687Y523987I118186J66913D01*
G01X9178549Y505273D01*
G01X9184647Y499492D01*
G01X9187865Y496127D01*
G01X9190404Y493159D01*
G01X9192023Y490955D01*
G01X9192023Y436097D01*
G01X9191800Y433811D01*
G01X9176845Y433811D01*
G01X9176845Y433811D01*
G03X9141031Y397997I0J-35814D01*
G01X9141031Y397997D01*
G01X9141031Y260296D01*
G01X9141031Y260296D01*
G03X9176845Y224482I35814J0D01*
G01X9176845Y224482D01*
G01X9290098Y224482D01*
G01X9290098Y224482D01*
G37*
G36*
G01X6844247Y1273127D02*
G03X6956261Y1161113I112014J0D01*
G03X7056261Y1222657I0J112014D01*
G03X7156261Y1161113I100000J50470D01*
G03X7268275Y1273127I0J112014D01*
G03X7156261Y1385141I-112014J0D01*
G03X7056261Y1323596I0J-112014D01*
G03X6956261Y1385141I-100000J-50470D01*
G03X6844247Y1273127I0J-112014D01*
G37*
%LPD*%
G36*
G01X7586626Y3746864D02*
G01X7137882Y3747080D01*
G01X7137882Y4005061D01*
G01X7586626Y4005061D01*
G01X7586626Y3746864D01*
G37*
G36*
G01X7589236Y2037157D02*
G01X7287097Y2036775D01*
G01X7281132Y2036775D01*
G01X7144788Y2040573D01*
G01X7142918Y2302697D01*
G01X7589236Y2295480D01*
G01X7589236Y2037157D01*
G37*
G36*
G01X7163787Y5463457D02*
G01X7163787Y5723056D01*
G01X7578795Y5722594D01*
G01X7578795Y5464371D01*
G01X7163787Y5463457D01*
G37*
G36*
G01X8064818Y6758859D02*
G01X8064818Y193468D01*
G01X7498684Y193468D01*
G01X7498684Y6758859D01*
G01X8064818Y6758859D01*
G37*
G36*
G01X8028642Y1179660D02*
G01X8028642Y1437860D01*
G01X8330829Y1437860D01*
G01X8330829Y1179660D01*
G01X8028642Y1179660D01*
G37*
G36*
G01X8462594Y2891828D02*
G01X8353405Y2893317D01*
G01X8353405Y2893317D01*
G01X8353267Y2893318D01*
G01X8353267Y2893318D01*
G01X8044013Y2893318D01*
G01X8044013Y3151585D01*
G01X8338322Y3153533D01*
G01X8456358Y3151488D01*
G01X8462594Y2891828D01*
G37*
G36*
G01X8473863Y4602250D02*
G01X8358554Y4603013D01*
G01X8358554Y4603013D01*
G01X8358487Y4603013D01*
G01X8358487Y4603013D01*
G01X8049233Y4603013D01*
G01X8049233Y4861178D01*
G01X8470071Y4859703D01*
G01X8473863Y4602250D01*
G37*
G54D10*
G01X5807395Y-47367D02*
G01X5710006Y-47691D01*
G03X5707431Y-47367I-2575J-10091D01*
G02X5317846Y342218I0J389585D01*
G02X5707431Y731803I389585J0D01*
G01X5707431Y731803D01*
G01X6107430Y731803D01*
G01X6107430Y731803D01*
G03X6117844Y742217I0J10414D01*
G01X6117844Y742217D01*
G01X6117844Y6142206D01*
G01X6117844Y6142206D01*
G03X6107430Y6152620I-10414J0D01*
G01X6107430Y6152620D01*
G01X5811135Y6152620D01*
G03X5807430Y6153302I-3705J-9733D01*
G03X5803725Y6152620I0J-10414D01*
G01X5707431Y6152620D01*
G01X5707431Y6152620D01*
G02X5317846Y6542206I0J389585D01*
G02X5701465Y6931745I389585J0D01*
G01X5701465Y6931745D01*
G03X5704960Y6931141I3495J9810D01*
G01X5704960Y6931141D01*
G01X5704997Y6931141D01*
G01X5704997Y6931141D01*
G01X5705026Y6931141D01*
G01X5705026Y6931141D01*
G01X5807463Y6931791D01*
G01X6307429Y6931791D01*
G01X6307429Y6931791D01*
G01X9307423Y6931791D01*
G01X9307423Y6931791D01*
G01X9807422Y6931791D01*
G01X9807457Y6931791D01*
G01X9904848Y6932114D01*
G03X9907421Y6931791I2573J10091D01*
G02X10297006Y6542206I0J-389585D01*
G02X9907421Y6152620I-389585J0D01*
G01X9907421Y6152620D01*
G01X9507422Y6152620D01*
G01X9507422Y6152620D01*
G03X9497008Y6142206I0J-10414D01*
G01X9497008Y6142206D01*
G01X9497008Y742217D01*
G01X9497008Y742217D01*
G03X9507422Y731803I10414J0D01*
G01X9507422Y731803D01*
G01X9907421Y731803D01*
G01X9907421Y731803D01*
G02X10297006Y342218I0J-389585D01*
G02X9909946Y-47359I-389585J0D01*
G01X9909946Y-47359D01*
G01X9908712Y-47286D01*
G01X9908704Y-47286D01*
G01X9807418Y-47367D01*
G01X9307423Y-47367D01*
G01X9307423Y-47367D01*
G01X6307429Y-47367D01*
G01X6307429Y-47367D01*
G01X5807430Y-47367D01*
G01X5807395Y-47367D01*
G01X8074978Y147494D02*
G03X8110792Y183308I0J35814D01*
G01X8110792Y183308D01*
G01X8110792Y1133686D01*
G01X8337895Y1133686D01*
G01X8337895Y1133686D01*
G03X8350250Y1135884I0J35814D01*
G03X8513275Y1311232I-12788J175348D01*
G03X8337461Y1487046I-175814J0D01*
G03X8304009Y1483834I0J-175814D01*
G01X8110792Y1483834D01*
G01X8110792Y2847344D01*
G01X8318529Y2847344D01*
G03X8337461Y2846322I18933J174791D01*
G03X8356013Y2847303I0J175814D01*
G01X8472516Y2845714D01*
G01X8472516Y2845714D01*
G01X8473005Y2845711D01*
G03X8508819Y2881525I0J35814D01*
G01X8508808Y2882385D01*
G01X8508808Y2882385D01*
G01X8506604Y2974165D01*
G03X8513275Y3022135I-169143J47971D01*
G03X8504106Y3078171I-175814J0D01*
G01X8502084Y3162337D01*
G01X8502084Y3162337D01*
G03X8466901Y3197286I-35804J-860D01*
G01X8466901Y3197286D01*
G01X8338997Y3199502D01*
G01X8338997Y3199502D01*
G01X8338377Y3199507D01*
G01X8338140Y3199506D01*
G01X8338140Y3199506D01*
G01X8110792Y3198002D01*
G01X8110792Y4557039D01*
G01X8358369Y4557039D01*
G01X8483938Y4556209D01*
G01X8483938Y4556209D01*
G01X8484175Y4556208D01*
G03X8519989Y4592022I0J35814D01*
G01X8519985Y4592550D01*
G01X8519985Y4592550D01*
G01X8515893Y4870356D01*
G01X8515893Y4870356D01*
G03X8480208Y4905642I-35810J-528D01*
G01X8480208Y4905642D01*
G01X8368826Y4906032D01*
G03X8337461Y4908853I-31365J-172993D01*
G03X8307309Y4906248I0J-175814D01*
G01X8110792Y4906936D01*
G01X8110792Y6769019D01*
G01X8110792Y6769019D01*
G03X8074978Y6804833I-35814J0D01*
G01X8074977Y6804833D01*
G01X7488524Y6804833D01*
G01X7488524Y6804833D01*
G03X7452710Y6769019I0J-35814D01*
G01X7452710Y6769019D01*
G01X7452710Y5768709D01*
G01X7153667Y5769041D01*
G01X7153667Y5769041D01*
G01X7153627Y5769041D01*
G03X7117813Y5733227I0J-35814D01*
G01X7117813Y5733227D01*
G01X7117813Y5657526D01*
G03X7103459Y5587947I161460J-69579D01*
G03X7117813Y5518368I175814J0D01*
G01X7117813Y5453274D01*
G01X7117813Y5453274D01*
G03X7153627Y5417460I35814J0D01*
G01X7153706Y5417461D01*
G01X7235612Y5417641D01*
G03X7279273Y5412133I43661J170306D01*
G03X7323683Y5417835I0J175814D01*
G01X7452710Y5418119D01*
G01X7452710Y4051035D01*
G01X7304522Y4051035D01*
G03X7279273Y4052857I-25249J-173991D01*
G03X7254024Y4051035I0J-175814D01*
G01X7127722Y4051035D01*
G01X7127722Y4051035D01*
G03X7091908Y4015221I0J-35814D01*
G01X7091908Y4015221D01*
G01X7091908Y3736925D01*
G01X7091908Y3736925D01*
G03X7127705Y3701111I35814J0D01*
G01X7127705Y3701111D01*
G01X7452710Y3700954D01*
G01X7452710Y2343668D01*
G01X7133263Y2348833D01*
G01X7133263Y2348833D01*
G01X7132684Y2348838D01*
G03X7096870Y2313024I0J-35814D01*
G01X7096871Y2312768D01*
G01X7096871Y2312768D01*
G01X7098885Y2030435D01*
G01X7098885Y2030435D01*
G03X7133701Y1994890I35813J255D01*
G01X7133701Y1994890D01*
G01X7260165Y1991368D01*
G03X7279273Y1990326I19108J174772D01*
G03X7292279Y1990808I0J175814D01*
G01X7452710Y1991010D01*
G01X7452710Y183308D01*
G01X7452710Y183308D01*
G03X7488524Y147494I35814J0D01*
G01X7488524Y147494D01*
G01X8074977Y147494D01*
G01X8074978Y147494D01*
G01X8560473Y5575583D02*
G03X8660473Y5514038I100000J50470D01*
G03X8772487Y5626052I0J112014D01*
G03X8740612Y5704313I-112014J0D01*
G01X8739315Y5705626D01*
G01X8739315Y5705626D01*
G01X8739101Y5705832D01*
G03X8737059Y5707794I-78628J-79779D01*
G01X8736206Y5708614D01*
G01X8736206Y5708614D01*
G01X8734626Y5710044D01*
G01X8734626Y5710044D01*
G01X8730525Y5713540D01*
G01X8730525Y5713540D01*
G01X8728862Y5714875D01*
G01X8728862Y5714875D01*
G01X8724843Y5717908D01*
G01X8724843Y5717908D01*
G01X8723157Y5719105D01*
G01X8723157Y5719105D01*
G01X8716418Y5723605D01*
G01X8716417Y5723605D01*
G01X8715939Y5723919D01*
G01X8715939Y5723919D01*
G01X8709052Y5728360D01*
G01X8708987Y5730371D01*
G01X8708987Y5757241D01*
G01X9148195Y6196449D01*
G01X9150717Y6196545D01*
G01X9153592Y6196477D01*
G01X9158502Y6196090D01*
G01X9167448Y6194882D01*
G01X9181639Y6192309D01*
G03X9220167Y6186729I38528J130234D01*
G03X9228536Y6186987I0J135814D01*
G01X9228536Y6186987D01*
G01X9228808Y6187004D01*
G01X9228808Y6187004D01*
G03X9355981Y6322543I-8641J135539D01*
G03X9282523Y6443196I-135814J0D01*
G01X9271980Y6450311D01*
G01X9264652Y6455744D01*
G01X9260847Y6458910D01*
G01X9258745Y6460870D01*
G01X9257081Y6462628D01*
G01X9257081Y6494993D01*
G01X9257304Y6497279D01*
G01X9265194Y6497279D01*
G01X9265194Y6497279D01*
G03X9301008Y6533093I0J35814D01*
G01X9301008Y6533093D01*
G01X9301008Y6670794D01*
G01X9301008Y6670794D01*
G03X9265194Y6706608I-35814J0D01*
G01X9265194Y6706608D01*
G01X9151940Y6706608D01*
G01X9151940Y6706608D01*
G03X9116126Y6670794I0J-35814D01*
G01X9116126Y6670794D01*
G01X9116126Y6533093D01*
G01X9116126Y6533093D01*
G03X9151940Y6497279I35814J0D01*
G01X9151940Y6497279D01*
G01X9159829Y6497279D01*
G01X9160053Y6494993D01*
G01X9160053Y6459256D01*
G01X9159946Y6455915D01*
G01X9159707Y6453568D01*
G01X9159566Y6452728D01*
G01X9159382Y6451904D01*
G01X9159203Y6451276D01*
G01X9159036Y6450797D01*
G01X9158876Y6450415D01*
G01X9158711Y6450078D01*
G01X9158518Y6449736D01*
G01X9158272Y6449352D01*
G01X9158059Y6449056D01*
G01X9157185Y6447983D01*
G01X9156202Y6446921D01*
G01X9154242Y6445039D01*
G01X9145094Y6437338D01*
G01X9145090Y6437334D01*
G01X9133884Y6427898D01*
G01X9133884Y6427898D01*
G01X9132382Y6426559D01*
G01X9132382Y6426559D01*
G01X9126525Y6421035D01*
G01X9126525Y6421035D01*
G01X9125196Y6419715D01*
G01X9125196Y6419715D01*
G01X9123581Y6418023D01*
G03X9120321Y6414610I96586J-95480D01*
G01X9120321Y6414610D01*
G01X9119659Y6413889D01*
G01X9119659Y6413889D01*
G01X9119470Y6413678D01*
G03X9101981Y6389457I100697J-91135D01*
G01X9101981Y6422543D01*
G01X9101981Y6422543D01*
G03X9066167Y6458357I-35814J0D01*
G01X9066167Y6458357D01*
G01X9057305Y6458357D01*
G01X9057081Y6460643D01*
G01X9057081Y6494993D01*
G01X9057305Y6497279D01*
G01X9065194Y6497279D01*
G01X9065194Y6497279D01*
G03X9101008Y6533093I0J35814D01*
G01X9101008Y6533093D01*
G01X9101008Y6670794D01*
G01X9101008Y6670794D01*
G03X9065194Y6706608I-35814J0D01*
G01X9065194Y6706608D01*
G01X8951940Y6706608D01*
G01X8951940Y6706608D01*
G03X8916126Y6670794I0J-35814D01*
G01X8916126Y6670794D01*
G01X8916126Y6533093D01*
G01X8916126Y6533093D01*
G03X8951940Y6497279I35814J0D01*
G01X8951940Y6497279D01*
G01X8959830Y6497279D01*
G01X8960053Y6494993D01*
G01X8960053Y6460643D01*
G01X8959830Y6458357D01*
G01X8866167Y6458357D01*
G01X8866167Y6458357D01*
G03X8830353Y6422543I0J-35814D01*
G01X8830353Y6422543D01*
G01X8830353Y6222543D01*
G01X8830353Y6222543D01*
G03X8849979Y6190597I35814J0D01*
G01X8426169Y5766787D01*
G01X8426169Y5766787D01*
G03X8411959Y5732482I34305J-34305D01*
G01X8411959Y5732482D01*
G01X8411959Y5730371D01*
G01X8411893Y5728328D01*
G01X8402241Y5722134D01*
G01X8402241Y5722134D01*
G01X8401199Y5721440D01*
G01X8401199Y5721440D01*
G01X8396298Y5718048D01*
G01X8396298Y5718048D01*
G01X8394714Y5716886D01*
G01X8394714Y5716886D01*
G01X8390671Y5713746D01*
G01X8390671Y5713746D01*
G01X8389190Y5712531D01*
G01X8389190Y5712531D01*
G01X8386108Y5709862D01*
G01X8386108Y5709862D01*
G01X8384741Y5708614D01*
G01X8384740Y5708614D01*
G01X8383887Y5707794D01*
G03X8381845Y5705832I76586J-81742D01*
G01X8381631Y5705626D01*
G01X8381631Y5705626D01*
G01X8380334Y5704313D01*
G01X8380334Y5704313D01*
G03X8348459Y5626052I80140J-78261D01*
G03X8460473Y5514038I112014J0D01*
G03X8560473Y5575583I0J112014D01*
G01X9572133Y342523D02*
G03X9907947Y6709I335814J0D01*
G03X10243761Y342523I0J335814D01*
G03X9907947Y678337I-335814J0D01*
G03X9572133Y342523I0J-335814D01*
G01X5372480Y339949D02*
G03X5708294Y4134I335814J0D01*
G03X6044108Y339949I0J335814D01*
G03X5708294Y675763I-335814J0D01*
G03X5372480Y339949I0J-335814D01*
G01X9906884Y6206613D02*
G03X10242698Y6542427I0J335814D01*
G03X9906884Y6878241I-335814J0D01*
G03X9571070Y6542427I0J-335814D01*
G03X9906884Y6206613I335814J0D01*
G01X5707243Y6206045D02*
G03X6043057Y6541859I0J335814D01*
G03X5707243Y6877673I-335814J0D01*
G03X5371429Y6541859I0J-335814D01*
G03X5707243Y6206045I335814J0D01*
G01X6313773Y4452934D02*
G03X6380087Y4386620I66314J0D01*
G03X6446148Y4447147I0J66314D01*
G01X6446335Y4447674D01*
G01X6446611Y4448314D01*
G01X6644716Y4646420D01*
G01X6851942Y4646420D01*
G01X6853985Y4646354D01*
G01X6858506Y4639308D01*
G01X6712844Y4639308D01*
G01X6712844Y4639308D01*
G03X6678539Y4625099I0J-48514D01*
G01X6678539Y4625099D01*
G01X6576643Y4523202D01*
G01X6573923Y4522932D01*
G03X6512537Y4456801I4927J-66131D01*
G03X6578851Y4390487I66314J0D01*
G03X6644981Y4451874I0J66314D01*
G01X6645252Y4454593D01*
G01X6732939Y4542280D01*
G01X7052121Y4542280D01*
G01X7052121Y4542280D01*
G03X7086425Y4556489I0J48514D01*
G01X7086425Y4556489D01*
G01X7116800Y4586864D01*
G01X7118292Y4588263D01*
G01X7129497Y4585817D01*
G01X7129497Y4585817D01*
G01X7130727Y4585571D01*
G01X7130727Y4585571D01*
G01X7136591Y4584504D01*
G01X7136591Y4584504D01*
G01X7138530Y4584206D01*
G01X7138530Y4584206D01*
G01X7143608Y4583567D01*
G01X7143608Y4583567D01*
G01X7145517Y4583379D01*
G01X7145517Y4583379D01*
G01X7149584Y4583087D01*
G01X7149584Y4583087D01*
G01X7151432Y4583003D01*
G01X7151432Y4583003D01*
G01X7152624Y4582979D01*
G03X7155437Y4582923I3637J111955D01*
G01X7155743Y4582917D01*
G01X7155743Y4582917D01*
G01X7156456Y4582910D01*
G01X7157595Y4582928D01*
G03X7163127Y4583131I-1334J112006D01*
G01X7163424Y4583149D01*
G03X7268275Y4694934I-7163J111785D01*
G03X7156261Y4806948I-112014J0D01*
G03X7056261Y4745404I0J-112014D01*
G03X6956261Y4806948I-100000J-50470D01*
G03X6878000Y4775073I0J-112014D01*
G01X6876686Y4773775D01*
G01X6876686Y4773775D01*
G01X6876482Y4773563D01*
G03X6874512Y4771513I79779J-78629D01*
G01X6873698Y4770665D01*
G01X6873698Y4770665D01*
G01X6872270Y4769088D01*
G01X6872270Y4769088D01*
G01X6868774Y4764987D01*
G01X6868774Y4764987D01*
G01X6867439Y4763323D01*
G01X6867439Y4763323D01*
G01X6864406Y4759304D01*
G01X6864406Y4759304D01*
G01X6863209Y4757619D01*
G01X6863209Y4757619D01*
G01X6858708Y4750879D01*
G01X6858708Y4750879D01*
G01X6858394Y4750400D01*
G01X6858394Y4750400D01*
G01X6853953Y4743513D01*
G01X6851944Y4743448D01*
G01X6624621Y4743448D01*
G01X6624621Y4743448D01*
G03X6590317Y4729239I0J-48514D01*
G01X6590317Y4729239D01*
G01X6380475Y4519396D01*
G01X6375985Y4519121D01*
G01X6375985Y4519121D01*
G01X6375768Y4519107D01*
G03X6313773Y4452934I4319J-66173D01*
G01X6518144Y2742175D02*
G03X6584458Y2675861I66314J0D01*
G03X6650589Y2737248I0J66314D01*
G01X6650859Y2739968D01*
G01X6742268Y2831376D01*
G01X7052121Y2831376D01*
G01X7052121Y2831376D01*
G03X7086425Y2845586I0J48514D01*
G01X7086425Y2845586D01*
G01X7116800Y2875960D01*
G01X7118292Y2877359D01*
G01X7129497Y2874913D01*
G01X7129497Y2874913D01*
G01X7130727Y2874667D01*
G01X7130727Y2874667D01*
G01X7136591Y2873600D01*
G01X7136591Y2873600D01*
G01X7138530Y2873302D01*
G01X7138530Y2873302D01*
G01X7143608Y2872664D01*
G01X7143608Y2872664D01*
G01X7145517Y2872475D01*
G01X7145517Y2872475D01*
G01X7149584Y2872184D01*
G01X7149584Y2872184D01*
G01X7151432Y2872099D01*
G01X7151432Y2872099D01*
G01X7152624Y2872075D01*
G03X7155437Y2872019I3637J111955D01*
G01X7155743Y2872013D01*
G01X7155743Y2872013D01*
G01X7156456Y2872006D01*
G01X7157595Y2872024D01*
G03X7163127Y2872227I-1334J112006D01*
G01X7163424Y2872246D01*
G03X7268275Y2984030I-7163J111785D01*
G03X7156261Y3096044I-112014J0D01*
G03X7056261Y3034500I0J-112014D01*
G03X6956261Y3096044I-100000J-50470D01*
G03X6878048Y3064217I0J-112014D01*
G01X6876727Y3062914D01*
G01X6876727Y3062914D01*
G01X6876461Y3062637D01*
G03X6874679Y3060786I79801J-78607D01*
G01X6873751Y3059822D01*
G01X6873751Y3059822D01*
G01X6872341Y3058269D01*
G01X6872341Y3058269D01*
G01X6868852Y3054192D01*
G01X6868852Y3054192D01*
G01X6867536Y3052560D01*
G01X6867536Y3052560D01*
G01X6864503Y3048564D01*
G01X6864503Y3048564D01*
G01X6863271Y3046836D01*
G01X6863271Y3046836D01*
G01X6858169Y3039216D01*
G01X6858169Y3039216D01*
G01X6857961Y3038903D01*
G01X6857961Y3038903D01*
G01X6854012Y3032868D01*
G01X6851942Y3032801D01*
G01X6626260Y3032801D01*
G01X6626260Y3032801D01*
G03X6591955Y3018592I0J-48514D01*
G01X6591955Y3018592D01*
G01X6382713Y2809350D01*
G01X6379994Y2809080D01*
G03X6318607Y2742949I4926J-66131D01*
G03X6384921Y2676635I66314J0D01*
G03X6451051Y2738011I0J66314D01*
G01X6451322Y2740741D01*
G01X6451322Y2740741D01*
G01X6646355Y2935773D01*
G01X6851943Y2935773D01*
G01X6853929Y2935709D01*
G01X6858562Y2928404D01*
G01X6722173Y2928404D01*
G01X6722173Y2928404D01*
G03X6687868Y2914195I0J-48514D01*
G01X6687868Y2914195D01*
G01X6582250Y2808577D01*
G01X6579530Y2808306D01*
G03X6518144Y2742175I4927J-66131D01*
G01X8560473Y3864679D02*
G03X8660473Y3803135I100000J50470D01*
G03X8772479Y3913814I0J112014D01*
G01X8772479Y3913814D01*
G01X8772497Y3914953D01*
G01X8772490Y3915668D01*
G01X8772490Y3915668D01*
G01X8772484Y3915970D01*
G03X8772427Y3918800I-112011J-822D01*
G01X8772404Y3919980D01*
G01X8772404Y3919980D01*
G01X8772298Y3922104D01*
G01X8772298Y3922104D01*
G01X8771871Y3927476D01*
G01X8771871Y3927476D01*
G01X8771638Y3929597D01*
G01X8771638Y3929597D01*
G01X8770941Y3934584D01*
G01X8770941Y3934584D01*
G01X8770596Y3936622D01*
G01X8770596Y3936622D01*
G01X8769012Y3944570D01*
G01X8769012Y3944570D01*
G01X8768896Y3945131D01*
G01X8768896Y3945131D01*
G01X8767166Y3953141D01*
G01X8768543Y3954610D01*
G01X8857804Y4043871D01*
G01X9159344Y4043871D01*
G01X9159344Y4043871D01*
G03X9193649Y4058080I0J48514D01*
G01X9193649Y4058080D01*
G01X9219992Y4084423D01*
G01X9222713Y4084694D01*
G03X9284099Y4150825I-4928J66131D01*
G03X9217784Y4217139I-66314J0D01*
G03X9151654Y4155762I0J-66314D01*
G01X9151383Y4153032D01*
G01X9139249Y4140899D01*
G01X9078014Y4140899D01*
G03X9078761Y4150825I-65567J9926D01*
G03X9012447Y4217139I-66314J0D01*
G03X8972410Y4203688I0J-66314D01*
G01X8971197Y4203624D01*
G01X8970756Y4203620D01*
G01X8741633Y4203620D01*
G01X8741633Y4203620D01*
G03X8707329Y4189411I0J-48514D01*
G01X8707329Y4189411D01*
G01X8525611Y4007693D01*
G01X8522499Y4008618D01*
G01X8521837Y4008859D01*
G03X8460473Y4027163I-61364J-93710D01*
G03X8348459Y3915149I0J-112014D01*
G03X8460473Y3803135I112014J0D01*
G03X8560473Y3864679I0J112014D01*
G01X8560473Y2153775D02*
G03X8660473Y2092231I100000J50470D01*
G03X8772479Y2202911I0J112014D01*
G01X8772479Y2202911D01*
G01X8772497Y2204049D01*
G01X8772490Y2204765D01*
G01X8772490Y2204765D01*
G01X8772484Y2205067D01*
G03X8772427Y2207896I-112011J-822D01*
G01X8772404Y2209076D01*
G01X8772404Y2209076D01*
G01X8772298Y2211200D01*
G01X8772298Y2211200D01*
G01X8771871Y2216572D01*
G01X8771871Y2216572D01*
G01X8771638Y2218694D01*
G01X8771638Y2218694D01*
G01X8770941Y2223680D01*
G01X8770941Y2223680D01*
G01X8770596Y2225718D01*
G01X8770596Y2225718D01*
G01X8769012Y2233666D01*
G01X8769012Y2233666D01*
G01X8768896Y2234227D01*
G01X8768896Y2234227D01*
G01X8767166Y2242237D01*
G01X8768541Y2243704D01*
G01X8857273Y2332436D01*
G01X9159955Y2332436D01*
G01X9159955Y2332436D01*
G03X9194260Y2346645I0J48514D01*
G01X9194260Y2346645D01*
G01X9220615Y2373000D01*
G01X9221107Y2373285D01*
G01X9221392Y2373425D01*
G03X9280908Y2439390I-6798J65965D01*
G03X9214594Y2505704I-66314J0D01*
G03X9148421Y2443709I0J-66314D01*
G01X9148400Y2443376D01*
G01X9148400Y2443376D01*
G03X9148285Y2440192I66194J-3987D01*
G01X9148208Y2437811D01*
G01X9139860Y2429464D01*
G01X9075984Y2429464D01*
G03X9076731Y2439390I-65567J9926D01*
G03X9010417Y2505704I-66314J0D01*
G03X8967359Y2489823I0J-66314D01*
G01X8967009Y2489545D01*
G01X8966927Y2489490D01*
G01X8966467Y2489229D01*
G01X8966220Y2489111D01*
G01X8738028Y2489111D01*
G01X8738028Y2489111D01*
G03X8703723Y2474902I0J-48514D01*
G01X8703723Y2474902D01*
G01X8525611Y2296790D01*
G01X8522499Y2297714D01*
G01X8521837Y2297955D01*
G03X8460473Y2316259I-61364J-93710D01*
G03X8348459Y2204245I0J-112014D01*
G03X8460473Y2092231I112014J0D01*
G03X8560473Y2153775I0J112014D01*
G01X9290098Y224482D02*
G03X9325912Y260296I0J35814D01*
G01X9325912Y260296D01*
G01X9325912Y397997D01*
G01X9325912Y397997D01*
G03X9290098Y433811I-35814J0D01*
G01X9290098Y433811D01*
G01X9289275Y433811D01*
G01X9289051Y436097D01*
G01X9289051Y490909D01*
G01X9289737Y491938D01*
G01X9291833Y494566D01*
G01X9294666Y497686D01*
G01X9300289Y503207D01*
G01X9322634Y522494D01*
G01X9322634Y522495D01*
G01X9322895Y522722D01*
G01X9322895Y522722D01*
G01X9323894Y523601D01*
G03X9376351Y630826I-83356J107225D01*
G03X9240537Y766640I-135814J0D01*
G03X9122351Y697739I0J-135814D01*
G01X9122351Y730826D01*
G01X9122351Y730826D01*
G03X9086537Y766640I-35814J0D01*
G01X9086537Y766640D01*
G01X8886537Y766640D01*
G01X8886537Y766640D01*
G03X8850723Y730826I0J-35814D01*
G01X8850723Y730826D01*
G01X8850723Y530826D01*
G01X8850723Y530826D01*
G03X8886537Y495012I35814J0D01*
G01X8886537Y495012D01*
G01X8937800Y495012D01*
G01X8938023Y492726D01*
G01X8938023Y376081D01*
G01X8938023Y376081D01*
G03X8941031Y359265I48514J0D01*
G01X8941031Y260296D01*
G01X8941031Y260296D01*
G03X8976845Y224482I35814J0D01*
G01X8976845Y224482D01*
G01X9090099Y224482D01*
G01X9090099Y224482D01*
G03X9125913Y260296I0J35814D01*
G01X9125913Y260296D01*
G01X9125913Y397997D01*
G01X9125913Y397997D01*
G03X9090099Y433811I-35814J0D01*
G01X9090099Y433811D01*
G01X9035051Y433811D01*
G01X9035051Y492726D01*
G01X9035275Y495012D01*
G01X9086537Y495012D01*
G01X9086537Y495012D01*
G03X9122351Y530826I0J35814D01*
G01X9122351Y530826D01*
G01X9122351Y563912D01*
G03X9156687Y523987I118186J66913D01*
G01X9178549Y505273D01*
G01X9184647Y499492D01*
G01X9187865Y496127D01*
G01X9190404Y493159D01*
G01X9192023Y490955D01*
G01X9192023Y436097D01*
G01X9191800Y433811D01*
G01X9176845Y433811D01*
G01X9176845Y433811D01*
G03X9141031Y397997I0J-35814D01*
G01X9141031Y397997D01*
G01X9141031Y260296D01*
G01X9141031Y260296D01*
G03X9176845Y224482I35814J0D01*
G01X9176845Y224482D01*
G01X9290098Y224482D01*
G01X9290098Y224482D01*
G01X6844247Y1273127D02*
G03X6956261Y1161113I112014J0D01*
G03X7056261Y1222657I0J112014D01*
G03X7156261Y1161113I100000J50470D01*
G03X7268275Y1273127I0J112014D01*
G03X7156261Y1385141I-112014J0D01*
G03X7056261Y1323596I0J-112014D01*
G03X6956261Y1385141I-100000J-50470D01*
G03X6844247Y1273127I0J-112014D01*
G01X7586626Y3746864D02*
G01X7137882Y3747080D01*
G01X7137882Y4005061D01*
G01X7586626Y4005061D01*
G01X7586626Y3746864D01*
G01X7589236Y2037157D02*
G01X7287097Y2036775D01*
G01X7281132Y2036775D01*
G01X7144788Y2040573D01*
G01X7142918Y2302697D01*
G01X7589236Y2295480D01*
G01X7589236Y2037157D01*
G01X7163787Y5463457D02*
G01X7163787Y5723056D01*
G01X7578795Y5722594D01*
G01X7578795Y5464371D01*
G01X7163787Y5463457D01*
G01X8064818Y6758859D02*
G01X8064818Y193468D01*
G01X7498684Y193468D01*
G01X7498684Y6758859D01*
G01X8064818Y6758859D01*
G01X8028642Y1179660D02*
G01X8028642Y1437860D01*
G01X8330829Y1437860D01*
G01X8330829Y1179660D01*
G01X8028642Y1179660D01*
G01X8462594Y2891828D02*
G01X8353405Y2893317D01*
G01X8353405Y2893317D01*
G01X8353267Y2893318D01*
G01X8353267Y2893318D01*
G01X8044013Y2893318D01*
G01X8044013Y3151585D01*
G01X8338322Y3153533D01*
G01X8456358Y3151488D01*
G01X8462594Y2891828D01*
G01X8473863Y4602250D02*
G01X8358554Y4603013D01*
G01X8358554Y4603013D01*
G01X8358487Y4603013D01*
G01X8358487Y4603013D01*
G01X8049233Y4603013D01*
G01X8049233Y4861178D01*
G01X8470071Y4859703D01*
G01X8473863Y4602250D01*
G04 Copper End*

G04 TearDrop Start*
G36*
G01X9021267Y6460643D02*
G01X8995867Y6460643D01*
G02X8976817Y6422543I-47625J0D01*
G01X9040317Y6422543D01*
G02X9021267Y6460643I28575J38100D01*
G37*
G36*
G01X9107675Y6242499D02*
G01X9125636Y6224538D01*
G01X9126570Y6225417D01*
G01X9127553Y6226234D01*
G01X9128584Y6226993D01*
G01X9129662Y6227694D01*
G01X9130785Y6228340D01*
G01X9131952Y6228931D01*
G01X9134411Y6229957D01*
G01X9137028Y6230784D01*
G01X9139792Y6231425D01*
G01X9142692Y6231891D01*
G01X9145716Y6232195D01*
G01X9150461Y6232375D01*
G01X9155423Y6232258D01*
G01X9162310Y6231714D01*
G01X9173041Y6230266D01*
G01X9203582Y6224728D01*
G01X9213473Y6223290D01*
G01X9219556Y6222756D01*
G01X9223787Y6222649D01*
G01X9226429Y6222739D01*
G01X9120364Y6328805D01*
G01X9120121Y6321670D01*
G01X9120332Y6313348D01*
G01X9121254Y6302664D01*
G01X9123280Y6285109D01*
G01X9123578Y6280127D01*
G01X9123595Y6276473D01*
G01X9123392Y6272871D01*
G01X9123113Y6270490D01*
G01X9122706Y6268119D01*
G01X9122160Y6265753D01*
G01X9121460Y6263385D01*
G01X9120597Y6261013D01*
G01X9119557Y6258629D01*
G01X9118329Y6256228D01*
G01X9116901Y6253806D01*
G01X9115261Y6251357D01*
G01X9113396Y6248876D01*
G01X9110153Y6245083D01*
G01X9107675Y6242499D01*
G37*
G36*
G01X9221267Y6458687D02*
G01X9195867Y6458687D01*
G01X9195702Y6453524D01*
G01X9195219Y6448790D01*
G01X9194728Y6445854D01*
G01X9194107Y6443080D01*
G01X9193360Y6440458D01*
G01X9192493Y6437976D01*
G01X9191510Y6435623D01*
G01X9190415Y6433387D01*
G01X9189214Y6431258D01*
G01X9187910Y6429224D01*
G01X9186509Y6427275D01*
G01X9184235Y6424484D01*
G01X9181768Y6421819D01*
G01X9178204Y6418396D01*
G01X9168159Y6409940D01*
G01X9156953Y6400503D01*
G01X9151097Y6394980D01*
G01X9146355Y6390015D01*
G01X9145167Y6388687D01*
G01X9295167Y6388687D01*
G01X9293329Y6390651D01*
G01X9290204Y6393603D01*
G01X9285438Y6397553D01*
G01X9277277Y6403530D01*
G01X9251289Y6421068D01*
G01X9242515Y6427572D01*
G01X9237162Y6432027D01*
G01X9233505Y6435437D01*
G01X9230216Y6438911D01*
G01X9228256Y6441265D01*
G01X9226504Y6443650D01*
G01X9224974Y6446067D01*
G01X9223684Y6448518D01*
G01X9222652Y6451005D01*
G01X9222238Y6452262D01*
G01X9221894Y6453528D01*
G01X9221623Y6454803D01*
G01X9221426Y6456088D01*
G01X9221307Y6457382D01*
G01X9221267Y6458687D01*
G37*
G36*
G01X8563411Y3958924D02*
G01X8545451Y3976884D01*
G01X8544512Y3976002D01*
G01X8543542Y3975200D01*
G01X8542539Y3974474D01*
G01X8541507Y3973823D01*
G01X8540444Y3973245D01*
G01X8539353Y3972737D01*
G01X8538233Y3972297D01*
G01X8537086Y3971924D01*
G01X8535913Y3971615D01*
G01X8534714Y3971368D01*
G01X8532244Y3971051D01*
G01X8529681Y3970958D01*
G01X8527034Y3971069D01*
G01X8524308Y3971369D01*
G01X8521511Y3971840D01*
G01X8517197Y3972832D01*
G01X8511257Y3974596D01*
G01X8500504Y3978516D01*
G01X8480207Y3986397D01*
G01X8474108Y3988401D01*
G01X8469638Y3989625D01*
G01X8465284Y3990548D01*
G01X8462456Y3990965D01*
G01X8459697Y3991206D01*
G01X8457013Y3991254D01*
G01X8455701Y3991199D01*
G01X8536524Y3910377D01*
G01X8536872Y3913740D01*
G01X8537481Y3917095D01*
G01X8538333Y3920433D01*
G01X8539412Y3923747D01*
G01X8540697Y3927029D01*
G01X8542976Y3931877D01*
G01X8545620Y3936612D01*
G01X8548571Y3941210D01*
G01X8552875Y3947081D01*
G01X8557472Y3952603D01*
G01X8562218Y3957716D01*
G01X8563411Y3958924D01*
G37*
G36*
G01X8742810Y3979525D02*
G01X8724849Y3997485D01*
G01X8721583Y3994423D01*
G01X8719482Y3992679D01*
G01X8717436Y3991159D01*
G01X8715439Y3989852D01*
G01X8713483Y3988745D01*
G01X8711563Y3987826D01*
G01X8709673Y3987084D01*
G01X8707806Y3986506D01*
G01X8705957Y3986082D01*
G01X8704120Y3985798D01*
G01X8702287Y3985643D01*
G01X8700454Y3985605D01*
G01X8698614Y3985672D01*
G01X8695826Y3985944D01*
G01X8692027Y3986563D01*
G01X8679598Y3989276D01*
G01X8673734Y3990342D01*
G01X8668656Y3990981D01*
G01X8664589Y3991273D01*
G01X8660278Y3991359D01*
G01X8655701Y3991199D01*
G01X8736523Y3910377D01*
G01X8736683Y3914953D01*
G01X8736597Y3919264D01*
G01X8736170Y3924636D01*
G01X8735472Y3929623D01*
G01X8733889Y3937571D01*
G01X8731709Y3947664D01*
G01X8731268Y3950502D01*
G01X8730996Y3953289D01*
G01X8730929Y3955130D01*
G01X8730967Y3956963D01*
G01X8731122Y3958795D01*
G01X8731406Y3960633D01*
G01X8731831Y3962482D01*
G01X8732408Y3964348D01*
G01X8733150Y3966238D01*
G01X8734069Y3968158D01*
G01X8735176Y3970114D01*
G01X8736484Y3972112D01*
G01X8738003Y3974158D01*
G01X8739747Y3976258D01*
G01X8742810Y3979525D01*
G37*
G36*
G01X8563411Y2248020D02*
G01X8545451Y2265980D01*
G01X8544512Y2265099D01*
G01X8543542Y2264296D01*
G01X8542539Y2263570D01*
G01X8541507Y2262919D01*
G01X8540444Y2262341D01*
G01X8539353Y2261833D01*
G01X8538233Y2261394D01*
G01X8537086Y2261021D01*
G01X8535913Y2260712D01*
G01X8534714Y2260464D01*
G01X8532244Y2260148D01*
G01X8529681Y2260054D01*
G01X8527034Y2260165D01*
G01X8524308Y2260465D01*
G01X8521511Y2260937D01*
G01X8517197Y2261929D01*
G01X8511257Y2263693D01*
G01X8500504Y2267612D01*
G01X8480207Y2275493D01*
G01X8474108Y2277498D01*
G01X8469638Y2278722D01*
G01X8465284Y2279644D01*
G01X8462456Y2280062D01*
G01X8459697Y2280303D01*
G01X8457013Y2280350D01*
G01X8455701Y2280295D01*
G01X8536524Y2199473D01*
G01X8536872Y2202837D01*
G01X8537481Y2206191D01*
G01X8538333Y2209529D01*
G01X8539412Y2212843D01*
G01X8540697Y2216126D01*
G01X8542976Y2220974D01*
G01X8545620Y2225709D01*
G01X8548571Y2230306D01*
G01X8552875Y2236178D01*
G01X8557472Y2241700D01*
G01X8562218Y2246813D01*
G01X8563411Y2248020D01*
G37*
G36*
G01X8742810Y2268621D02*
G01X8724849Y2286582D01*
G01X8721583Y2283519D01*
G01X8719482Y2281775D01*
G01X8717436Y2280256D01*
G01X8715439Y2278948D01*
G01X8713483Y2277841D01*
G01X8711563Y2276922D01*
G01X8709673Y2276180D01*
G01X8707806Y2275603D01*
G01X8705957Y2275178D01*
G01X8704120Y2274894D01*
G01X8702287Y2274739D01*
G01X8700454Y2274701D01*
G01X8698614Y2274768D01*
G01X8695826Y2275040D01*
G01X8692027Y2275659D01*
G01X8679598Y2278372D01*
G01X8673734Y2279439D01*
G01X8668656Y2280077D01*
G01X8664589Y2280369D01*
G01X8660278Y2280455D01*
G01X8655701Y2280295D01*
G01X8736523Y2199473D01*
G01X8736683Y2204049D01*
G01X8736597Y2208361D01*
G01X8736170Y2213733D01*
G01X8735472Y2218719D01*
G01X8733889Y2226668D01*
G01X8731709Y2236760D01*
G01X8731268Y2239598D01*
G01X8730996Y2242386D01*
G01X8730929Y2244226D01*
G01X8730967Y2246060D01*
G01X8731122Y2247892D01*
G01X8731406Y2249729D01*
G01X8731831Y2251578D01*
G01X8732408Y2253445D01*
G01X8733150Y2255335D01*
G01X8734069Y2257255D01*
G01X8735176Y2259210D01*
G01X8736484Y2261208D01*
G01X8738003Y2263254D01*
G01X8739747Y2265355D01*
G01X8742810Y2268621D01*
G37*
G36*
G01X7073924Y2919654D02*
G01X7091885Y2901694D01*
G01X7095151Y2904756D01*
G01X7097251Y2906500D01*
G01X7099297Y2908020D01*
G01X7101295Y2909327D01*
G01X7103251Y2910434D01*
G01X7105171Y2911353D01*
G01X7107061Y2912095D01*
G01X7108927Y2912672D01*
G01X7110776Y2913097D01*
G01X7112614Y2913381D01*
G01X7114446Y2913536D01*
G01X7116280Y2913574D01*
G01X7118120Y2913507D01*
G01X7120908Y2913235D01*
G01X7124707Y2912616D01*
G01X7137135Y2909903D01*
G01X7142999Y2908836D01*
G01X7148078Y2908198D01*
G01X7152145Y2907906D01*
G01X7156456Y2907820D01*
G01X7161033Y2907980D01*
G01X7080210Y2988802D01*
G01X7080051Y2984226D01*
G01X7080137Y2979914D01*
G01X7080564Y2974542D01*
G01X7081261Y2969556D01*
G01X7082845Y2961607D01*
G01X7085024Y2951515D01*
G01X7085466Y2948677D01*
G01X7085737Y2945890D01*
G01X7085804Y2944049D01*
G01X7085767Y2942216D01*
G01X7085612Y2940383D01*
G01X7085328Y2938546D01*
G01X7084903Y2936697D01*
G01X7084325Y2934831D01*
G01X7083583Y2932940D01*
G01X7082665Y2931021D01*
G01X7081557Y2929065D01*
G01X7080250Y2927067D01*
G01X7078730Y2925021D01*
G01X7076986Y2922920D01*
G01X7073924Y2919654D01*
G37*
G36*
G01X6852520Y2996987D02*
G01X6852520Y2971587D01*
G01X6857018Y2971442D01*
G01X6859749Y2971189D01*
G01X6862280Y2970814D01*
G01X6864625Y2970323D01*
G01X6866795Y2969720D01*
G01X6868805Y2969008D01*
G01X6870667Y2968191D01*
G01X6872395Y2967275D01*
G01X6874000Y2966262D01*
G01X6875496Y2965157D01*
G01X6876897Y2963964D01*
G01X6878214Y2962687D01*
G01X6879461Y2961330D01*
G01X6881229Y2959155D01*
G01X6883462Y2956013D01*
G01X6890291Y2945244D01*
G01X6893677Y2940315D01*
G01X6896818Y2936249D01*
G01X6899494Y2933149D01*
G01X6902493Y2930021D01*
G01X6905860Y2926880D01*
G01X6905860Y3041180D01*
G01X6902528Y3038075D01*
G01X6899552Y3034984D01*
G01X6896063Y3030907D01*
G01X6893030Y3026911D01*
G01X6887928Y3019291D01*
G01X6882884Y3011582D01*
G01X6881177Y3009277D01*
G01X6879387Y3007126D01*
G01X6878126Y3005785D01*
G01X6876797Y3004523D01*
G01X6875387Y3003344D01*
G01X6873883Y3002252D01*
G01X6872273Y3001251D01*
G01X6870544Y3000344D01*
G01X6868683Y2999537D01*
G01X6866679Y2998833D01*
G01X6864518Y2998237D01*
G01X6862188Y2997751D01*
G01X6859677Y2997382D01*
G01X6856971Y2997131D01*
G01X6852520Y2996987D01*
G37*
G36*
G01X8995867Y6494993D02*
G01X9021267Y6494993D01*
G02X9040317Y6533093I47625J0D01*
G01X8976817Y6533093D01*
G02X8995867Y6494993I-28575J-38100D01*
G37*
G36*
G01X9195867Y6494993D02*
G01X9221267Y6494993D01*
G02X9240317Y6533093I47625J0D01*
G01X9176817Y6533093D01*
G02X9195867Y6494993I-28575J-38100D01*
G37*
G36*
G01X7073924Y4630558D02*
G01X7091885Y4612597D01*
G01X7095151Y4615660D01*
G01X7097251Y4617403D01*
G01X7099297Y4618923D01*
G01X7101295Y4620231D01*
G01X7103251Y4621338D01*
G01X7105171Y4622256D01*
G01X7107061Y4622999D01*
G01X7108927Y4623576D01*
G01X7110776Y4624001D01*
G01X7112614Y4624285D01*
G01X7114446Y4624440D01*
G01X7116280Y4624478D01*
G01X7118120Y4624411D01*
G01X7120908Y4624139D01*
G01X7124707Y4623520D01*
G01X7137135Y4620807D01*
G01X7142999Y4619740D01*
G01X7148078Y4619101D01*
G01X7152145Y4618810D01*
G01X7156456Y4618724D01*
G01X7161033Y4618883D01*
G01X7080210Y4699706D01*
G01X7080051Y4695129D01*
G01X7080137Y4690818D01*
G01X7080564Y4685446D01*
G01X7081261Y4680459D01*
G01X7082845Y4672511D01*
G01X7085024Y4662419D01*
G01X7085466Y4659581D01*
G01X7085737Y4656793D01*
G01X7085804Y4654953D01*
G01X7085767Y4653119D01*
G01X7085612Y4651287D01*
G01X7085328Y4649449D01*
G01X7084903Y4647601D01*
G01X7084325Y4645734D01*
G01X7083583Y4643844D01*
G01X7082665Y4641924D01*
G01X7081557Y4639968D01*
G01X7080250Y4637970D01*
G01X7078730Y4635924D01*
G01X7076986Y4633824D01*
G01X7073924Y4630558D01*
G37*
G36*
G01X6852520Y4707634D02*
G01X6852520Y4682234D01*
G01X6856994Y4682090D01*
G01X6859713Y4681837D01*
G01X6862234Y4681465D01*
G01X6864571Y4680977D01*
G01X6866737Y4680377D01*
G01X6868744Y4679669D01*
G01X6870606Y4678858D01*
G01X6872334Y4677946D01*
G01X6873942Y4676939D01*
G01X6875442Y4675841D01*
G01X6876847Y4674654D01*
G01X6878170Y4673385D01*
G01X6879424Y4672036D01*
G01X6881203Y4669873D01*
G01X6883452Y4666749D01*
G01X6890322Y4656042D01*
G01X6893714Y4651141D01*
G01X6896853Y4647098D01*
G01X6899523Y4644016D01*
G01X6902511Y4640907D01*
G01X6905860Y4637784D01*
G01X6905860Y4752084D01*
G01X6902511Y4748961D01*
G01X6899523Y4745851D01*
G01X6896027Y4741751D01*
G01X6892994Y4737731D01*
G01X6888493Y4730991D01*
G01X6882898Y4722314D01*
G01X6881203Y4719995D01*
G01X6879424Y4717832D01*
G01X6878170Y4716483D01*
G01X6876847Y4715213D01*
G01X6875442Y4714027D01*
G01X6873942Y4712929D01*
G01X6872334Y4711922D01*
G01X6870606Y4711010D01*
G01X6868744Y4710199D01*
G01X6866737Y4709491D01*
G01X6864571Y4708891D01*
G01X6862234Y4708402D01*
G01X6859713Y4708030D01*
G01X6856994Y4707778D01*
G01X6852520Y4707634D01*
G37*
G36*
G01X8973837Y492726D02*
G01X8999237Y492726D01*
G02X9018287Y530826I47625J0D01*
G01X8954787Y530826D01*
G02X8973837Y492726I-28575J-38100D01*
G37*
G36*
G01X9227837Y494682D02*
G01X9253237Y494682D01*
G01X9253372Y496905D01*
G01X9253766Y499155D01*
G01X9254405Y501430D01*
G01X9255275Y503726D01*
G01X9256362Y506042D01*
G01X9257652Y508373D01*
G01X9260781Y513070D01*
G01X9264550Y517795D01*
G01X9268843Y522522D01*
G01X9276017Y529566D01*
G01X9299232Y549605D01*
G01X9310399Y559435D01*
G01X9313988Y562994D01*
G01X9315537Y564682D01*
G01X9165537Y564682D01*
G01X9168804Y561244D01*
G01X9177070Y553682D01*
G01X9202528Y531890D01*
G01X9209924Y524879D01*
G01X9214437Y520159D01*
G01X9218482Y515431D01*
G01X9221945Y510717D01*
G01X9223422Y508373D01*
G01X9224712Y506042D01*
G01X9225799Y503726D01*
G01X9226669Y501430D01*
G01X9227309Y499155D01*
G01X9227703Y496905D01*
G01X9227837Y494682D01*
G37*
G36*
G01X9253237Y436097D02*
G01X9227837Y436097D01*
G02X9208787Y397997I-47625J0D01*
G01X9272287Y397997D01*
G02X9253237Y436097I28575J38100D01*
G37*
G36*
G01X6419696Y4472048D02*
G01X6401736Y4490009D01*
G01X6400516Y4488886D01*
G01X6399257Y4487911D01*
G01X6397960Y4487070D01*
G01X6396626Y4486353D01*
G01X6395256Y4485750D01*
G01X6393851Y4485248D01*
G01X6392413Y4484837D01*
G01X6389442Y4484242D01*
G01X6386353Y4483875D01*
G01X6378177Y4483374D01*
G01X6410527Y4451024D01*
G01X6410646Y4452253D01*
G01X6411137Y4454929D01*
G01X6411927Y4457800D01*
G01X6412974Y4460754D01*
G01X6414234Y4463679D01*
G01X6415664Y4466460D01*
G01X6417220Y4468986D01*
G01X6418032Y4470118D01*
G01X6418859Y4471143D01*
G01X6419696Y4472048D01*
G37*
G36*
G01X6617193Y4477182D02*
G01X6599232Y4495143D01*
G01X6598170Y4494163D01*
G01X6597028Y4493262D01*
G01X6595813Y4492435D01*
G01X6594534Y4491681D01*
G01X6593198Y4490997D01*
G01X6590386Y4489826D01*
G01X6587439Y4488898D01*
G01X6584417Y4488192D01*
G01X6581382Y4487683D01*
G01X6576941Y4487241D01*
G01X6609291Y4454891D01*
G01X6609733Y4459332D01*
G01X6610242Y4462367D01*
G01X6610948Y4465389D01*
G01X6611876Y4468336D01*
G01X6613047Y4471148D01*
G01X6613731Y4472484D01*
G01X6614485Y4473763D01*
G01X6615311Y4474978D01*
G01X6616213Y4476120D01*
G01X6617193Y4477182D01*
G37*
G36*
G01X6423263Y2763330D02*
G01X6405302Y2781291D01*
G01X6404240Y2780311D01*
G01X6403098Y2779409D01*
G01X6401883Y2778583D01*
G01X6400604Y2777829D01*
G01X6399268Y2777145D01*
G01X6396456Y2775974D01*
G01X6393509Y2775046D01*
G01X6390487Y2774340D01*
G01X6387453Y2773831D01*
G01X6383011Y2773389D01*
G01X6415361Y2741039D01*
G01X6415803Y2745480D01*
G01X6416312Y2748515D01*
G01X6417018Y2751537D01*
G01X6417946Y2754484D01*
G01X6419117Y2757296D01*
G01X6419801Y2758632D01*
G01X6420555Y2759911D01*
G01X6421382Y2761126D01*
G01X6422283Y2762268D01*
G01X6423263Y2763330D01*
G37*
G36*
G01X6622800Y2762557D02*
G01X6604839Y2780517D01*
G01X6603777Y2779538D01*
G01X6602635Y2778636D01*
G01X6601420Y2777810D01*
G01X6600141Y2777056D01*
G01X6598805Y2776372D01*
G01X6595993Y2775200D01*
G01X6593046Y2774273D01*
G01X6590024Y2773566D01*
G01X6586989Y2773057D01*
G01X6582548Y2772615D01*
G01X6614898Y2740265D01*
G01X6615340Y2744707D01*
G01X6615849Y2747742D01*
G01X6616555Y2750763D01*
G01X6617483Y2753711D01*
G01X6618654Y2756523D01*
G01X6619338Y2757859D01*
G01X6620092Y2759138D01*
G01X6620918Y2760352D01*
G01X6621820Y2761495D01*
G01X6622800Y2762557D01*
G37*
G36*
G01X8968893Y2453297D02*
G01X8968893Y2427897D01*
G01X8970480Y2427832D01*
G01X8972016Y2427641D01*
G01X8973505Y2427334D01*
G01X8974951Y2426919D01*
G01X8976358Y2426403D01*
G01X8977728Y2425796D01*
G01X8979066Y2425106D01*
G01X8981658Y2423508D01*
G01X8984165Y2421676D01*
G01X8990243Y2416515D01*
G01X8990243Y2462265D01*
G01X8988144Y2460592D01*
G01X8985715Y2458972D01*
G01X8983041Y2457457D01*
G01X8980204Y2456099D01*
G01X8977287Y2454952D01*
G01X8974374Y2454068D01*
G01X8972945Y2453740D01*
G01X8971548Y2453499D01*
G01X8970194Y2453348D01*
G01X8968893Y2453297D01*
G37*
G36*
G01X9178153Y2417107D02*
G01X9196113Y2399147D01*
G01X9197021Y2400002D01*
G01X9199133Y2401705D01*
G01X9201565Y2403354D01*
G01X9204222Y2404892D01*
G01X9207014Y2406264D01*
G01X9209847Y2407413D01*
G01X9212629Y2408285D01*
G01X9213972Y2408599D01*
G01X9215268Y2408823D01*
G01X9216504Y2408949D01*
G01X9184154Y2441300D01*
G01X9183877Y2432773D01*
G01X9183681Y2429650D01*
G01X9183503Y2428143D01*
G01X9183252Y2426668D01*
G01X9182912Y2425225D01*
G01X9182469Y2423810D01*
G01X9181905Y2422423D01*
G01X9181207Y2421062D01*
G01X9180359Y2419723D01*
G01X9179346Y2418406D01*
G01X9178153Y2417107D01*
G37*
G36*
G01X8970923Y4167806D02*
G01X8970923Y4142406D01*
G01X8972874Y4142323D01*
G01X8974642Y4142081D01*
G01X8976249Y4141691D01*
G01X8977717Y4141164D01*
G01X8979066Y4140509D01*
G01X8980320Y4139738D01*
G01X8981498Y4138861D01*
G01X8982623Y4137889D01*
G01X8984797Y4135700D01*
G01X8989451Y4130646D01*
G01X8992273Y4127950D01*
G01X8992273Y4173700D01*
G01X8991208Y4172834D01*
G01X8990077Y4172054D01*
G01X8988889Y4171355D01*
G01X8987648Y4170733D01*
G01X8986361Y4170183D01*
G01X8985034Y4169703D01*
G01X8982286Y4168934D01*
G01X8979451Y4168392D01*
G01X8976579Y4168045D01*
G01X8972311Y4167819D01*
G01X8970923Y4167806D01*
G37*
G36*
G01X9179442Y4130443D02*
G01X9197403Y4112483D01*
G01X9198465Y4113462D01*
G01X9199607Y4114364D01*
G01X9200822Y4115190D01*
G01X9202101Y4115944D01*
G01X9203437Y4116628D01*
G01X9206249Y4117800D01*
G01X9209196Y4118727D01*
G01X9212218Y4119434D01*
G01X9215253Y4119942D01*
G01X9219695Y4120385D01*
G01X9187344Y4152735D01*
G01X9186902Y4148293D01*
G01X9186394Y4145258D01*
G01X9185687Y4142237D01*
G01X9184759Y4139289D01*
G01X9183588Y4136477D01*
G01X9182904Y4135141D01*
G01X9182150Y4133862D01*
G01X9181324Y4132648D01*
G01X9180422Y4131506D01*
G01X9179442Y4130443D01*
G37*
G36*
G01X8673173Y5729794D02*
G01X8647773Y5729794D01*
G01X8647629Y5725319D01*
G01X8647377Y5722600D01*
G01X8647004Y5720079D01*
G01X8646516Y5717742D01*
G01X8645916Y5715576D01*
G01X8645208Y5713569D01*
G01X8644396Y5711708D01*
G01X8643485Y5709979D01*
G01X8642478Y5708372D01*
G01X8641379Y5706872D01*
G01X8640193Y5705466D01*
G01X8638924Y5704143D01*
G01X8637575Y5702889D01*
G01X8635412Y5701110D01*
G01X8632288Y5698862D01*
G01X8621581Y5691992D01*
G01X8616680Y5688599D01*
G01X8612637Y5685460D01*
G01X8609555Y5682791D01*
G01X8606446Y5679803D01*
G01X8603323Y5676454D01*
G01X8717623Y5676454D01*
G01X8714500Y5679803D01*
G01X8711391Y5682791D01*
G01X8707290Y5686287D01*
G01X8703270Y5689320D01*
G01X8696530Y5693820D01*
G01X8687853Y5699415D01*
G01X8685534Y5701110D01*
G01X8683371Y5702889D01*
G01X8682022Y5704143D01*
G01X8680753Y5705466D01*
G01X8679566Y5706872D01*
G01X8678468Y5708372D01*
G01X8677461Y5709979D01*
G01X8676549Y5711708D01*
G01X8675738Y5713569D01*
G01X8675030Y5715576D01*
G01X8674430Y5717742D01*
G01X8673942Y5720079D01*
G01X8673569Y5722600D01*
G01X8673317Y5725319D01*
G01X8673173Y5729794D01*
G37*
G36*
G01X8473173Y5729794D02*
G01X8447773Y5729794D01*
G01X8447629Y5725319D01*
G01X8447377Y5722600D01*
G01X8447005Y5720079D01*
G01X8446517Y5717742D01*
G01X8445917Y5715576D01*
G01X8445209Y5713569D01*
G01X8444397Y5711708D01*
G01X8443486Y5709979D01*
G01X8442478Y5708372D01*
G01X8441380Y5706872D01*
G01X8440194Y5705466D01*
G01X8438924Y5704143D01*
G01X8437575Y5702889D01*
G01X8435412Y5701110D01*
G01X8432288Y5698862D01*
G01X8421581Y5691992D01*
G01X8416680Y5688599D01*
G01X8412638Y5685460D01*
G01X8409556Y5682791D01*
G01X8406446Y5679803D01*
G01X8403323Y5676454D01*
G01X8517623Y5676454D01*
G01X8514500Y5679803D01*
G01X8511391Y5682791D01*
G01X8507290Y5686287D01*
G01X8503271Y5689320D01*
G01X8496531Y5693820D01*
G01X8487853Y5699415D01*
G01X8485534Y5701110D01*
G01X8483371Y5702889D01*
G01X8482022Y5704143D01*
G01X8480753Y5705466D01*
G01X8479567Y5706872D01*
G01X8478468Y5708372D01*
G01X8477461Y5709979D01*
G01X8476550Y5711708D01*
G01X8475738Y5713569D01*
G01X8475030Y5715576D01*
G01X8474430Y5717742D01*
G01X8473942Y5720079D01*
G01X8473570Y5722600D01*
G01X8473318Y5725319D01*
G01X8473173Y5729794D01*
G37*
G04 TearDrop End*

G04 Pad Start*
G54D11*
G01X5707243Y6541859D03*
G01X5708294Y339949D03*
G01X9907947Y342523D03*
G01X9906884Y6542427D03*
G54D12*
G01X8966167Y6322543D03*
G54D13*
G01X9220167Y6322543D03*
G54D14*
G01X8337461Y4733039D03*
G01X8337461Y5241039D03*
G54D15*
G01X8460473Y5626052D03*
G01X8660473Y5626052D03*
G54D16*
G01X7060645Y6440219D03*
G01X7780633Y6440219D03*
G54D14*
G01X8337461Y3022135D03*
G01X8337461Y3530135D03*
G54D15*
G01X8460473Y3915149D03*
G01X8660473Y3915149D03*
G54D14*
G01X8337461Y1311232D03*
G01X8337461Y1819232D03*
G54D15*
G01X8460473Y2204245D03*
G01X8660473Y2204245D03*
G54D14*
G01X7279273Y3877044D03*
G01X7279273Y3369044D03*
G54D15*
G01X7156261Y2984030D03*
G01X6956261Y2984030D03*
G54D17*
G01X9008567Y6601943D03*
G01X9208567Y6601943D03*
G54D14*
G01X7279273Y2166140D03*
G01X7279273Y1658140D03*
G54D15*
G01X7156261Y1273127D03*
G01X6956261Y1273127D03*
G54D14*
G01X7279273Y5587947D03*
G01X7279273Y5079947D03*
G54D15*
G01X7156261Y4694934D03*
G01X6956261Y4694934D03*
G54D16*
G01X7062113Y503081D03*
G01X7782102Y503081D03*
G54D12*
G01X8986537Y630826D03*
G54D13*
G01X9240537Y630826D03*
G54D17*
G01X9033472Y329147D03*
G01X9233472Y329147D03*
G04 Pad End*

G04 Via Start*
G54D19*
G01X6380087Y4452934D03*
G01X6578851Y4456801D03*
G01X6384921Y2742949D03*
G01X6584458Y2742175D03*
G01X9010417Y2439390D03*
G01X9214594Y2439390D03*
G01X9012447Y4150825D03*
G01X9217784Y4150825D03*
G04 Via End*

G04 Track Start*
G54D20*
G01X9208567Y6601943D02*
G01X9208567Y6334143D01*
G01X9220167Y6322543D01*
G01X9008567Y6601943D02*
G01X9008567Y6364943D01*
G01X8966167Y6322543D01*
G01X9240537Y630826D02*
G01X9240537Y336212D01*
G01X9233472Y329147D01*
G01X8986537Y630826D02*
G01X8986537Y376081D01*
G01X9033472Y329147D01*
G01X8501676Y2204245D02*
G01X8460473Y2204245D01*
G01X8501676Y3915149D02*
G01X8460473Y3915149D01*
G01X9010417Y2439390D02*
G01X9009209Y2440597D01*
G01X8738028Y2440597D01*
G01X8501676Y2204245D01*
G01X8660473Y2204245D02*
G01X8837178Y2380950D01*
G01X9159955Y2380950D01*
G01X9214594Y2435588D01*
G01X9214594Y2439390D01*
G01X9012447Y4150825D02*
G01X9008166Y4155106D01*
G01X8741633Y4155106D01*
G01X8501676Y3915149D01*
G01X8660473Y3915149D02*
G01X8837709Y4092385D01*
G01X9159344Y4092385D01*
G01X9217784Y4150825D01*
G01X6578851Y4456801D02*
G01X6712844Y4590794D01*
G01X7052121Y4590794D01*
G01X7156261Y4694934D01*
G01X6380087Y4452934D02*
G01X6382621Y4452934D01*
G01X6624621Y4694934D01*
G01X6956261Y4694934D01*
G01X6956261Y2984030D02*
G01X6956004Y2984287D01*
G01X6626260Y2984287D01*
G01X6384921Y2742949D01*
G01X6584458Y2742175D02*
G01X6722173Y2879890D01*
G01X7052121Y2879890D01*
G01X7156261Y2984030D01*
G01X8460473Y5626052D02*
G01X8460473Y5732482D01*
G01X8966167Y6238176D01*
G01X8966167Y6322543D01*
G01X8660473Y5626052D02*
G01X8660473Y5777336D01*
G01X9205680Y6322543D01*
G01X9220167Y6322543D01*
G04 Track End*

M02*

