G04 Layer: BottomLayer*
G04 EasyEDA Pro v2.2.32.3, 2024-11-26 15:57:28*
G04 Gerber Generator version 0.3*
G04 Scale: 100 percent, Rotated: No, Reflected: No*
G04 Dimensions in millimeters*
G04 Leading zeros omitted, absolute positions, 3 integers and 5 decimals*
%FSLAX35Y35*%
%MOMM*%
%ADD10C,0.2032*%
%ADD11C,6.0*%
%ADD12R,2.0X2.0*%
%ADD13C,2.0*%
%ADD14C,2.79999*%
%ADD15C,1.524*%
%ADD16C,5.79999*%
%ADD17R,1.13254X1.37701*%
%ADD18R,1.13254X1.37701*%
%ADD19C,0.6143*%
%ADD20C,0.61*%
%ADD21C,0.254*%
G75*


G04 Copper Start*
G36*
G01X5807395Y-47367D02*
G01X5710006Y-47691D01*
G03X5707431Y-47367I-2575J-10091D01*
G02X5317846Y342218I0J389585D01*
G02X5707431Y731803I389585J0D01*
G01X5707431Y731803D01*
G01X6107430Y731803D01*
G01X6107430Y731803D01*
G03X6117844Y742217I0J10414D01*
G01X6117844Y742217D01*
G01X6117844Y6142206D01*
G01X6117844Y6142206D01*
G03X6107430Y6152620I-10414J0D01*
G01X6107430Y6152620D01*
G01X5811135Y6152620D01*
G03X5807430Y6153302I-3705J-9733D01*
G03X5803725Y6152620I0J-10414D01*
G01X5707431Y6152620D01*
G01X5707431Y6152620D01*
G02X5317846Y6542206I0J389585D01*
G02X5701465Y6931745I389585J0D01*
G01X5701465Y6931745D01*
G03X5704960Y6931141I3495J9810D01*
G01X5704960Y6931141D01*
G01X5704997Y6931141D01*
G01X5704997Y6931141D01*
G01X5705026Y6931141D01*
G01X5705026Y6931141D01*
G01X5807463Y6931791D01*
G01X6307429Y6931791D01*
G01X6307429Y6931791D01*
G01X9307423Y6931791D01*
G01X9307423Y6931791D01*
G01X9807422Y6931791D01*
G01X9807457Y6931791D01*
G01X9904848Y6932114D01*
G03X9907421Y6931791I2573J10091D01*
G02X10297006Y6542206I0J-389585D01*
G02X9907421Y6152620I-389585J0D01*
G01X9907421Y6152620D01*
G01X9507422Y6152620D01*
G01X9507422Y6152620D01*
G03X9497008Y6142206I0J-10414D01*
G01X9497008Y6142206D01*
G01X9497008Y742217D01*
G01X9497008Y742217D01*
G03X9507422Y731803I10414J0D01*
G01X9507422Y731803D01*
G01X9907421Y731803D01*
G01X9907421Y731803D01*
G02X10297006Y342218I0J-389585D01*
G02X9909946Y-47359I-389585J0D01*
G01X9909946Y-47359D01*
G01X9908712Y-47286D01*
G01X9908704Y-47286D01*
G01X9807418Y-47367D01*
G01X9307423Y-47367D01*
G01X9307423Y-47367D01*
G01X6307429Y-47367D01*
G01X6307429Y-47367D01*
G01X5807430Y-47367D01*
G01X5807395Y-47367D01*
G37*
%LPC*%
G36*
G01X8840676Y468621D02*
G03X8874981Y454412I34305J34305D01*
G01X8874981Y454412D01*
G01X9112637Y454412D01*
G01X9112637Y454412D01*
G03X9146942Y468621I0J48514D01*
G01X9146942Y468621D01*
G01X9175906Y497585D01*
G01X9177117Y497828D01*
G01X9180459Y498204D01*
G01X9184668Y498407D01*
G01X9192547Y498335D01*
G01X9221987Y496173D01*
G01X9221987Y496173D01*
G01X9222332Y496149D01*
G01X9222332Y496149D01*
G01X9223658Y496065D01*
G03X9240537Y495012I16880J134761D01*
G03X9376351Y630826I0J135814D01*
G03X9270204Y763360I-135814J0D01*
G01X9265453Y765744D01*
G01X9260661Y768543D01*
G01X9257937Y770393D01*
G01X9257081Y771058D01*
G01X9257081Y1808693D01*
G01X9257304Y1810979D01*
G01X9265194Y1810979D01*
G01X9265194Y1810979D01*
G03X9301008Y1846793I0J35814D01*
G01X9301008Y1846793D01*
G01X9301008Y1984494D01*
G01X9301008Y1984494D01*
G03X9265194Y2020308I-35814J0D01*
G01X9265194Y2020308D01*
G01X9257304Y2020308D01*
G01X9257081Y2022594D01*
G01X9257081Y2388405D01*
G01X9258410Y2389613D01*
G01X9259941Y2391004D01*
G01X9260032Y2391086D01*
G01X9260032Y2391086D01*
G03X9262049Y2393069I-24080J26510D01*
G01X9262049Y2393069D01*
G03X9280908Y2439390I-47454J46321D01*
G03X9262049Y2485711I-66314J0D01*
G01X9262049Y2485711D01*
G03X9260032Y2487693I-26096J-24528D01*
G01X9260032Y2487693D01*
G01X9259941Y2487775D01*
G01X9258410Y2489166D01*
G01X9257081Y2490374D01*
G01X9257081Y3510493D01*
G01X9257304Y3512779D01*
G01X9265194Y3512779D01*
G01X9265194Y3512779D01*
G03X9301008Y3548593I0J35814D01*
G01X9301008Y3548593D01*
G01X9301008Y3686294D01*
G01X9301008Y3686294D01*
G03X9265194Y3722108I-35814J0D01*
G01X9265194Y3722108D01*
G01X9257304Y3722108D01*
G01X9257081Y3724394D01*
G01X9257081Y4097343D01*
G01X9257165Y4097414D01*
G01X9257758Y4097913D01*
G03X9284099Y4150825I-39973J52912D01*
G03X9258096Y4203480I-66314J0D01*
G01X9257081Y4204326D01*
G01X9257081Y5237693D01*
G01X9257304Y5239979D01*
G01X9265194Y5239979D01*
G01X9265194Y5239979D01*
G03X9301008Y5275793I0J35814D01*
G01X9301008Y5275793D01*
G01X9301008Y5413494D01*
G01X9301008Y5413494D01*
G03X9268945Y5449111I-35814J0D01*
G01X9268681Y5451594D01*
G01X9268681Y6182626D01*
G01X9269366Y6183655D01*
G01X9271463Y6186283D01*
G01X9274296Y6189403D01*
G01X9279918Y6194924D01*
G01X9302264Y6214212D01*
G01X9302264Y6214212D01*
G01X9302525Y6214439D01*
G01X9302525Y6214439D01*
G01X9303523Y6215319D01*
G03X9355981Y6322543I-83357J107224D01*
G03X9220167Y6458357I-135814J0D01*
G03X9101981Y6389457I0J-135814D01*
G01X9101981Y6422543D01*
G01X9101981Y6422543D01*
G03X9066167Y6458357I-35814J0D01*
G01X9066167Y6458357D01*
G01X8866167Y6458357D01*
G01X8866167Y6458357D01*
G03X8830353Y6422543I0J-35814D01*
G01X8830353Y6422543D01*
G01X8830353Y6222543D01*
G01X8830353Y6222543D01*
G03X8866167Y6186729I35814J0D01*
G01X8866167Y6186729D01*
G01X8961142Y6186729D01*
G01X8961365Y6184443D01*
G01X8961365Y5451594D01*
G01X8961142Y5449308D01*
G01X8951940Y5449308D01*
G01X8951940Y5449308D01*
G03X8916126Y5413494I0J-35814D01*
G01X8916126Y5413494D01*
G01X8916126Y5275793D01*
G01X8916126Y5275793D01*
G03X8951940Y5239979I35814J0D01*
G01X8951940Y5239979D01*
G01X8959830Y5239979D01*
G01X8960053Y5237693D01*
G01X8960053Y4192857D01*
G01X8960019Y4191655D01*
G01X8959997Y4191403D01*
G03X8946133Y4150825I52450J-40578D01*
G03X8960000Y4110244I66314J0D01*
G01X8960048Y4109385D01*
G01X8960053Y4109049D01*
G01X8960053Y3724394D01*
G01X8959830Y3722108D01*
G01X8951940Y3722108D01*
G01X8951940Y3722108D01*
G03X8916126Y3686294I0J-35814D01*
G01X8916126Y3686294D01*
G01X8916126Y3548593D01*
G01X8916126Y3548593D01*
G03X8951940Y3512779I35814J0D01*
G01X8951940Y3512779D01*
G01X8959830Y3512779D01*
G01X8960053Y3510493D01*
G01X8960053Y2483140D01*
G01X8959925Y2482779D01*
G01X8959615Y2482064D01*
G01X8959547Y2481932D01*
G03X8944103Y2439390I50870J-42542D01*
G03X8959547Y2396847I66314J0D01*
G01X8959616Y2396715D01*
G01X8959925Y2396000D01*
G01X8960053Y2395639D01*
G01X8960053Y2022594D01*
G01X8959830Y2020308D01*
G01X8951940Y2020308D01*
G01X8951940Y2020308D01*
G03X8916126Y1984494I0J-35814D01*
G01X8916126Y1984494D01*
G01X8916126Y1846793D01*
G01X8916126Y1846793D01*
G03X8951940Y1810979I35814J0D01*
G01X8951940Y1810979D01*
G01X8959830Y1810979D01*
G01X8960053Y1808693D01*
G01X8960053Y768926D01*
G01X8959830Y766640D01*
G01X8918623Y766640D01*
G02X8887220Y783091I10625J58479D01*
G01X8887175Y783136D01*
G01X8534888Y1135423D01*
G01X8534888Y1135423D01*
G03X8500583Y1149632I-34305J-34305D01*
G01X8500583Y1149632D01*
G01X8406714Y1149632D01*
G03X8513275Y1311232I-69253J161600D01*
G03X8337461Y1487046I-175814J0D01*
G03X8161647Y1311232I0J-175814D01*
G03X8268208Y1149632I175814J0D01*
G01X7348364Y1149632D01*
G01X7264329Y1233668D01*
G01X7262932Y1235158D01*
G01X7265378Y1246363D01*
G01X7265378Y1246363D01*
G01X7265624Y1247591D01*
G01X7265624Y1247591D01*
G01X7266690Y1253455D01*
G01X7266690Y1253455D01*
G01X7266989Y1255396D01*
G01X7266989Y1255396D01*
G01X7267627Y1260474D01*
G01X7267627Y1260474D01*
G01X7267816Y1262385D01*
G01X7267816Y1262385D01*
G01X7268107Y1266451D01*
G01X7268107Y1266452D01*
G01X7268192Y1268296D01*
G01X7268192Y1268296D01*
G01X7268215Y1269476D01*
G03X7268272Y1272305I-111954J3651D01*
G01X7268278Y1272607D01*
G01X7268278Y1272607D01*
G01X7268285Y1273322D01*
G01X7268267Y1274461D01*
G03X7157582Y1385133I-112006J-1334D01*
G01X7156456Y1385151D01*
G01X7155743Y1385144D01*
G01X7155743Y1385144D01*
G01X7155457Y1385138D01*
G03X7152604Y1385081I803J-112011D01*
G01X7151432Y1385058D01*
G01X7151432Y1385058D01*
G01X7149304Y1384952D01*
G01X7149304Y1384952D01*
G01X7143932Y1384524D01*
G01X7143932Y1384524D01*
G01X7141814Y1384292D01*
G01X7141814Y1384292D01*
G01X7136827Y1383595D01*
G01X7136827Y1383595D01*
G01X7134786Y1383249D01*
G01X7134786Y1383249D01*
G01X7126838Y1381665D01*
G01X7126838Y1381665D01*
G01X7126279Y1381549D01*
G01X7126279Y1381549D01*
G01X7118269Y1379820D01*
G01X7116800Y1381197D01*
G01X6953903Y1544094D01*
G01X6953903Y1544094D01*
G03X6919599Y1558303I-34305J-34305D01*
G01X6919599Y1558303D01*
G01X6677494Y1558303D01*
G01X6675208Y1558526D01*
G01X6675208Y1616194D01*
G01X6675208Y1616194D01*
G03X6639394Y1652008I-35814J0D01*
G01X6639394Y1652008D01*
G01X6631504Y1652008D01*
G01X6631281Y1654294D01*
G01X6631281Y2694997D01*
G01X6634216Y2698338D01*
G03X6650772Y2742175I-49758J43837D01*
G03X6634215Y2786013I-66314J0D01*
G01X6631281Y2789354D01*
G01X6631281Y3116793D01*
G01X6631504Y3119079D01*
G01X6639394Y3119079D01*
G01X6639394Y3119079D01*
G03X6675208Y3154893I0J35814D01*
G01X6675208Y3154893D01*
G01X6675208Y3292594D01*
G01X6675208Y3292594D01*
G03X6639394Y3328408I-35814J0D01*
G01X6639394Y3328408D01*
G01X6631504Y3328408D01*
G01X6631281Y3330694D01*
G01X6631281Y4414785D01*
G01X6631315Y4416026D01*
G01X6631335Y4416268D01*
G03X6645165Y4456801I-52485J40533D01*
G03X6631334Y4497336I-66314J0D01*
G01X6631286Y4498204D01*
G01X6631281Y4498570D01*
G01X6631281Y4869393D01*
G01X6631504Y4871679D01*
G01X6639394Y4871679D01*
G01X6639394Y4871679D01*
G03X6675208Y4907493I0J35814D01*
G01X6675208Y4907493D01*
G01X6675208Y5045194D01*
G01X6675208Y5045194D01*
G03X6639394Y5081008I-35814J0D01*
G01X6639394Y5081008D01*
G01X6526140Y5081008D01*
G01X6526140Y5081008D01*
G03X6490326Y5045194I0J-35814D01*
G01X6490326Y5045194D01*
G01X6490326Y4907493D01*
G01X6490326Y4907493D01*
G03X6526140Y4871679I35814J0D01*
G01X6526140Y4871679D01*
G01X6534030Y4871679D01*
G01X6534253Y4869393D01*
G01X6534253Y4506014D01*
G01X6533929Y4505706D01*
G01X6533929Y4505706D01*
G01X6532606Y4504381D01*
G01X6532606Y4504381D01*
G01X6531829Y4503561D01*
G03X6529140Y4500692I47021J-46761D01*
G01X6529089Y4500634D01*
G03X6512537Y4456801I49762J-43833D01*
G03X6529005Y4413063I66314J0D01*
G01X6529225Y4412814D01*
G03X6531824Y4410045I49625J43987D01*
G01X6532606Y4409221D01*
G01X6532606Y4409221D01*
G01X6533929Y4407895D01*
G01X6533929Y4407895D01*
G01X6534253Y4407587D01*
G01X6534253Y3330694D01*
G01X6534030Y3328408D01*
G01X6526140Y3328408D01*
G01X6526140Y3328408D01*
G03X6490326Y3292594I0J-35814D01*
G01X6490326Y3292594D01*
G01X6490326Y3154893D01*
G01X6490326Y3154893D01*
G03X6526140Y3119079I35814J0D01*
G01X6526140Y3119079D01*
G01X6534030Y3119079D01*
G01X6534253Y3116793D01*
G01X6534253Y2786017D01*
G01X6534189Y2785843D01*
G01X6533889Y2785166D01*
G01X6533761Y2784923D01*
G03X6518144Y2742175I50697J-42748D01*
G03X6533770Y2699416I66314J0D01*
G01X6534040Y2698859D01*
G01X6534253Y2698333D01*
G01X6534253Y1654294D01*
G01X6534030Y1652008D01*
G01X6526140Y1652008D01*
G01X6526140Y1652008D01*
G03X6490326Y1616194I0J-35814D01*
G01X6490326Y1616194D01*
G01X6490326Y1508437D01*
G02X6475208Y1538463I43361J40651D01*
G01X6475208Y1616194D01*
G01X6475208Y1616194D01*
G03X6439394Y1652008I-35814J0D01*
G01X6439394Y1652008D01*
G01X6431505Y1652008D01*
G01X6431281Y1654294D01*
G01X6431281Y2695356D01*
G01X6433677Y2698000D01*
G01X6434546Y2698962D01*
G01X6434766Y2699211D01*
G03X6451235Y2742949I-49846J43738D01*
G03X6434682Y2786782I-66314J0D01*
G01X6434631Y2786840D01*
G01X6433664Y2787912D01*
G01X6431281Y2790542D01*
G01X6431281Y3116793D01*
G01X6431505Y3119079D01*
G01X6439394Y3119079D01*
G01X6439394Y3119079D01*
G03X6475208Y3154893I0J35814D01*
G01X6475208Y3154893D01*
G01X6475208Y3292594D01*
G01X6475208Y3292594D01*
G03X6439394Y3328408I-35814J0D01*
G01X6439394Y3328408D01*
G01X6431505Y3328408D01*
G01X6431281Y3330694D01*
G01X6431281Y4410234D01*
G01X6431427Y4410780D01*
G01X6431534Y4411091D01*
G03X6446401Y4452934I-51447J41843D01*
G03X6431534Y4494776I-66314J0D01*
G01X6431427Y4495087D01*
G01X6431281Y4495634D01*
G01X6431281Y4869393D01*
G01X6431505Y4871679D01*
G01X6439394Y4871679D01*
G01X6439394Y4871679D01*
G03X6475208Y4907493I0J35814D01*
G01X6475208Y4907493D01*
G01X6475208Y5045194D01*
G01X6475208Y5045194D01*
G03X6439394Y5081008I-35814J0D01*
G01X6439394Y5081008D01*
G01X6326141Y5081008D01*
G01X6326141Y5081008D01*
G03X6290327Y5045194I0J-35814D01*
G01X6290327Y5045194D01*
G01X6290327Y4907493D01*
G01X6290327Y4907493D01*
G03X6326141Y4871679I35814J0D01*
G01X6326141Y4871679D01*
G01X6334030Y4871679D01*
G01X6334253Y4869393D01*
G01X6334253Y4501031D01*
G01X6332300Y4498949D01*
G01X6332300Y4498949D01*
G01X6331823Y4498431D01*
G01X6331823Y4498431D01*
G01X6331190Y4497729D01*
G03X6313773Y4452934I48897J-44796D01*
G03X6332618Y4406627I66314J0D01*
G01X6334253Y4404882D01*
G01X6334253Y3330694D01*
G01X6334030Y3328408D01*
G01X6326141Y3328408D01*
G01X6326141Y3328408D01*
G03X6290327Y3292594I0J-35814D01*
G01X6290327Y3292594D01*
G01X6290327Y3154893D01*
G01X6290327Y3154893D01*
G03X6326141Y3119079I35814J0D01*
G01X6326141Y3119079D01*
G01X6334030Y3119079D01*
G01X6334253Y3116793D01*
G01X6334253Y2786477D01*
G01X6334026Y2785806D01*
G01X6333744Y2785121D01*
G03X6318607Y2742949I51177J-42172D01*
G03X6333744Y2700777I66314J0D01*
G01X6334026Y2700092D01*
G01X6334253Y2699421D01*
G01X6334253Y1654294D01*
G01X6334030Y1652008D01*
G01X6326141Y1652008D01*
G01X6326141Y1652008D01*
G03X6290327Y1616194I0J-35814D01*
G01X6290327Y1616194D01*
G01X6290327Y1478493D01*
G01X6290327Y1478493D01*
G03X6326141Y1442679I35814J0D01*
G01X6326141Y1442679D01*
G01X6403871Y1442679D01*
G02X6435204Y1426297I-10625J-58479D01*
G01X6459851Y1401650D01*
G01X6459851Y1401650D01*
G03X6494155Y1387441I34305J34305D01*
G01X6494155Y1387441D01*
G01X6773338Y1387441D01*
G01X6848193Y1312586D01*
G01X6849590Y1311096D01*
G01X6847144Y1299890D01*
G01X6847144Y1299890D01*
G01X6846898Y1298662D01*
G01X6846898Y1298662D01*
G01X6845832Y1292798D01*
G01X6845832Y1292798D01*
G01X6845533Y1290858D01*
G01X6845533Y1290858D01*
G01X6844894Y1285779D01*
G01X6844894Y1285779D01*
G01X6844706Y1283869D01*
G01X6844706Y1283869D01*
G01X6844415Y1279801D01*
G01X6844415Y1279801D01*
G01X6844330Y1277958D01*
G01X6844330Y1277958D01*
G01X6844307Y1276778D01*
G03X6844250Y1273948I111954J-3651D01*
G01X6844244Y1273646D01*
G01X6844244Y1273646D01*
G01X6844237Y1272931D01*
G01X6844255Y1271792D01*
G03X6949098Y1161342I112006J1334D01*
G01X6949395Y1161323D01*
G03X6954927Y1161121I6866J111803D01*
G01X6956066Y1161103D01*
G01X6956779Y1161110D01*
G01X6956779Y1161110D01*
G01X6957084Y1161116D01*
G03X6959898Y1161172I-823J112011D01*
G01X6961090Y1161196D01*
G01X6961090Y1161196D01*
G01X6963218Y1161301D01*
G01X6963218Y1161301D01*
G01X6968590Y1161729D01*
G01X6968590Y1161729D01*
G01X6970708Y1161961D01*
G01X6970708Y1161961D01*
G01X6975695Y1162658D01*
G01X6975695Y1162658D01*
G01X6977735Y1163004D01*
G01X6977735Y1163004D01*
G01X6985683Y1164588D01*
G01X6985683Y1164588D01*
G01X6986243Y1164704D01*
G01X6986243Y1164704D01*
G01X6994253Y1166434D01*
G01X6995721Y1165057D01*
G01X7228533Y932245D01*
G01X7228533Y932245D01*
G03X7262838Y918036I34305J34305D01*
G01X7262838Y918036D01*
G01X8391261Y918036D01*
G01X8840676Y468621D01*
G01X8840676Y468621D01*
G37*
G36*
G01X9572133Y342523D02*
G03X9907947Y6709I335814J0D01*
G03X10243761Y342523I0J335814D01*
G03X9907947Y678337I-335814J0D01*
G03X9572133Y342523I0J-335814D01*
G37*
G36*
G01X5372480Y339949D02*
G03X5708294Y4134I335814J0D01*
G03X6044108Y339949I0J335814D01*
G03X5708294Y675763I-335814J0D01*
G03X5372480Y339949I0J-335814D01*
G37*
G36*
G01X9906884Y6206613D02*
G03X10242698Y6542427I0J335814D01*
G03X9906884Y6878241I-335814J0D01*
G03X9571070Y6542427I0J-335814D01*
G03X9906884Y6206613I335814J0D01*
G37*
G36*
G01X5371429Y6541859D02*
G03X5707243Y6206045I335814J0D01*
G03X6043057Y6541859I0J335814D01*
G03X5707243Y6877673I-335814J0D01*
G03X5371429Y6541859I0J-335814D01*
G37*
G36*
G01X7780633Y6114406D02*
G03X8106447Y6440219I0J325813D01*
G03X7780633Y6766033I-325813J0D01*
G03X7460146Y6498892I0J-325813D01*
G01X7460146Y6498892D01*
G03X7452710Y6477043I28377J-21849D01*
G01X7452710Y6477043D01*
G01X7452710Y6450674D01*
G03X7451380Y6441007I34485J-9666D01*
G03X7455178Y6424958I35814J0D01*
G03X7780633Y6114406I325456J15261D01*
G37*
G36*
G01X7456288Y503081D02*
G03X7782102Y177268I325813J0D01*
G03X8107915Y503081I0J325813D01*
G03X7782102Y828894I-325813J0D01*
G03X7456288Y503081I0J-325813D01*
G37*
G36*
G01X8161647Y4733039D02*
G03X8337461Y4557225I175814J0D01*
G03X8513275Y4733039I0J175814D01*
G03X8337461Y4908853I-175814J0D01*
G03X8161647Y4733039I0J-175814D01*
G37*
G36*
G01X8161647Y3022135D02*
G03X8337461Y2846322I175814J0D01*
G03X8513275Y3022135I0J175814D01*
G03X8337461Y3197949I-175814J0D01*
G03X8161647Y3022135I0J-175814D01*
G37*
G36*
G01X7279273Y5412133D02*
G03X7455087Y5587947I0J175814D01*
G03X7279273Y5763761I-175814J0D01*
G03X7103459Y5587947I0J-175814D01*
G03X7279273Y5412133I175814J0D01*
G37*
G36*
G01X7103459Y2166140D02*
G03X7279273Y1990326I175814J0D01*
G03X7455087Y2166140I0J175814D01*
G03X7279273Y2341954I-175814J0D01*
G03X7103459Y2166140I0J-175814D01*
G37*
G36*
G01X7103459Y3877044D02*
G03X7279273Y3701230I175814J0D01*
G03X7455087Y3877044I0J175814D01*
G03X7279273Y4052857I-175814J0D01*
G03X7103459Y3877044I0J-175814D01*
G37*
G36*
G01X8660473Y3803135D02*
G03X8772487Y3915149I0J112014D01*
G03X8660473Y4027163I-112014J0D01*
G03X8560473Y3965618I0J-112014D01*
G03X8460473Y4027163I-100000J-50470D01*
G03X8348459Y3915149I0J-112014D01*
G03X8460473Y3803135I112014J0D01*
G03X8560473Y3864679I0J112014D01*
G03X8660473Y3803135I100000J50470D01*
G37*
G36*
G01X7156261Y2872016D02*
G03X7268275Y2984030I0J112014D01*
G03X7156261Y3096044I-112014J0D01*
G03X7056261Y3034500I0J-112014D01*
G03X6956261Y3096044I-100000J-50470D01*
G03X6844247Y2984030I0J-112014D01*
G03X6956261Y2872016I112014J0D01*
G03X7056261Y2933561I0J112014D01*
G03X7156261Y2872016I100000J50470D01*
G37*
G36*
G01X8348459Y2204245D02*
G03X8460473Y2092231I112014J0D01*
G03X8560473Y2153775I0J112014D01*
G03X8660473Y2092231I100000J50470D01*
G03X8772487Y2204245I0J112014D01*
G03X8660473Y2316259I-112014J0D01*
G03X8560473Y2254715I0J-112014D01*
G03X8460473Y2316259I-100000J-50470D01*
G03X8348459Y2204245I0J-112014D01*
G37*
G36*
G01X8460473Y5514038D02*
G03X8560473Y5575583I0J112014D01*
G03X8660473Y5514038I100000J50470D01*
G03X8772487Y5626052I0J112014D01*
G03X8660473Y5738066I-112014J0D01*
G03X8560473Y5676522I0J-112014D01*
G03X8460473Y5738066I-100000J-50470D01*
G03X8348459Y5626052I0J-112014D01*
G03X8460473Y5514038I112014J0D01*
G37*
G36*
G01X6844247Y4694934D02*
G03X6956261Y4582920I112014J0D01*
G03X7056261Y4644464I0J112014D01*
G03X7156261Y4582920I100000J50470D01*
G03X7268275Y4694934I0J112014D01*
G03X7156261Y4806948I-112014J0D01*
G03X7056261Y4745404I0J-112014D01*
G03X6956261Y4806948I-100000J-50470D01*
G03X6844247Y4694934I0J-112014D01*
G37*
%LPD*%
G54D10*
G01X5807395Y-47367D02*
G01X5710006Y-47691D01*
G03X5707431Y-47367I-2575J-10091D01*
G02X5317846Y342218I0J389585D01*
G02X5707431Y731803I389585J0D01*
G01X5707431Y731803D01*
G01X6107430Y731803D01*
G01X6107430Y731803D01*
G03X6117844Y742217I0J10414D01*
G01X6117844Y742217D01*
G01X6117844Y6142206D01*
G01X6117844Y6142206D01*
G03X6107430Y6152620I-10414J0D01*
G01X6107430Y6152620D01*
G01X5811135Y6152620D01*
G03X5807430Y6153302I-3705J-9733D01*
G03X5803725Y6152620I0J-10414D01*
G01X5707431Y6152620D01*
G01X5707431Y6152620D01*
G02X5317846Y6542206I0J389585D01*
G02X5701465Y6931745I389585J0D01*
G01X5701465Y6931745D01*
G03X5704960Y6931141I3495J9810D01*
G01X5704960Y6931141D01*
G01X5704997Y6931141D01*
G01X5704997Y6931141D01*
G01X5705026Y6931141D01*
G01X5705026Y6931141D01*
G01X5807463Y6931791D01*
G01X6307429Y6931791D01*
G01X6307429Y6931791D01*
G01X9307423Y6931791D01*
G01X9307423Y6931791D01*
G01X9807422Y6931791D01*
G01X9807457Y6931791D01*
G01X9904848Y6932114D01*
G03X9907421Y6931791I2573J10091D01*
G02X10297006Y6542206I0J-389585D01*
G02X9907421Y6152620I-389585J0D01*
G01X9907421Y6152620D01*
G01X9507422Y6152620D01*
G01X9507422Y6152620D01*
G03X9497008Y6142206I0J-10414D01*
G01X9497008Y6142206D01*
G01X9497008Y742217D01*
G01X9497008Y742217D01*
G03X9507422Y731803I10414J0D01*
G01X9507422Y731803D01*
G01X9907421Y731803D01*
G01X9907421Y731803D01*
G02X10297006Y342218I0J-389585D01*
G02X9909946Y-47359I-389585J0D01*
G01X9909946Y-47359D01*
G01X9908712Y-47286D01*
G01X9908704Y-47286D01*
G01X9807418Y-47367D01*
G01X9307423Y-47367D01*
G01X9307423Y-47367D01*
G01X6307429Y-47367D01*
G01X6307429Y-47367D01*
G01X5807430Y-47367D01*
G01X5807395Y-47367D01*
G01X8840676Y468621D02*
G03X8874981Y454412I34305J34305D01*
G01X8874981Y454412D01*
G01X9112637Y454412D01*
G01X9112637Y454412D01*
G03X9146942Y468621I0J48514D01*
G01X9146942Y468621D01*
G01X9175906Y497585D01*
G01X9177117Y497828D01*
G01X9180459Y498204D01*
G01X9184668Y498407D01*
G01X9192547Y498335D01*
G01X9221987Y496173D01*
G01X9221987Y496173D01*
G01X9222332Y496149D01*
G01X9222332Y496149D01*
G01X9223658Y496065D01*
G03X9240537Y495012I16880J134761D01*
G03X9376351Y630826I0J135814D01*
G03X9270204Y763360I-135814J0D01*
G01X9265453Y765744D01*
G01X9260661Y768543D01*
G01X9257937Y770393D01*
G01X9257081Y771058D01*
G01X9257081Y1808693D01*
G01X9257304Y1810979D01*
G01X9265194Y1810979D01*
G01X9265194Y1810979D01*
G03X9301008Y1846793I0J35814D01*
G01X9301008Y1846793D01*
G01X9301008Y1984494D01*
G01X9301008Y1984494D01*
G03X9265194Y2020308I-35814J0D01*
G01X9265194Y2020308D01*
G01X9257304Y2020308D01*
G01X9257081Y2022594D01*
G01X9257081Y2388405D01*
G01X9258410Y2389613D01*
G01X9259941Y2391004D01*
G01X9260032Y2391086D01*
G01X9260032Y2391086D01*
G03X9262049Y2393069I-24080J26510D01*
G01X9262049Y2393069D01*
G03X9280908Y2439390I-47454J46321D01*
G03X9262049Y2485711I-66314J0D01*
G01X9262049Y2485711D01*
G03X9260032Y2487693I-26096J-24528D01*
G01X9260032Y2487693D01*
G01X9259941Y2487775D01*
G01X9258410Y2489166D01*
G01X9257081Y2490374D01*
G01X9257081Y3510493D01*
G01X9257304Y3512779D01*
G01X9265194Y3512779D01*
G01X9265194Y3512779D01*
G03X9301008Y3548593I0J35814D01*
G01X9301008Y3548593D01*
G01X9301008Y3686294D01*
G01X9301008Y3686294D01*
G03X9265194Y3722108I-35814J0D01*
G01X9265194Y3722108D01*
G01X9257304Y3722108D01*
G01X9257081Y3724394D01*
G01X9257081Y4097343D01*
G01X9257165Y4097414D01*
G01X9257758Y4097913D01*
G03X9284099Y4150825I-39973J52912D01*
G03X9258096Y4203480I-66314J0D01*
G01X9257081Y4204326D01*
G01X9257081Y5237693D01*
G01X9257304Y5239979D01*
G01X9265194Y5239979D01*
G01X9265194Y5239979D01*
G03X9301008Y5275793I0J35814D01*
G01X9301008Y5275793D01*
G01X9301008Y5413494D01*
G01X9301008Y5413494D01*
G03X9268945Y5449111I-35814J0D01*
G01X9268681Y5451594D01*
G01X9268681Y6182626D01*
G01X9269366Y6183655D01*
G01X9271463Y6186283D01*
G01X9274296Y6189403D01*
G01X9279918Y6194924D01*
G01X9302264Y6214212D01*
G01X9302264Y6214212D01*
G01X9302525Y6214439D01*
G01X9302525Y6214439D01*
G01X9303523Y6215319D01*
G03X9355981Y6322543I-83357J107224D01*
G03X9220167Y6458357I-135814J0D01*
G03X9101981Y6389457I0J-135814D01*
G01X9101981Y6422543D01*
G01X9101981Y6422543D01*
G03X9066167Y6458357I-35814J0D01*
G01X9066167Y6458357D01*
G01X8866167Y6458357D01*
G01X8866167Y6458357D01*
G03X8830353Y6422543I0J-35814D01*
G01X8830353Y6422543D01*
G01X8830353Y6222543D01*
G01X8830353Y6222543D01*
G03X8866167Y6186729I35814J0D01*
G01X8866167Y6186729D01*
G01X8961142Y6186729D01*
G01X8961365Y6184443D01*
G01X8961365Y5451594D01*
G01X8961142Y5449308D01*
G01X8951940Y5449308D01*
G01X8951940Y5449308D01*
G03X8916126Y5413494I0J-35814D01*
G01X8916126Y5413494D01*
G01X8916126Y5275793D01*
G01X8916126Y5275793D01*
G03X8951940Y5239979I35814J0D01*
G01X8951940Y5239979D01*
G01X8959830Y5239979D01*
G01X8960053Y5237693D01*
G01X8960053Y4192857D01*
G01X8960019Y4191655D01*
G01X8959997Y4191403D01*
G03X8946133Y4150825I52450J-40578D01*
G03X8960000Y4110244I66314J0D01*
G01X8960048Y4109385D01*
G01X8960053Y4109049D01*
G01X8960053Y3724394D01*
G01X8959830Y3722108D01*
G01X8951940Y3722108D01*
G01X8951940Y3722108D01*
G03X8916126Y3686294I0J-35814D01*
G01X8916126Y3686294D01*
G01X8916126Y3548593D01*
G01X8916126Y3548593D01*
G03X8951940Y3512779I35814J0D01*
G01X8951940Y3512779D01*
G01X8959830Y3512779D01*
G01X8960053Y3510493D01*
G01X8960053Y2483140D01*
G01X8959925Y2482779D01*
G01X8959615Y2482064D01*
G01X8959547Y2481932D01*
G03X8944103Y2439390I50870J-42542D01*
G03X8959547Y2396847I66314J0D01*
G01X8959616Y2396715D01*
G01X8959925Y2396000D01*
G01X8960053Y2395639D01*
G01X8960053Y2022594D01*
G01X8959830Y2020308D01*
G01X8951940Y2020308D01*
G01X8951940Y2020308D01*
G03X8916126Y1984494I0J-35814D01*
G01X8916126Y1984494D01*
G01X8916126Y1846793D01*
G01X8916126Y1846793D01*
G03X8951940Y1810979I35814J0D01*
G01X8951940Y1810979D01*
G01X8959830Y1810979D01*
G01X8960053Y1808693D01*
G01X8960053Y768926D01*
G01X8959830Y766640D01*
G01X8918623Y766640D01*
G02X8887220Y783091I10625J58479D01*
G01X8887175Y783136D01*
G01X8534888Y1135423D01*
G01X8534888Y1135423D01*
G03X8500583Y1149632I-34305J-34305D01*
G01X8500583Y1149632D01*
G01X8406714Y1149632D01*
G03X8513275Y1311232I-69253J161600D01*
G03X8337461Y1487046I-175814J0D01*
G03X8161647Y1311232I0J-175814D01*
G03X8268208Y1149632I175814J0D01*
G01X7348364Y1149632D01*
G01X7264329Y1233668D01*
G01X7262932Y1235158D01*
G01X7265378Y1246363D01*
G01X7265378Y1246363D01*
G01X7265624Y1247591D01*
G01X7265624Y1247591D01*
G01X7266690Y1253455D01*
G01X7266690Y1253455D01*
G01X7266989Y1255396D01*
G01X7266989Y1255396D01*
G01X7267627Y1260474D01*
G01X7267627Y1260474D01*
G01X7267816Y1262385D01*
G01X7267816Y1262385D01*
G01X7268107Y1266451D01*
G01X7268107Y1266452D01*
G01X7268192Y1268296D01*
G01X7268192Y1268296D01*
G01X7268215Y1269476D01*
G03X7268272Y1272305I-111954J3651D01*
G01X7268278Y1272607D01*
G01X7268278Y1272607D01*
G01X7268285Y1273322D01*
G01X7268267Y1274461D01*
G03X7157582Y1385133I-112006J-1334D01*
G01X7156456Y1385151D01*
G01X7155743Y1385144D01*
G01X7155743Y1385144D01*
G01X7155457Y1385138D01*
G03X7152604Y1385081I803J-112011D01*
G01X7151432Y1385058D01*
G01X7151432Y1385058D01*
G01X7149304Y1384952D01*
G01X7149304Y1384952D01*
G01X7143932Y1384524D01*
G01X7143932Y1384524D01*
G01X7141814Y1384292D01*
G01X7141814Y1384292D01*
G01X7136827Y1383595D01*
G01X7136827Y1383595D01*
G01X7134786Y1383249D01*
G01X7134786Y1383249D01*
G01X7126838Y1381665D01*
G01X7126838Y1381665D01*
G01X7126279Y1381549D01*
G01X7126279Y1381549D01*
G01X7118269Y1379820D01*
G01X7116800Y1381197D01*
G01X6953903Y1544094D01*
G01X6953903Y1544094D01*
G03X6919599Y1558303I-34305J-34305D01*
G01X6919599Y1558303D01*
G01X6677494Y1558303D01*
G01X6675208Y1558526D01*
G01X6675208Y1616194D01*
G01X6675208Y1616194D01*
G03X6639394Y1652008I-35814J0D01*
G01X6639394Y1652008D01*
G01X6631504Y1652008D01*
G01X6631281Y1654294D01*
G01X6631281Y2694997D01*
G01X6634216Y2698338D01*
G03X6650772Y2742175I-49758J43837D01*
G03X6634215Y2786013I-66314J0D01*
G01X6631281Y2789354D01*
G01X6631281Y3116793D01*
G01X6631504Y3119079D01*
G01X6639394Y3119079D01*
G01X6639394Y3119079D01*
G03X6675208Y3154893I0J35814D01*
G01X6675208Y3154893D01*
G01X6675208Y3292594D01*
G01X6675208Y3292594D01*
G03X6639394Y3328408I-35814J0D01*
G01X6639394Y3328408D01*
G01X6631504Y3328408D01*
G01X6631281Y3330694D01*
G01X6631281Y4414785D01*
G01X6631315Y4416026D01*
G01X6631335Y4416268D01*
G03X6645165Y4456801I-52485J40533D01*
G03X6631334Y4497336I-66314J0D01*
G01X6631286Y4498204D01*
G01X6631281Y4498570D01*
G01X6631281Y4869393D01*
G01X6631504Y4871679D01*
G01X6639394Y4871679D01*
G01X6639394Y4871679D01*
G03X6675208Y4907493I0J35814D01*
G01X6675208Y4907493D01*
G01X6675208Y5045194D01*
G01X6675208Y5045194D01*
G03X6639394Y5081008I-35814J0D01*
G01X6639394Y5081008D01*
G01X6526140Y5081008D01*
G01X6526140Y5081008D01*
G03X6490326Y5045194I0J-35814D01*
G01X6490326Y5045194D01*
G01X6490326Y4907493D01*
G01X6490326Y4907493D01*
G03X6526140Y4871679I35814J0D01*
G01X6526140Y4871679D01*
G01X6534030Y4871679D01*
G01X6534253Y4869393D01*
G01X6534253Y4506014D01*
G01X6533929Y4505706D01*
G01X6533929Y4505706D01*
G01X6532606Y4504381D01*
G01X6532606Y4504381D01*
G01X6531829Y4503561D01*
G03X6529140Y4500692I47021J-46761D01*
G01X6529089Y4500634D01*
G03X6512537Y4456801I49762J-43833D01*
G03X6529005Y4413063I66314J0D01*
G01X6529225Y4412814D01*
G03X6531824Y4410045I49625J43987D01*
G01X6532606Y4409221D01*
G01X6532606Y4409221D01*
G01X6533929Y4407895D01*
G01X6533929Y4407895D01*
G01X6534253Y4407587D01*
G01X6534253Y3330694D01*
G01X6534030Y3328408D01*
G01X6526140Y3328408D01*
G01X6526140Y3328408D01*
G03X6490326Y3292594I0J-35814D01*
G01X6490326Y3292594D01*
G01X6490326Y3154893D01*
G01X6490326Y3154893D01*
G03X6526140Y3119079I35814J0D01*
G01X6526140Y3119079D01*
G01X6534030Y3119079D01*
G01X6534253Y3116793D01*
G01X6534253Y2786017D01*
G01X6534189Y2785843D01*
G01X6533889Y2785166D01*
G01X6533761Y2784923D01*
G03X6518144Y2742175I50697J-42748D01*
G03X6533770Y2699416I66314J0D01*
G01X6534040Y2698859D01*
G01X6534253Y2698333D01*
G01X6534253Y1654294D01*
G01X6534030Y1652008D01*
G01X6526140Y1652008D01*
G01X6526140Y1652008D01*
G03X6490326Y1616194I0J-35814D01*
G01X6490326Y1616194D01*
G01X6490326Y1508437D01*
G02X6475208Y1538463I43361J40651D01*
G01X6475208Y1616194D01*
G01X6475208Y1616194D01*
G03X6439394Y1652008I-35814J0D01*
G01X6439394Y1652008D01*
G01X6431505Y1652008D01*
G01X6431281Y1654294D01*
G01X6431281Y2695356D01*
G01X6433677Y2698000D01*
G01X6434546Y2698962D01*
G01X6434766Y2699211D01*
G03X6451235Y2742949I-49846J43738D01*
G03X6434682Y2786782I-66314J0D01*
G01X6434631Y2786840D01*
G01X6433664Y2787912D01*
G01X6431281Y2790542D01*
G01X6431281Y3116793D01*
G01X6431505Y3119079D01*
G01X6439394Y3119079D01*
G01X6439394Y3119079D01*
G03X6475208Y3154893I0J35814D01*
G01X6475208Y3154893D01*
G01X6475208Y3292594D01*
G01X6475208Y3292594D01*
G03X6439394Y3328408I-35814J0D01*
G01X6439394Y3328408D01*
G01X6431505Y3328408D01*
G01X6431281Y3330694D01*
G01X6431281Y4410234D01*
G01X6431427Y4410780D01*
G01X6431534Y4411091D01*
G03X6446401Y4452934I-51447J41843D01*
G03X6431534Y4494776I-66314J0D01*
G01X6431427Y4495087D01*
G01X6431281Y4495634D01*
G01X6431281Y4869393D01*
G01X6431505Y4871679D01*
G01X6439394Y4871679D01*
G01X6439394Y4871679D01*
G03X6475208Y4907493I0J35814D01*
G01X6475208Y4907493D01*
G01X6475208Y5045194D01*
G01X6475208Y5045194D01*
G03X6439394Y5081008I-35814J0D01*
G01X6439394Y5081008D01*
G01X6326141Y5081008D01*
G01X6326141Y5081008D01*
G03X6290327Y5045194I0J-35814D01*
G01X6290327Y5045194D01*
G01X6290327Y4907493D01*
G01X6290327Y4907493D01*
G03X6326141Y4871679I35814J0D01*
G01X6326141Y4871679D01*
G01X6334030Y4871679D01*
G01X6334253Y4869393D01*
G01X6334253Y4501031D01*
G01X6332300Y4498949D01*
G01X6332300Y4498949D01*
G01X6331823Y4498431D01*
G01X6331823Y4498431D01*
G01X6331190Y4497729D01*
G03X6313773Y4452934I48897J-44796D01*
G03X6332618Y4406627I66314J0D01*
G01X6334253Y4404882D01*
G01X6334253Y3330694D01*
G01X6334030Y3328408D01*
G01X6326141Y3328408D01*
G01X6326141Y3328408D01*
G03X6290327Y3292594I0J-35814D01*
G01X6290327Y3292594D01*
G01X6290327Y3154893D01*
G01X6290327Y3154893D01*
G03X6326141Y3119079I35814J0D01*
G01X6326141Y3119079D01*
G01X6334030Y3119079D01*
G01X6334253Y3116793D01*
G01X6334253Y2786477D01*
G01X6334026Y2785806D01*
G01X6333744Y2785121D01*
G03X6318607Y2742949I51177J-42172D01*
G03X6333744Y2700777I66314J0D01*
G01X6334026Y2700092D01*
G01X6334253Y2699421D01*
G01X6334253Y1654294D01*
G01X6334030Y1652008D01*
G01X6326141Y1652008D01*
G01X6326141Y1652008D01*
G03X6290327Y1616194I0J-35814D01*
G01X6290327Y1616194D01*
G01X6290327Y1478493D01*
G01X6290327Y1478493D01*
G03X6326141Y1442679I35814J0D01*
G01X6326141Y1442679D01*
G01X6403871Y1442679D01*
G02X6435204Y1426297I-10625J-58479D01*
G01X6459851Y1401650D01*
G01X6459851Y1401650D01*
G03X6494155Y1387441I34305J34305D01*
G01X6494155Y1387441D01*
G01X6773338Y1387441D01*
G01X6848193Y1312586D01*
G01X6849590Y1311096D01*
G01X6847144Y1299890D01*
G01X6847144Y1299890D01*
G01X6846898Y1298662D01*
G01X6846898Y1298662D01*
G01X6845832Y1292798D01*
G01X6845832Y1292798D01*
G01X6845533Y1290858D01*
G01X6845533Y1290858D01*
G01X6844894Y1285779D01*
G01X6844894Y1285779D01*
G01X6844706Y1283869D01*
G01X6844706Y1283869D01*
G01X6844415Y1279801D01*
G01X6844415Y1279801D01*
G01X6844330Y1277958D01*
G01X6844330Y1277958D01*
G01X6844307Y1276778D01*
G03X6844250Y1273948I111954J-3651D01*
G01X6844244Y1273646D01*
G01X6844244Y1273646D01*
G01X6844237Y1272931D01*
G01X6844255Y1271792D01*
G03X6949098Y1161342I112006J1334D01*
G01X6949395Y1161323D01*
G03X6954927Y1161121I6866J111803D01*
G01X6956066Y1161103D01*
G01X6956779Y1161110D01*
G01X6956779Y1161110D01*
G01X6957084Y1161116D01*
G03X6959898Y1161172I-823J112011D01*
G01X6961090Y1161196D01*
G01X6961090Y1161196D01*
G01X6963218Y1161301D01*
G01X6963218Y1161301D01*
G01X6968590Y1161729D01*
G01X6968590Y1161729D01*
G01X6970708Y1161961D01*
G01X6970708Y1161961D01*
G01X6975695Y1162658D01*
G01X6975695Y1162658D01*
G01X6977735Y1163004D01*
G01X6977735Y1163004D01*
G01X6985683Y1164588D01*
G01X6985683Y1164588D01*
G01X6986243Y1164704D01*
G01X6986243Y1164704D01*
G01X6994253Y1166434D01*
G01X6995721Y1165057D01*
G01X7228533Y932245D01*
G01X7228533Y932245D01*
G03X7262838Y918036I34305J34305D01*
G01X7262838Y918036D01*
G01X8391261Y918036D01*
G01X8840676Y468621D01*
G01X8840676Y468621D01*
G01X9572133Y342523D02*
G03X9907947Y6709I335814J0D01*
G03X10243761Y342523I0J335814D01*
G03X9907947Y678337I-335814J0D01*
G03X9572133Y342523I0J-335814D01*
G01X5372480Y339949D02*
G03X5708294Y4134I335814J0D01*
G03X6044108Y339949I0J335814D01*
G03X5708294Y675763I-335814J0D01*
G03X5372480Y339949I0J-335814D01*
G01X9906884Y6206613D02*
G03X10242698Y6542427I0J335814D01*
G03X9906884Y6878241I-335814J0D01*
G03X9571070Y6542427I0J-335814D01*
G03X9906884Y6206613I335814J0D01*
G01X5371429Y6541859D02*
G03X5707243Y6206045I335814J0D01*
G03X6043057Y6541859I0J335814D01*
G03X5707243Y6877673I-335814J0D01*
G03X5371429Y6541859I0J-335814D01*
G01X7780633Y6114406D02*
G03X8106447Y6440219I0J325813D01*
G03X7780633Y6766033I-325813J0D01*
G03X7460146Y6498892I0J-325813D01*
G01X7460146Y6498892D01*
G03X7452710Y6477043I28377J-21849D01*
G01X7452710Y6477043D01*
G01X7452710Y6450674D01*
G03X7451380Y6441007I34485J-9666D01*
G03X7455178Y6424958I35814J0D01*
G03X7780633Y6114406I325456J15261D01*
G01X7456288Y503081D02*
G03X7782102Y177268I325813J0D01*
G03X8107915Y503081I0J325813D01*
G03X7782102Y828894I-325813J0D01*
G03X7456288Y503081I0J-325813D01*
G01X8161647Y4733039D02*
G03X8337461Y4557225I175814J0D01*
G03X8513275Y4733039I0J175814D01*
G03X8337461Y4908853I-175814J0D01*
G03X8161647Y4733039I0J-175814D01*
G01X8161647Y3022135D02*
G03X8337461Y2846322I175814J0D01*
G03X8513275Y3022135I0J175814D01*
G03X8337461Y3197949I-175814J0D01*
G03X8161647Y3022135I0J-175814D01*
G01X7279273Y5412133D02*
G03X7455087Y5587947I0J175814D01*
G03X7279273Y5763761I-175814J0D01*
G03X7103459Y5587947I0J-175814D01*
G03X7279273Y5412133I175814J0D01*
G01X7103459Y2166140D02*
G03X7279273Y1990326I175814J0D01*
G03X7455087Y2166140I0J175814D01*
G03X7279273Y2341954I-175814J0D01*
G03X7103459Y2166140I0J-175814D01*
G01X7103459Y3877044D02*
G03X7279273Y3701230I175814J0D01*
G03X7455087Y3877044I0J175814D01*
G03X7279273Y4052857I-175814J0D01*
G03X7103459Y3877044I0J-175814D01*
G01X8660473Y3803135D02*
G03X8772487Y3915149I0J112014D01*
G03X8660473Y4027163I-112014J0D01*
G03X8560473Y3965618I0J-112014D01*
G03X8460473Y4027163I-100000J-50470D01*
G03X8348459Y3915149I0J-112014D01*
G03X8460473Y3803135I112014J0D01*
G03X8560473Y3864679I0J112014D01*
G03X8660473Y3803135I100000J50470D01*
G01X7156261Y2872016D02*
G03X7268275Y2984030I0J112014D01*
G03X7156261Y3096044I-112014J0D01*
G03X7056261Y3034500I0J-112014D01*
G03X6956261Y3096044I-100000J-50470D01*
G03X6844247Y2984030I0J-112014D01*
G03X6956261Y2872016I112014J0D01*
G03X7056261Y2933561I0J112014D01*
G03X7156261Y2872016I100000J50470D01*
G01X8348459Y2204245D02*
G03X8460473Y2092231I112014J0D01*
G03X8560473Y2153775I0J112014D01*
G03X8660473Y2092231I100000J50470D01*
G03X8772487Y2204245I0J112014D01*
G03X8660473Y2316259I-112014J0D01*
G03X8560473Y2254715I0J-112014D01*
G03X8460473Y2316259I-100000J-50470D01*
G03X8348459Y2204245I0J-112014D01*
G01X8460473Y5514038D02*
G03X8560473Y5575583I0J112014D01*
G03X8660473Y5514038I100000J50470D01*
G03X8772487Y5626052I0J112014D01*
G03X8660473Y5738066I-112014J0D01*
G03X8560473Y5676522I0J-112014D01*
G03X8460473Y5738066I-100000J-50470D01*
G03X8348459Y5626052I0J-112014D01*
G03X8460473Y5514038I112014J0D01*
G01X6844247Y4694934D02*
G03X6956261Y4582920I112014J0D01*
G03X7056261Y4644464I0J112014D01*
G03X7156261Y4582920I100000J50470D01*
G03X7268275Y4694934I0J112014D01*
G03X7156261Y4806948I-112014J0D01*
G03X7056261Y4745404I0J-112014D01*
G03X6956261Y4806948I-100000J-50470D01*
G03X6844247Y4694934I0J-112014D01*
G04 Copper End*

G04 TearDrop Start*
G36*
G01X8997179Y6184443D02*
G01X9022579Y6184443D01*
G02X9041629Y6222543I47625J0D01*
G01X8978129Y6222543D01*
G02X8997179Y6184443I-28575J-38100D01*
G37*
G36*
G01X9207467Y6186400D02*
G01X9232867Y6186400D01*
G01X9233002Y6188622D01*
G01X9233396Y6190872D01*
G01X9234035Y6193147D01*
G01X9234905Y6195444D01*
G01X9235992Y6197759D01*
G01X9237282Y6200090D01*
G01X9240411Y6204787D01*
G01X9244179Y6209512D01*
G01X9248472Y6214239D01*
G01X9255646Y6221283D01*
G01X9278862Y6241323D01*
G01X9290029Y6251152D01*
G01X9293618Y6254712D01*
G01X9295167Y6256399D01*
G01X9145167Y6256399D01*
G01X9148434Y6252962D01*
G01X9156700Y6245399D01*
G01X9182158Y6223607D01*
G01X9189554Y6216597D01*
G01X9194067Y6211877D01*
G01X9198111Y6207148D01*
G01X9201575Y6202434D01*
G01X9203052Y6200090D01*
G01X9204342Y6197759D01*
G01X9205429Y6195444D01*
G01X9206299Y6193147D01*
G01X9206938Y6190872D01*
G01X9207333Y6188622D01*
G01X9207467Y6186400D01*
G37*
G36*
G01X8995867Y5237693D02*
G01X9021267Y5237693D01*
G02X9040317Y5275793I47625J0D01*
G01X8976817Y5275793D01*
G02X8995867Y5237693I-28575J-38100D01*
G37*
G36*
G01X9022579Y5451594D02*
G01X8997179Y5451594D01*
G02X8978129Y5413494I-47625J0D01*
G01X9041629Y5413494D01*
G02X9022579Y5451594I28575J38100D01*
G37*
G36*
G01X9195867Y5237693D02*
G01X9221267Y5237693D01*
G02X9240317Y5275793I47625J0D01*
G01X9176817Y5275793D01*
G02X9195867Y5237693I-28575J-38100D01*
G37*
G36*
G01X9232867Y5451594D02*
G01X9207467Y5451594D01*
G02X9188417Y5413494I-47625J0D01*
G01X9251917Y5413494D01*
G02X9232867Y5451594I28575J38100D01*
G37*
G36*
G01X8995867Y3510493D02*
G01X9021267Y3510493D01*
G02X9040317Y3548593I47625J0D01*
G01X8976817Y3548593D01*
G02X8995867Y3510493I-28575J-38100D01*
G37*
G36*
G01X9021267Y3724394D02*
G01X8995867Y3724394D01*
G02X8976817Y3686294I-47625J0D01*
G01X9040317Y3686294D01*
G02X9021267Y3724394I28575J38100D01*
G37*
G36*
G01X9221267Y3724394D02*
G01X9195867Y3724394D01*
G02X9176817Y3686294I-47625J0D01*
G01X9240317Y3686294D01*
G02X9221267Y3724394I28575J38100D01*
G37*
G36*
G01X9195867Y3510493D02*
G01X9221267Y3510493D01*
G02X9240317Y3548593I47625J0D01*
G01X9176817Y3548593D01*
G02X9195867Y3510493I-28575J-38100D01*
G37*
G36*
G01X9021267Y2022594D02*
G01X8995867Y2022594D01*
G02X8976817Y1984494I-47625J0D01*
G01X9040317Y1984494D01*
G02X9021267Y2022594I28575J38100D01*
G37*
G36*
G01X8995867Y1808693D02*
G01X9021267Y1808693D01*
G02X9040317Y1846793I47625J0D01*
G01X8976817Y1846793D01*
G02X8995867Y1808693I-28575J-38100D01*
G37*
G36*
G01X9195867Y1808693D02*
G01X9221267Y1808693D01*
G02X9240317Y1846793I47625J0D01*
G01X9176817Y1846793D01*
G02X9195867Y1808693I-28575J-38100D01*
G37*
G36*
G01X9221267Y2022594D02*
G01X9195867Y2022594D01*
G02X9176817Y1984494I-47625J0D01*
G01X9240317Y1984494D01*
G02X9221267Y2022594I28575J38100D01*
G37*
G36*
G01X6595467Y1654294D02*
G01X6570067Y1654294D01*
G02X6551017Y1616194I-47625J0D01*
G01X6614517Y1616194D01*
G02X6595467Y1654294I28575J38100D01*
G37*
G36*
G01X6677494Y1497089D02*
G01X6677494Y1522489D01*
G02X6639394Y1541539I0J47625D01*
G01X6639394Y1478535D01*
G02X6677494Y1497089I38100J-29842D01*
G37*
G36*
G01X6395467Y1654294D02*
G01X6370067Y1654294D01*
G02X6351017Y1616194I-47625J0D01*
G01X6414517Y1616194D01*
G02X6395467Y1654294I28575J38100D01*
G37*
G36*
G01X6460598Y1451552D02*
G01X6466335Y1481736D01*
G02X6439394Y1535617I67352J67352D01*
G01X6406716Y1478493D01*
G02X6460598Y1451552I-13470J-94293D01*
G37*
G36*
G01X6595467Y3330694D02*
G01X6570067Y3330694D01*
G02X6551017Y3292594I-47625J0D01*
G01X6614517Y3292594D01*
G02X6595467Y3330694I28575J38100D01*
G37*
G36*
G01X6570067Y3116793D02*
G01X6595467Y3116793D01*
G02X6614517Y3154893I47625J0D01*
G01X6551017Y3154893D01*
G02X6570067Y3116793I-28575J-38100D01*
G37*
G36*
G01X6395467Y3330694D02*
G01X6370067Y3330694D01*
G02X6351017Y3292594I-47625J0D01*
G01X6414517Y3292594D01*
G02X6395467Y3330694I28575J38100D01*
G37*
G36*
G01X6370067Y3116793D02*
G01X6395467Y3116793D01*
G02X6414517Y3154893I47625J0D01*
G01X6351017Y3154893D01*
G02X6370067Y3116793I-28575J-38100D01*
G37*
G36*
G01X6570067Y4869393D02*
G01X6595467Y4869393D01*
G02X6614517Y4907493I47625J0D01*
G01X6551017Y4907493D01*
G02X6570067Y4869393I-28575J-38100D01*
G37*
G36*
G01X6370067Y4869393D02*
G01X6395467Y4869393D01*
G02X6414517Y4907493I47625J0D01*
G01X6351017Y4907493D01*
G02X6370067Y4869393I-28575J-38100D01*
G37*
G36*
G01X8861896Y757766D02*
G01X8859597Y724145D01*
G02X8886537Y670263I-67352J-67352D01*
G01X8915777Y730826D01*
G02X8861896Y757766I13470J94293D01*
G37*
G36*
G01X9021267Y768926D02*
G01X8995867Y768926D01*
G02X8976817Y730826I-47625J0D01*
G01X9040317Y730826D01*
G02X9021267Y768926I28575J38100D01*
G37*
G36*
G01X9135289Y543538D02*
G01X9153250Y525578D01*
G01X9154916Y527054D01*
G01X9156786Y528366D01*
G01X9158847Y529523D01*
G01X9161086Y530532D01*
G01X9163492Y531400D01*
G01X9166052Y532137D01*
G01X9171586Y533245D01*
G01X9177592Y533921D01*
G01X9183970Y534229D01*
G01X9194024Y534137D01*
G01X9224609Y531891D01*
G01X9239457Y530945D01*
G01X9244511Y530924D01*
G01X9246800Y531022D01*
G01X9140734Y637088D01*
G01X9140613Y632347D01*
G01X9141110Y621155D01*
G01X9143702Y587744D01*
G01X9143975Y577557D01*
G01X9143829Y571029D01*
G01X9143345Y564825D01*
G01X9142461Y559043D01*
G01X9141848Y556340D01*
G01X9141112Y553780D01*
G01X9140243Y551374D01*
G01X9139234Y549135D01*
G01X9138078Y547074D01*
G01X9136765Y545205D01*
G01X9135289Y543538D01*
G37*
G36*
G01X9221267Y766969D02*
G01X9195867Y766969D01*
G01X9195693Y762594D01*
G01X9195186Y758084D01*
G01X9194367Y753469D01*
G01X9193261Y748778D01*
G01X9191107Y741659D01*
G01X9188429Y734531D01*
G01X9185301Y727488D01*
G01X9181798Y720629D01*
G01X9177995Y714051D01*
G01X9173968Y707850D01*
G01X9169790Y702124D01*
G01X9165537Y696969D01*
G01X9315537Y696969D01*
G01X9313193Y699420D01*
G01X9310595Y701768D01*
G01X9307763Y704021D01*
G01X9303126Y707242D01*
G01X9298086Y710299D01*
G01X9288988Y715108D01*
G01X9259564Y728629D01*
G01X9248372Y734245D01*
G01X9241544Y738234D01*
G01X9236878Y741404D01*
G01X9234024Y743618D01*
G01X9231401Y745922D01*
G01X9229031Y748326D01*
G01X9226934Y750838D01*
G01X9225996Y752137D01*
G01X9225134Y753467D01*
G01X9224351Y754828D01*
G01X9223650Y756221D01*
G01X9223034Y757647D01*
G01X9222505Y759108D01*
G01X9222067Y760605D01*
G01X9221721Y762138D01*
G01X9221470Y763709D01*
G01X9221318Y765320D01*
G01X9221267Y766969D01*
G37*
G36*
G01X6370067Y4411410D02*
G01X6395467Y4411410D01*
G01X6395505Y4412656D01*
G01X6395795Y4415353D01*
G01X6396349Y4418238D01*
G01X6397143Y4421206D01*
G01X6398148Y4424150D01*
G01X6399341Y4426967D01*
G01X6400692Y4429551D01*
G01X6401420Y4430722D01*
G01X6402177Y4431797D01*
G01X6402962Y4432760D01*
G01X6357212Y4432760D01*
G01X6363042Y4426536D01*
G01X6365110Y4424188D01*
G01X6366050Y4422996D01*
G01X6366915Y4421775D01*
G01X6367695Y4420514D01*
G01X6368380Y4419200D01*
G01X6368962Y4417820D01*
G01X6369432Y4416364D01*
G01X6369778Y4414818D01*
G01X6369993Y4413171D01*
G01X6370067Y4411410D01*
G37*
G36*
G01X6395467Y4494458D02*
G01X6370067Y4494458D01*
G01X6369993Y4492697D01*
G01X6369778Y4491049D01*
G01X6369432Y4489503D01*
G01X6368962Y4488047D01*
G01X6368380Y4486668D01*
G01X6367695Y4485354D01*
G01X6366915Y4484092D01*
G01X6366050Y4482872D01*
G01X6364104Y4480504D01*
G01X6358416Y4474442D01*
G01X6357212Y4473108D01*
G01X6402962Y4473108D01*
G01X6402177Y4474071D01*
G01X6401420Y4475145D01*
G01X6400692Y4476317D01*
G01X6399341Y4478901D01*
G01X6398148Y4481717D01*
G01X6397143Y4484662D01*
G01X6396349Y4487629D01*
G01X6395795Y4490514D01*
G01X6395505Y4493212D01*
G01X6395467Y4494458D01*
G37*
G36*
G01X6570067Y4415277D02*
G01X6595467Y4415277D01*
G01X6595542Y4418021D01*
G01X6595782Y4420868D01*
G01X6596204Y4423755D01*
G01X6596829Y4426620D01*
G01X6597674Y4429402D01*
G01X6598185Y4430742D01*
G01X6598759Y4432038D01*
G01X6599398Y4433282D01*
G01X6600103Y4434467D01*
G01X6600879Y4435584D01*
G01X6601726Y4436627D01*
G01X6555975Y4436627D01*
G01X6558604Y4433853D01*
G01X6563530Y4429169D01*
G01X6565663Y4426951D01*
G01X6566611Y4425804D01*
G01X6567466Y4424607D01*
G01X6568218Y4423340D01*
G01X6568856Y4421983D01*
G01X6569370Y4420518D01*
G01X6569750Y4418925D01*
G01X6569986Y4417184D01*
G01X6570067Y4415277D01*
G37*
G36*
G01X6595467Y4498325D02*
G01X6570067Y4498325D01*
G01X6569986Y4496417D01*
G01X6569750Y4494677D01*
G01X6569370Y4493083D01*
G01X6568856Y4491618D01*
G01X6568218Y4490262D01*
G01X6567466Y4488995D01*
G01X6566611Y4487798D01*
G01X6565663Y4486651D01*
G01X6563530Y4484432D01*
G01X6558604Y4479749D01*
G01X6555975Y4476975D01*
G01X6601726Y4476975D01*
G01X6600879Y4478017D01*
G01X6600103Y4479134D01*
G01X6599398Y4480319D01*
G01X6598759Y4481563D01*
G01X6598185Y4482859D01*
G01X6597222Y4485576D01*
G01X6596490Y4488408D01*
G01X6595969Y4491292D01*
G01X6595641Y4494166D01*
G01X6595485Y4496969D01*
G01X6595467Y4498325D01*
G37*
G36*
G01X6370067Y2701425D02*
G01X6395467Y2701425D01*
G01X6395538Y2703124D01*
G01X6395744Y2704731D01*
G01X6396077Y2706257D01*
G01X6396527Y2707710D01*
G01X6397085Y2709098D01*
G01X6397743Y2710432D01*
G01X6398491Y2711721D01*
G01X6400221Y2714199D01*
G01X6402205Y2716603D01*
G01X6407796Y2722775D01*
G01X6362046Y2722775D01*
G01X6363554Y2720789D01*
G01X6365009Y2718362D01*
G01X6366365Y2715616D01*
G01X6367576Y2712674D01*
G01X6368598Y2709661D01*
G01X6369384Y2706699D01*
G01X6369889Y2703913D01*
G01X6370067Y2701425D01*
G37*
G36*
G01X6395467Y2784473D02*
G01X6370067Y2784473D01*
G01X6369889Y2781985D01*
G01X6369384Y2779198D01*
G01X6368598Y2776237D01*
G01X6367576Y2773223D01*
G01X6366365Y2770282D01*
G01X6365009Y2767535D01*
G01X6363554Y2765108D01*
G01X6362046Y2763122D01*
G01X6407796Y2763122D01*
G01X6402205Y2769294D01*
G01X6400221Y2771699D01*
G01X6398491Y2774176D01*
G01X6397743Y2775465D01*
G01X6397085Y2776799D01*
G01X6396527Y2778188D01*
G01X6396077Y2779641D01*
G01X6395744Y2781166D01*
G01X6395538Y2782774D01*
G01X6395467Y2784473D01*
G37*
G36*
G01X6570067Y2700651D02*
G01X6595467Y2700651D01*
G01X6595535Y2702295D01*
G01X6595733Y2703868D01*
G01X6596053Y2705376D01*
G01X6596487Y2706825D01*
G01X6597024Y2708223D01*
G01X6597657Y2709575D01*
G01X6598377Y2710887D01*
G01X6600043Y2713421D01*
G01X6601952Y2715875D01*
G01X6607333Y2722001D01*
G01X6561583Y2722001D01*
G01X6562377Y2721040D01*
G01X6563941Y2718795D01*
G01X6565430Y2716210D01*
G01X6566795Y2713392D01*
G01X6567986Y2710445D01*
G01X6568954Y2707476D01*
G01X6569647Y2704591D01*
G01X6569876Y2703213D01*
G01X6570018Y2701895D01*
G01X6570067Y2700651D01*
G37*
G36*
G01X6595467Y2783699D02*
G01X6570067Y2783699D01*
G01X6570018Y2782455D01*
G01X6569876Y2781138D01*
G01X6569338Y2778334D01*
G01X6568501Y2775394D01*
G01X6567416Y2772423D01*
G01X6566131Y2769527D01*
G01X6564698Y2766813D01*
G01X6563165Y2764385D01*
G01X6562377Y2763311D01*
G01X6561583Y2762349D01*
G01X6607333Y2762349D01*
G01X6601952Y2768475D01*
G01X6600043Y2770930D01*
G01X6598377Y2773463D01*
G01X6597657Y2774776D01*
G01X6597024Y2776128D01*
G01X6596487Y2777525D01*
G01X6596053Y2778975D01*
G01X6595733Y2780482D01*
G01X6595535Y2782055D01*
G01X6595467Y2783699D01*
G37*
G36*
G01X8995867Y2397866D02*
G01X9021267Y2397866D01*
G01X9021336Y2399529D01*
G01X9021537Y2401113D01*
G01X9021862Y2402627D01*
G01X9022301Y2404078D01*
G01X9022845Y2405472D01*
G01X9023487Y2406818D01*
G01X9024216Y2408122D01*
G01X9025904Y2410637D01*
G01X9027839Y2413074D01*
G01X9033292Y2419216D01*
G01X8987542Y2419216D01*
G01X8988321Y2418267D01*
G01X8989095Y2417201D01*
G01X8990599Y2414773D01*
G01X8992005Y2412045D01*
G01X8993265Y2409131D01*
G01X8994331Y2406142D01*
G01X8995152Y2403193D01*
G01X8995680Y2400396D01*
G01X8995819Y2399091D01*
G01X8995867Y2397866D01*
G37*
G36*
G01X9021267Y2480914D02*
G01X8995867Y2480914D01*
G01X8995680Y2478383D01*
G01X8995152Y2475586D01*
G01X8994331Y2472637D01*
G01X8993265Y2469649D01*
G01X8992005Y2466734D01*
G01X8990599Y2464006D01*
G01X8989095Y2461578D01*
G01X8987542Y2459564D01*
G01X9033292Y2459564D01*
G01X9027839Y2465705D01*
G01X9025904Y2468143D01*
G01X9024216Y2470657D01*
G01X9023487Y2471961D01*
G01X9022845Y2473307D01*
G01X9022301Y2474702D01*
G01X9021862Y2476152D01*
G01X9021537Y2477666D01*
G01X9021336Y2479251D01*
G01X9021267Y2480914D01*
G37*
G36*
G01X9195867Y2397866D02*
G01X9221267Y2397866D01*
G01X9221360Y2400023D01*
G01X9221631Y2401923D01*
G01X9222068Y2403597D01*
G01X9222659Y2405077D01*
G01X9223393Y2406394D01*
G01X9224257Y2407581D01*
G01X9225240Y2408669D01*
G01X9226330Y2409689D01*
G01X9230121Y2412660D01*
G01X9232966Y2414884D01*
G01X9235952Y2417597D01*
G01X9237469Y2419216D01*
G01X9191719Y2419216D01*
G01X9192673Y2418039D01*
G01X9193478Y2416847D01*
G01X9194146Y2415641D01*
G01X9194690Y2414417D01*
G01X9195121Y2413174D01*
G01X9195451Y2411912D01*
G01X9195693Y2410628D01*
G01X9195857Y2409321D01*
G01X9196006Y2406633D01*
G01X9195881Y2399408D01*
G01X9195867Y2397866D01*
G37*
G36*
G01X9221267Y2480914D02*
G01X9195867Y2480914D01*
G01X9196014Y2473531D01*
G01X9195958Y2470789D01*
G01X9195857Y2469458D01*
G01X9195693Y2468151D01*
G01X9195451Y2466868D01*
G01X9195121Y2465605D01*
G01X9194690Y2464363D01*
G01X9194146Y2463139D01*
G01X9193478Y2461932D01*
G01X9192673Y2460741D01*
G01X9191719Y2459564D01*
G01X9237469Y2459564D01*
G01X9235952Y2461183D01*
G01X9232966Y2463895D01*
G01X9227515Y2468106D01*
G01X9226330Y2469090D01*
G01X9225240Y2470110D01*
G01X9224257Y2471198D01*
G01X9223393Y2472385D01*
G01X9222659Y2473702D01*
G01X9222068Y2475182D01*
G01X9221631Y2476856D01*
G01X9221360Y2478756D01*
G01X9221267Y2480914D01*
G37*
G36*
G01X8995867Y4109301D02*
G01X9021267Y4109301D01*
G01X9021348Y4111204D01*
G01X9021583Y4112942D01*
G01X9021962Y4114534D01*
G01X9022475Y4115998D01*
G01X9023111Y4117355D01*
G01X9023861Y4118624D01*
G01X9024714Y4119823D01*
G01X9025659Y4120972D01*
G01X9027787Y4123195D01*
G01X9032701Y4127882D01*
G01X9035322Y4130651D01*
G01X8989572Y4130651D01*
G01X8990417Y4129611D01*
G01X8991192Y4128495D01*
G01X8991898Y4127311D01*
G01X8992539Y4126066D01*
G01X8993115Y4124769D01*
G01X8994084Y4122049D01*
G01X8994825Y4119214D01*
G01X8995354Y4116328D01*
G01X8995689Y4113453D01*
G01X8995848Y4110653D01*
G01X8995867Y4109301D01*
G37*
G36*
G01X9021267Y4192349D02*
G01X8995867Y4192349D01*
G01X8995789Y4189610D01*
G01X8995545Y4186765D01*
G01X8995115Y4183876D01*
G01X8994482Y4181008D01*
G01X8993629Y4178222D01*
G01X8993115Y4176881D01*
G01X8992539Y4175584D01*
G01X8991898Y4174339D01*
G01X8991192Y4173155D01*
G01X8990417Y4172039D01*
G01X8989572Y4170999D01*
G01X9035322Y4170999D01*
G01X9032701Y4173768D01*
G01X9027787Y4178454D01*
G01X9025659Y4180678D01*
G01X9024714Y4181827D01*
G01X9023861Y4183025D01*
G01X9023111Y4184294D01*
G01X9022475Y4185651D01*
G01X9021962Y4187116D01*
G01X9021583Y4188708D01*
G01X9021348Y4190446D01*
G01X9021267Y4192349D01*
G37*
G36*
G01X9195867Y4109301D02*
G01X9221267Y4109301D01*
G01X9221431Y4110688D01*
G01X9221901Y4112097D01*
G01X9222641Y4113522D01*
G01X9223615Y4114956D01*
G01X9224788Y4116393D01*
G01X9227589Y4119253D01*
G01X9234013Y4124740D01*
G01X9238434Y4128456D01*
G01X9239643Y4129586D01*
G01X9240659Y4130651D01*
G01X9194909Y4130651D01*
G01X9196025Y4129270D01*
G01X9196875Y4127967D01*
G01X9197486Y4126727D01*
G01X9197886Y4125534D01*
G01X9198101Y4124372D01*
G01X9198157Y4123228D01*
G01X9198082Y4122084D01*
G01X9197901Y4120926D01*
G01X9196995Y4117212D01*
G01X9196353Y4114382D01*
G01X9196100Y4112815D01*
G01X9195930Y4111127D01*
G01X9195867Y4109301D01*
G37*
G36*
G01X9221267Y4192349D02*
G01X9195867Y4192349D01*
G01X9195930Y4190523D01*
G01X9196100Y4188834D01*
G01X9196660Y4185807D01*
G01X9197642Y4181912D01*
G01X9197901Y4180724D01*
G01X9198082Y4179566D01*
G01X9198157Y4178422D01*
G01X9198101Y4177277D01*
G01X9197886Y4176116D01*
G01X9197486Y4174923D01*
G01X9196875Y4173682D01*
G01X9196025Y4172380D01*
G01X9194909Y4170999D01*
G01X9240659Y4170999D01*
G01X9239643Y4172064D01*
G01X9237069Y4174382D01*
G01X9229145Y4180987D01*
G01X9226125Y4183822D01*
G01X9224788Y4185256D01*
G01X9223615Y4186694D01*
G01X9222641Y4188128D01*
G01X9221901Y4189552D01*
G01X9221431Y4190961D01*
G01X9221267Y4192349D01*
G37*
G36*
G01X9195867Y4109301D02*
G01X9221267Y4109301D01*
G01X9221431Y4110688D01*
G01X9221901Y4112097D01*
G01X9222641Y4113522D01*
G01X9223615Y4114956D01*
G01X9224788Y4116393D01*
G01X9227589Y4119253D01*
G01X9234013Y4124740D01*
G01X9238434Y4128456D01*
G01X9239643Y4129586D01*
G01X9240659Y4130651D01*
G01X9194909Y4130651D01*
G01X9196025Y4129270D01*
G01X9196875Y4127967D01*
G01X9197486Y4126727D01*
G01X9197886Y4125534D01*
G01X9198101Y4124372D01*
G01X9198157Y4123228D01*
G01X9198082Y4122084D01*
G01X9197901Y4120926D01*
G01X9196995Y4117212D01*
G01X9196353Y4114382D01*
G01X9196100Y4112815D01*
G01X9195930Y4111127D01*
G01X9195867Y4109301D01*
G37*
G36*
G01X9221267Y4192349D02*
G01X9195867Y4192349D01*
G01X9195930Y4190523D01*
G01X9196100Y4188834D01*
G01X9196660Y4185807D01*
G01X9197642Y4181912D01*
G01X9197901Y4180724D01*
G01X9198082Y4179566D01*
G01X9198157Y4178422D01*
G01X9198101Y4177277D01*
G01X9197886Y4176116D01*
G01X9197486Y4174923D01*
G01X9196875Y4173682D01*
G01X9196025Y4172380D01*
G01X9194909Y4170999D01*
G01X9240659Y4170999D01*
G01X9239643Y4172064D01*
G01X9237069Y4174382D01*
G01X9229145Y4180987D01*
G01X9226125Y4183822D01*
G01X9224788Y4185256D01*
G01X9223615Y4186694D01*
G01X9222641Y4188128D01*
G01X9221901Y4189552D01*
G01X9221431Y4190961D01*
G01X9221267Y4192349D01*
G37*
G36*
G01X8995867Y4109301D02*
G01X9021267Y4109301D01*
G01X9021348Y4111204D01*
G01X9021583Y4112942D01*
G01X9021962Y4114534D01*
G01X9022475Y4115998D01*
G01X9023111Y4117355D01*
G01X9023861Y4118624D01*
G01X9024714Y4119823D01*
G01X9025659Y4120972D01*
G01X9027787Y4123195D01*
G01X9032701Y4127882D01*
G01X9035322Y4130651D01*
G01X8989572Y4130651D01*
G01X8990417Y4129611D01*
G01X8991192Y4128495D01*
G01X8991898Y4127311D01*
G01X8992539Y4126066D01*
G01X8993115Y4124769D01*
G01X8994084Y4122049D01*
G01X8994825Y4119214D01*
G01X8995354Y4116328D01*
G01X8995689Y4113453D01*
G01X8995848Y4110653D01*
G01X8995867Y4109301D01*
G37*
G36*
G01X9021267Y4192349D02*
G01X8995867Y4192349D01*
G01X8995789Y4189610D01*
G01X8995545Y4186765D01*
G01X8995115Y4183876D01*
G01X8994482Y4181008D01*
G01X8993629Y4178222D01*
G01X8993115Y4176881D01*
G01X8992539Y4175584D01*
G01X8991898Y4174339D01*
G01X8991192Y4173155D01*
G01X8990417Y4172039D01*
G01X8989572Y4170999D01*
G01X9035322Y4170999D01*
G01X9032701Y4173768D01*
G01X9027787Y4178454D01*
G01X9025659Y4180678D01*
G01X9024714Y4181827D01*
G01X9023861Y4183025D01*
G01X9023111Y4184294D01*
G01X9022475Y4185651D01*
G01X9021962Y4187116D01*
G01X9021583Y4188708D01*
G01X9021348Y4190446D01*
G01X9021267Y4192349D01*
G37*
G36*
G01X9195867Y2397866D02*
G01X9221267Y2397866D01*
G01X9221360Y2400023D01*
G01X9221631Y2401923D01*
G01X9222068Y2403597D01*
G01X9222659Y2405077D01*
G01X9223393Y2406394D01*
G01X9224257Y2407581D01*
G01X9225240Y2408669D01*
G01X9226330Y2409689D01*
G01X9230121Y2412660D01*
G01X9232966Y2414884D01*
G01X9235952Y2417597D01*
G01X9237469Y2419216D01*
G01X9191719Y2419216D01*
G01X9192673Y2418039D01*
G01X9193478Y2416847D01*
G01X9194146Y2415641D01*
G01X9194690Y2414417D01*
G01X9195121Y2413174D01*
G01X9195451Y2411912D01*
G01X9195693Y2410628D01*
G01X9195857Y2409321D01*
G01X9196006Y2406633D01*
G01X9195881Y2399408D01*
G01X9195867Y2397866D01*
G37*
G36*
G01X9221267Y2480914D02*
G01X9195867Y2480914D01*
G01X9196014Y2473531D01*
G01X9195958Y2470789D01*
G01X9195857Y2469458D01*
G01X9195693Y2468151D01*
G01X9195451Y2466868D01*
G01X9195121Y2465605D01*
G01X9194690Y2464363D01*
G01X9194146Y2463139D01*
G01X9193478Y2461932D01*
G01X9192673Y2460741D01*
G01X9191719Y2459564D01*
G01X9237469Y2459564D01*
G01X9235952Y2461183D01*
G01X9232966Y2463895D01*
G01X9227515Y2468106D01*
G01X9226330Y2469090D01*
G01X9225240Y2470110D01*
G01X9224257Y2471198D01*
G01X9223393Y2472385D01*
G01X9222659Y2473702D01*
G01X9222068Y2475182D01*
G01X9221631Y2476856D01*
G01X9221360Y2478756D01*
G01X9221267Y2480914D01*
G37*
G36*
G01X8995867Y2397866D02*
G01X9021267Y2397866D01*
G01X9021336Y2399529D01*
G01X9021537Y2401113D01*
G01X9021862Y2402627D01*
G01X9022301Y2404078D01*
G01X9022845Y2405472D01*
G01X9023487Y2406818D01*
G01X9024216Y2408122D01*
G01X9025904Y2410637D01*
G01X9027839Y2413074D01*
G01X9033292Y2419216D01*
G01X8987542Y2419216D01*
G01X8988321Y2418267D01*
G01X8989095Y2417201D01*
G01X8990599Y2414773D01*
G01X8992005Y2412045D01*
G01X8993265Y2409131D01*
G01X8994331Y2406142D01*
G01X8995152Y2403193D01*
G01X8995680Y2400396D01*
G01X8995819Y2399091D01*
G01X8995867Y2397866D01*
G37*
G36*
G01X9021267Y2480914D02*
G01X8995867Y2480914D01*
G01X8995680Y2478383D01*
G01X8995152Y2475586D01*
G01X8994331Y2472637D01*
G01X8993265Y2469649D01*
G01X8992005Y2466734D01*
G01X8990599Y2464006D01*
G01X8989095Y2461578D01*
G01X8987542Y2459564D01*
G01X9033292Y2459564D01*
G01X9027839Y2465705D01*
G01X9025904Y2468143D01*
G01X9024216Y2470657D01*
G01X9023487Y2471961D01*
G01X9022845Y2473307D01*
G01X9022301Y2474702D01*
G01X9021862Y2476152D01*
G01X9021537Y2477666D01*
G01X9021336Y2479251D01*
G01X9021267Y2480914D01*
G37*
G36*
G01X6370067Y4411410D02*
G01X6395467Y4411410D01*
G01X6395505Y4412656D01*
G01X6395795Y4415353D01*
G01X6396349Y4418238D01*
G01X6397143Y4421206D01*
G01X6398148Y4424150D01*
G01X6399341Y4426967D01*
G01X6400692Y4429551D01*
G01X6401420Y4430722D01*
G01X6402177Y4431797D01*
G01X6402962Y4432760D01*
G01X6357212Y4432760D01*
G01X6363042Y4426536D01*
G01X6365110Y4424188D01*
G01X6366050Y4422996D01*
G01X6366915Y4421775D01*
G01X6367695Y4420514D01*
G01X6368380Y4419200D01*
G01X6368962Y4417820D01*
G01X6369432Y4416364D01*
G01X6369778Y4414818D01*
G01X6369993Y4413171D01*
G01X6370067Y4411410D01*
G37*
G36*
G01X6395467Y4494458D02*
G01X6370067Y4494458D01*
G01X6369993Y4492697D01*
G01X6369778Y4491049D01*
G01X6369432Y4489503D01*
G01X6368962Y4488047D01*
G01X6368380Y4486668D01*
G01X6367695Y4485354D01*
G01X6366915Y4484092D01*
G01X6366050Y4482872D01*
G01X6364104Y4480504D01*
G01X6358416Y4474442D01*
G01X6357212Y4473108D01*
G01X6402962Y4473108D01*
G01X6402177Y4474071D01*
G01X6401420Y4475145D01*
G01X6400692Y4476317D01*
G01X6399341Y4478901D01*
G01X6398148Y4481717D01*
G01X6397143Y4484662D01*
G01X6396349Y4487629D01*
G01X6395795Y4490514D01*
G01X6395505Y4493212D01*
G01X6395467Y4494458D01*
G37*
G36*
G01X6570067Y4415277D02*
G01X6595467Y4415277D01*
G01X6595542Y4418021D01*
G01X6595782Y4420868D01*
G01X6596204Y4423755D01*
G01X6596829Y4426620D01*
G01X6597674Y4429402D01*
G01X6598185Y4430742D01*
G01X6598759Y4432038D01*
G01X6599398Y4433282D01*
G01X6600103Y4434467D01*
G01X6600879Y4435584D01*
G01X6601726Y4436627D01*
G01X6555975Y4436627D01*
G01X6558604Y4433853D01*
G01X6563530Y4429169D01*
G01X6565663Y4426951D01*
G01X6566611Y4425804D01*
G01X6567466Y4424607D01*
G01X6568218Y4423340D01*
G01X6568856Y4421983D01*
G01X6569370Y4420518D01*
G01X6569750Y4418925D01*
G01X6569986Y4417184D01*
G01X6570067Y4415277D01*
G37*
G36*
G01X6595467Y4498325D02*
G01X6570067Y4498325D01*
G01X6569986Y4496417D01*
G01X6569750Y4494677D01*
G01X6569370Y4493083D01*
G01X6568856Y4491618D01*
G01X6568218Y4490262D01*
G01X6567466Y4488995D01*
G01X6566611Y4487798D01*
G01X6565663Y4486651D01*
G01X6563530Y4484432D01*
G01X6558604Y4479749D01*
G01X6555975Y4476975D01*
G01X6601726Y4476975D01*
G01X6600879Y4478017D01*
G01X6600103Y4479134D01*
G01X6599398Y4480319D01*
G01X6598759Y4481563D01*
G01X6598185Y4482859D01*
G01X6597222Y4485576D01*
G01X6596490Y4488408D01*
G01X6595969Y4491292D01*
G01X6595641Y4494166D01*
G01X6595485Y4496969D01*
G01X6595467Y4498325D01*
G37*
G36*
G01X6370067Y2701425D02*
G01X6395467Y2701425D01*
G01X6395538Y2703124D01*
G01X6395744Y2704731D01*
G01X6396077Y2706257D01*
G01X6396527Y2707710D01*
G01X6397085Y2709098D01*
G01X6397743Y2710432D01*
G01X6398491Y2711721D01*
G01X6400221Y2714199D01*
G01X6402205Y2716603D01*
G01X6407796Y2722775D01*
G01X6362046Y2722775D01*
G01X6363554Y2720789D01*
G01X6365009Y2718362D01*
G01X6366365Y2715616D01*
G01X6367576Y2712674D01*
G01X6368598Y2709661D01*
G01X6369384Y2706699D01*
G01X6369889Y2703913D01*
G01X6370067Y2701425D01*
G37*
G36*
G01X6395467Y2784473D02*
G01X6370067Y2784473D01*
G01X6369889Y2781985D01*
G01X6369384Y2779198D01*
G01X6368598Y2776237D01*
G01X6367576Y2773223D01*
G01X6366365Y2770282D01*
G01X6365009Y2767535D01*
G01X6363554Y2765108D01*
G01X6362046Y2763122D01*
G01X6407796Y2763122D01*
G01X6402205Y2769294D01*
G01X6400221Y2771699D01*
G01X6398491Y2774176D01*
G01X6397743Y2775465D01*
G01X6397085Y2776799D01*
G01X6396527Y2778188D01*
G01X6396077Y2779641D01*
G01X6395744Y2781166D01*
G01X6395538Y2782774D01*
G01X6395467Y2784473D01*
G37*
G36*
G01X6570067Y2700651D02*
G01X6595467Y2700651D01*
G01X6595535Y2702295D01*
G01X6595733Y2703868D01*
G01X6596053Y2705376D01*
G01X6596487Y2706825D01*
G01X6597024Y2708223D01*
G01X6597657Y2709575D01*
G01X6598377Y2710887D01*
G01X6600043Y2713421D01*
G01X6601952Y2715875D01*
G01X6607333Y2722001D01*
G01X6561583Y2722001D01*
G01X6562377Y2721040D01*
G01X6563941Y2718795D01*
G01X6565430Y2716210D01*
G01X6566795Y2713392D01*
G01X6567986Y2710445D01*
G01X6568954Y2707476D01*
G01X6569647Y2704591D01*
G01X6569876Y2703213D01*
G01X6570018Y2701895D01*
G01X6570067Y2700651D01*
G37*
G36*
G01X6595467Y2783699D02*
G01X6570067Y2783699D01*
G01X6570018Y2782455D01*
G01X6569876Y2781138D01*
G01X6569338Y2778334D01*
G01X6568501Y2775394D01*
G01X6567416Y2772423D01*
G01X6566131Y2769527D01*
G01X6564698Y2766813D01*
G01X6563165Y2764385D01*
G01X6562377Y2763311D01*
G01X6561583Y2762349D01*
G01X6607333Y2762349D01*
G01X6601952Y2768475D01*
G01X6600043Y2770930D01*
G01X6598377Y2773463D01*
G01X6597657Y2774776D01*
G01X6597024Y2776128D01*
G01X6596487Y2777525D01*
G01X6596053Y2778975D01*
G01X6595733Y2780482D01*
G01X6595535Y2782055D01*
G01X6595467Y2783699D01*
G37*
G36*
G01X7020637Y1190790D02*
G01X7038598Y1208750D01*
G01X7035536Y1212017D01*
G01X7033792Y1214117D01*
G01X7032272Y1216163D01*
G01X7030964Y1218161D01*
G01X7029857Y1220117D01*
G01X7028939Y1222037D01*
G01X7028197Y1223927D01*
G01X7027619Y1225793D01*
G01X7027194Y1227642D01*
G01X7026910Y1229480D01*
G01X7026755Y1231312D01*
G01X7026717Y1233146D01*
G01X7026784Y1234986D01*
G01X7027056Y1237773D01*
G01X7027675Y1241573D01*
G01X7030388Y1254001D01*
G01X7031455Y1259865D01*
G01X7032094Y1264944D01*
G01X7032385Y1269011D01*
G01X7032471Y1273322D01*
G01X7032312Y1277899D01*
G01X6951489Y1197076D01*
G01X6956066Y1196917D01*
G01X6960377Y1197002D01*
G01X6965749Y1197430D01*
G01X6970736Y1198127D01*
G01X6978684Y1199711D01*
G01X6988776Y1201890D01*
G01X6991614Y1202332D01*
G01X6994402Y1202603D01*
G01X6996242Y1202670D01*
G01X6998076Y1202633D01*
G01X6999908Y1202477D01*
G01X7001746Y1202194D01*
G01X7003595Y1201769D01*
G01X7005461Y1201191D01*
G01X7007351Y1200449D01*
G01X7009271Y1199530D01*
G01X7011227Y1198423D01*
G01X7013224Y1197116D01*
G01X7015271Y1195596D01*
G01X7017371Y1193852D01*
G01X7020637Y1190790D01*
G37*
G36*
G01X6891885Y1355463D02*
G01X6873925Y1337503D01*
G01X6876987Y1334237D01*
G01X6878731Y1332136D01*
G01X6880250Y1330090D01*
G01X6881558Y1328092D01*
G01X6882665Y1326136D01*
G01X6883584Y1324217D01*
G01X6884326Y1322327D01*
G01X6884903Y1320460D01*
G01X6885328Y1318611D01*
G01X6885612Y1316774D01*
G01X6885767Y1314941D01*
G01X6885805Y1313108D01*
G01X6885738Y1311267D01*
G01X6885466Y1308480D01*
G01X6884847Y1304681D01*
G01X6882134Y1292252D01*
G01X6881067Y1286388D01*
G01X6880428Y1281310D01*
G01X6880137Y1277243D01*
G01X6880051Y1272931D01*
G01X6880211Y1268355D01*
G01X6961033Y1349177D01*
G01X6956456Y1349337D01*
G01X6952145Y1349251D01*
G01X6946773Y1348823D01*
G01X6941786Y1348126D01*
G01X6933839Y1346542D01*
G01X6923746Y1344363D01*
G01X6920908Y1343922D01*
G01X6918121Y1343650D01*
G01X6916280Y1343583D01*
G01X6914447Y1343621D01*
G01X6912614Y1343776D01*
G01X6910777Y1344060D01*
G01X6908928Y1344484D01*
G01X6907061Y1345062D01*
G01X6905171Y1345804D01*
G01X6903251Y1346723D01*
G01X6901296Y1347830D01*
G01X6899298Y1349138D01*
G01X6897252Y1350657D01*
G01X6895151Y1352401D01*
G01X6891885Y1355463D01*
G37*
G36*
G01X7220637Y1190790D02*
G01X7238597Y1208750D01*
G01X7235535Y1212017D01*
G01X7233791Y1214117D01*
G01X7232272Y1216163D01*
G01X7230964Y1218161D01*
G01X7229857Y1220117D01*
G01X7228938Y1222037D01*
G01X7228196Y1223927D01*
G01X7227619Y1225793D01*
G01X7227194Y1227642D01*
G01X7226910Y1229480D01*
G01X7226755Y1231312D01*
G01X7226717Y1233146D01*
G01X7226784Y1234986D01*
G01X7227056Y1237773D01*
G01X7227675Y1241573D01*
G01X7230388Y1254001D01*
G01X7231455Y1259865D01*
G01X7232093Y1264944D01*
G01X7232385Y1269011D01*
G01X7232471Y1273322D01*
G01X7232311Y1277899D01*
G01X7151489Y1197076D01*
G01X7156065Y1196917D01*
G01X7160377Y1197002D01*
G01X7165748Y1197430D01*
G01X7170735Y1198127D01*
G01X7178683Y1199711D01*
G01X7188776Y1201890D01*
G01X7191614Y1202332D01*
G01X7194401Y1202603D01*
G01X7196242Y1202670D01*
G01X7198075Y1202633D01*
G01X7199908Y1202477D01*
G01X7201745Y1202194D01*
G01X7203594Y1201769D01*
G01X7205461Y1201191D01*
G01X7207351Y1200449D01*
G01X7209271Y1199530D01*
G01X7211226Y1198423D01*
G01X7213224Y1197116D01*
G01X7215270Y1195596D01*
G01X7217371Y1193852D01*
G01X7220637Y1190790D01*
G37*
G36*
G01X7091885Y1355463D02*
G01X7073924Y1337503D01*
G01X7076986Y1334237D01*
G01X7078730Y1332136D01*
G01X7080250Y1330090D01*
G01X7081557Y1328092D01*
G01X7082665Y1326136D01*
G01X7083583Y1324217D01*
G01X7084325Y1322327D01*
G01X7084903Y1320460D01*
G01X7085328Y1318611D01*
G01X7085612Y1316774D01*
G01X7085767Y1314941D01*
G01X7085804Y1313108D01*
G01X7085737Y1311267D01*
G01X7085466Y1308480D01*
G01X7084847Y1304681D01*
G01X7082134Y1292252D01*
G01X7081067Y1286388D01*
G01X7080428Y1281310D01*
G01X7080137Y1277243D01*
G01X7080051Y1272931D01*
G01X7080210Y1268355D01*
G01X7161033Y1349177D01*
G01X7156456Y1349337D01*
G01X7152145Y1349251D01*
G01X7146773Y1348823D01*
G01X7141786Y1348126D01*
G01X7133838Y1346542D01*
G01X7123746Y1344363D01*
G01X7120908Y1343922D01*
G01X7118120Y1343650D01*
G01X7116280Y1343583D01*
G01X7114446Y1343621D01*
G01X7112614Y1343776D01*
G01X7110776Y1344060D01*
G01X7108927Y1344484D01*
G01X7107061Y1345062D01*
G01X7105171Y1345804D01*
G01X7103251Y1346723D01*
G01X7101295Y1347830D01*
G01X7099297Y1349138D01*
G01X7097251Y1350657D01*
G01X7095151Y1352401D01*
G01X7091885Y1355463D01*
G37*
G04 TearDrop End*

G04 Pad Start*
G54D11*
G01X5707243Y6541859D03*
G01X5708294Y339949D03*
G01X9907947Y342523D03*
G01X9906884Y6542427D03*
G54D12*
G01X8966167Y6322543D03*
G54D13*
G01X9220167Y6322543D03*
G54D14*
G01X8337461Y4733039D03*
G01X8337461Y5241039D03*
G54D15*
G01X8460473Y5626052D03*
G01X8660473Y5626052D03*
G54D16*
G01X7060645Y6440219D03*
G01X7780633Y6440219D03*
G54D14*
G01X8337461Y3022135D03*
G01X8337461Y3530135D03*
G54D15*
G01X8460473Y3915149D03*
G01X8660473Y3915149D03*
G54D14*
G01X8337461Y1311232D03*
G01X8337461Y1819232D03*
G54D15*
G01X8460473Y2204245D03*
G01X8660473Y2204245D03*
G54D14*
G01X7279273Y3877044D03*
G01X7279273Y3369044D03*
G54D15*
G01X7156261Y2984030D03*
G01X6956261Y2984030D03*
G54D17*
G01X9008567Y5344643D03*
G01X9208567Y5344643D03*
G01X9008567Y3617443D03*
G01X9208567Y3617443D03*
G01X9008567Y1915643D03*
G01X9208567Y1915643D03*
G54D18*
G01X6582767Y1547343D03*
G01X6382767Y1547343D03*
G01X6582767Y3223743D03*
G01X6382767Y3223743D03*
G01X6582767Y4976343D03*
G01X6382767Y4976343D03*
G54D14*
G01X7279273Y2166140D03*
G01X7279273Y1658140D03*
G54D15*
G01X7156261Y1273127D03*
G01X6956261Y1273127D03*
G54D14*
G01X7279273Y5587947D03*
G01X7279273Y5079947D03*
G54D15*
G01X7156261Y4694934D03*
G01X6956261Y4694934D03*
G54D16*
G01X7062113Y503081D03*
G01X7782102Y503081D03*
G54D12*
G01X8986537Y630826D03*
G54D13*
G01X9240537Y630826D03*
G04 Pad End*

G04 Via Start*
G54D20*
G01X6380087Y4452934D03*
G01X6578851Y4456801D03*
G01X6384921Y2742949D03*
G01X6584458Y2742175D03*
G01X9010417Y2439390D03*
G01X9214594Y2439390D03*
G01X9012447Y4150825D03*
G01X9217784Y4150825D03*
G04 Via End*

G04 Track Start*
G54D21*
G01X9220167Y6322543D02*
G01X9220167Y5356243D01*
G01X9208567Y5344643D01*
G01X9208567Y3617443D01*
G01X9008567Y5344643D02*
G01X9008567Y3617443D01*
G01X9208567Y3617443D02*
G01X9208567Y1915643D01*
G01X9008567Y3617443D02*
G01X9008567Y1915643D01*
G01X9208567Y1915643D02*
G01X9208567Y662796D01*
G01X9240537Y630826D01*
G01X9008567Y1915643D02*
G01X9008567Y652856D01*
G01X8986537Y630826D01*
G01X8874981Y502926D02*
G01X9112637Y502926D01*
G01X9240537Y630826D01*
G01X8986537Y630826D02*
G01X8970876Y630826D01*
G01X6956261Y1273127D02*
G01X7262838Y966550D01*
G01X8411357Y966550D01*
G01X8874981Y502926D01*
G01X8970876Y630826D02*
G01X8500583Y1101118D01*
G01X7328269Y1101118D01*
G01X7156261Y1273127D01*
G01X6382767Y4976343D02*
G01X6382767Y3223743D01*
G01X6582767Y4976343D02*
G01X6582767Y3223743D01*
G01X6382767Y3223743D02*
G01X6382767Y1547343D01*
G01X6582767Y3223743D02*
G01X6582767Y1547343D01*
G01X6494155Y1435955D02*
G01X6382767Y1547343D01*
G01X6582767Y1547343D02*
G01X6620321Y1509789D01*
G01X6919599Y1509789D01*
G01X7156261Y1273127D01*
G01X6956261Y1273127D02*
G01X6793433Y1435955D01*
G01X6494155Y1435955D01*
G01X8966167Y6322543D02*
G01X9009879Y6278831D01*
G01X9009879Y5345955D01*
G01X9008567Y5344643D01*
G04 Track End*

M02*

