G04 Layer: BottomSilkscreenLayer*
G04 EasyEDA Pro v2.2.32.3, 2024-11-26 15:57:28*
G04 Gerber Generator version 0.3*
G04 Scale: 100 percent, Rotated: No, Reflected: No*
G04 Dimensions in millimeters*
G04 Leading zeros omitted, absolute positions, 3 integers and 5 decimals*
%FSLAX35Y35*%
%MOMM*%
%ADD10C,0.1524*%
G75*


G04 Text Start*
G54D10*
G01X8938387Y5148809D02*
G01X8938387Y5213833D01*
G01X8938387Y5148809D02*
G01X8966327Y5148809D01*
G01X8975471Y5151857D01*
G01X8978519Y5154905D01*
G01X8981821Y5161255D01*
G01X8981821Y5167351D01*
G01X8978519Y5173447D01*
G01X8975471Y5176495D01*
G01X8966327Y5179797D01*
G01X8938387Y5179797D01*
G01X8959977Y5179797D02*
G01X8981821Y5213833D01*
G01X9012047Y5161255D02*
G01X9018143Y5157953D01*
G01X9027287Y5148809D01*
G01X9027287Y5213833D01*
G01X9247076Y3798057D02*
G01X9247076Y3733033D01*
G01X9247076Y3798057D02*
G01X9219136Y3798057D01*
G01X9209992Y3795009D01*
G01X9206944Y3791961D01*
G01X9203642Y3785611D01*
G01X9203642Y3779515D01*
G01X9206944Y3773419D01*
G01X9209992Y3770371D01*
G01X9219136Y3767069D01*
G01X9247076Y3767069D01*
G01X9225486Y3767069D02*
G01X9203642Y3733033D01*
G01X9170368Y3782563D02*
G01X9170368Y3785611D01*
G01X9167320Y3791961D01*
G01X9164272Y3795009D01*
G01X9158176Y3798057D01*
G01X9145730Y3798057D01*
G01X9139380Y3795009D01*
G01X9136332Y3791961D01*
G01X9133284Y3785611D01*
G01X9133284Y3779515D01*
G01X9136332Y3773419D01*
G01X9142682Y3764021D01*
G01X9173416Y3733033D01*
G01X9130236Y3733033D01*
G01X9247076Y2096257D02*
G01X9247076Y2031233D01*
G01X9247076Y2096257D02*
G01X9219136Y2096257D01*
G01X9209992Y2093209D01*
G01X9206944Y2090161D01*
G01X9203642Y2083811D01*
G01X9203642Y2077715D01*
G01X9206944Y2071619D01*
G01X9209992Y2068571D01*
G01X9219136Y2065269D01*
G01X9247076Y2065269D01*
G01X9225486Y2065269D02*
G01X9203642Y2031233D01*
G01X9167320Y2096257D02*
G01X9133284Y2096257D01*
G01X9151826Y2071619D01*
G01X9142682Y2071619D01*
G01X9136332Y2068571D01*
G01X9133284Y2065269D01*
G01X9130236Y2056125D01*
G01X9130236Y2049775D01*
G01X9133284Y2040631D01*
G01X9139380Y2034281D01*
G01X9148778Y2031233D01*
G01X9158176Y2031233D01*
G01X9167320Y2034281D01*
G01X9170368Y2037583D01*
G01X9173416Y2043679D01*
G01X6350687Y1364209D02*
G01X6350687Y1429233D01*
G01X6350687Y1364209D02*
G01X6378627Y1364209D01*
G01X6387771Y1367257D01*
G01X6390819Y1370305D01*
G01X6394121Y1376655D01*
G01X6394121Y1382751D01*
G01X6390819Y1388847D01*
G01X6387771Y1391895D01*
G01X6378627Y1395197D01*
G01X6350687Y1395197D01*
G01X6372277Y1395197D02*
G01X6394121Y1429233D01*
G01X6455081Y1364209D02*
G01X6424347Y1407389D01*
G01X6470575Y1407389D01*
G01X6455081Y1364209D02*
G01X6455081Y1429233D01*
G01X6325287Y3002509D02*
G01X6325287Y3067533D01*
G01X6325287Y3002509D02*
G01X6353227Y3002509D01*
G01X6362371Y3005557D01*
G01X6365419Y3008605D01*
G01X6368721Y3014955D01*
G01X6368721Y3021051D01*
G01X6365419Y3027147D01*
G01X6362371Y3030195D01*
G01X6353227Y3033497D01*
G01X6325287Y3033497D01*
G01X6346877Y3033497D02*
G01X6368721Y3067533D01*
G01X6436031Y3002509D02*
G01X6405043Y3002509D01*
G01X6401995Y3030195D01*
G01X6405043Y3027147D01*
G01X6414187Y3024099D01*
G01X6423585Y3024099D01*
G01X6432983Y3027147D01*
G01X6439079Y3033497D01*
G01X6442127Y3042641D01*
G01X6442127Y3048991D01*
G01X6439079Y3058135D01*
G01X6432983Y3064485D01*
G01X6423585Y3067533D01*
G01X6414187Y3067533D01*
G01X6405043Y3064485D01*
G01X6401995Y3061183D01*
G01X6398947Y3055087D01*
G01X6325287Y4742409D02*
G01X6325287Y4807433D01*
G01X6325287Y4742409D02*
G01X6353227Y4742409D01*
G01X6362371Y4745457D01*
G01X6365419Y4748505D01*
G01X6368721Y4754855D01*
G01X6368721Y4760951D01*
G01X6365419Y4767047D01*
G01X6362371Y4770095D01*
G01X6353227Y4773397D01*
G01X6325287Y4773397D01*
G01X6346877Y4773397D02*
G01X6368721Y4807433D01*
G01X6436031Y4751553D02*
G01X6432983Y4745457D01*
G01X6423585Y4742409D01*
G01X6417489Y4742409D01*
G01X6408091Y4745457D01*
G01X6401995Y4754855D01*
G01X6398947Y4770095D01*
G01X6398947Y4785589D01*
G01X6401995Y4798035D01*
G01X6408091Y4804385D01*
G01X6417489Y4807433D01*
G01X6420537Y4807433D01*
G01X6429681Y4804385D01*
G01X6436031Y4798035D01*
G01X6439079Y4788891D01*
G01X6439079Y4785589D01*
G01X6436031Y4776445D01*
G01X6429681Y4770095D01*
G01X6420537Y4767047D01*
G01X6417489Y4767047D01*
G01X6408091Y4770095D01*
G01X6401995Y4776445D01*
G01X6398947Y4785589D01*
G36*
G01X9466167Y6757413D02*
G01X9464349Y6756959D01*
G01X9455031Y6756732D01*
G01X9446167Y6756959D01*
G01X9441622Y6757413D01*
G01X9439804Y6757868D01*
G01X9437758Y6758550D01*
G01X9435713Y6759459D01*
G01X9433440Y6760823D01*
G01X9431849Y6762414D01*
G01X9430940Y6763550D01*
G01X9429804Y6765141D01*
G01X9428667Y6766959D01*
G01X9427758Y6769004D01*
G01X9426395Y6774004D01*
G01X9425940Y6776732D01*
G01X9425713Y6778777D01*
G01X9425258Y6780595D01*
G01X9425031Y6782868D01*
G01X9424804Y6784686D01*
G01X9424349Y6786959D01*
G01X9424122Y6789914D01*
G01X9423894Y6791959D01*
G01X9423440Y6794232D01*
G01X9423440Y6796732D01*
G01X9423951Y6797527D01*
G01X9425031Y6798095D01*
G01X9427076Y6798777D01*
G01X9428894Y6799459D01*
G01X9433440Y6801277D01*
G01X9435031Y6801732D01*
G01X9435713Y6800595D01*
G01X9435940Y6797641D01*
G01X9436167Y6795141D01*
G01X9436622Y6792414D01*
G01X9436849Y6788323D01*
G01X9437076Y6785595D01*
G01X9437531Y6783323D01*
G01X9437758Y6780141D01*
G01X9438213Y6777641D01*
G01X9438667Y6775823D01*
G01X9439122Y6774232D01*
G01X9440031Y6772641D01*
G01X9441167Y6771277D01*
G01X9442531Y6770368D01*
G01X9444349Y6769459D01*
G01X9447076Y6768777D01*
G01X9449576Y6768323D01*
G01X9451167Y6768323D01*
G01X9464349Y6768777D01*
G01X9466167Y6769459D01*
G01X9468440Y6770823D01*
G01X9469803Y6772641D01*
G01X9470485Y6774459D01*
G01X9470940Y6803777D01*
G01X9470713Y6825141D01*
G01X9470031Y6832414D01*
G01X9468440Y6833095D01*
G01X9466622Y6834232D01*
G01X9458894Y6838095D01*
G01X9457304Y6839004D01*
G01X9455258Y6840141D01*
G01X9451167Y6842186D01*
G01X9447985Y6844004D01*
G01X9446167Y6844914D01*
G01X9442076Y6847186D01*
G01X9437304Y6849914D01*
G01X9436167Y6850595D01*
G01X9434576Y6851504D01*
G01X9432531Y6852641D01*
G01X9430940Y6853550D01*
G01X9429349Y6854686D01*
G01X9427531Y6855823D01*
G01X9427076Y6856391D01*
G01X9427076Y6857186D01*
G01X9427758Y6858550D01*
G01X9428667Y6859686D01*
G01X9429804Y6861277D01*
G01X9431167Y6863323D01*
G01X9432304Y6864914D01*
G01X9433213Y6866050D01*
G01X9433781Y6866448D01*
G01X9434576Y6866277D01*
G01X9436395Y6865141D01*
G01X9438440Y6863777D01*
G01X9440713Y6862186D01*
G01X9442758Y6860823D01*
G01X9448213Y6857414D01*
G01X9450258Y6856050D01*
G01X9452531Y6854686D01*
G01X9456622Y6852414D01*
G01X9458440Y6851277D01*
G01X9460031Y6850368D01*
G01X9462076Y6849232D01*
G01X9470258Y6845141D01*
G01X9470769Y6851050D01*
G01X9470940Y6869232D01*
G01X9471167Y6887584D01*
G01X9471849Y6894005D01*
G01X9477531Y6894459D01*
G01X9481224Y6894232D01*
G01X9482758Y6893550D01*
G01X9483213Y6834459D01*
G01X9482985Y6775595D01*
G01X9482758Y6772868D01*
G01X9482304Y6770141D01*
G01X9481849Y6768550D01*
G01X9481394Y6767186D01*
G01X9480713Y6766050D01*
G01X9479804Y6764459D01*
G01X9478667Y6762868D01*
G01X9477076Y6761504D01*
G01X9475485Y6760368D01*
G01X9473894Y6759459D01*
G01X9471849Y6758550D01*
G01X9468894Y6757868D01*
G01X9466167Y6757413D01*
G37*
G36*
G01X9524122Y6767414D02*
G01X9523895Y6753323D01*
G01X9517985Y6753095D01*
G01X9512303Y6753095D01*
G01X9512303Y6823095D01*
G01X9512758Y6893323D01*
G01X9518440Y6893550D01*
G01X9523667Y6893550D01*
G01X9523895Y6892413D01*
G01X9524122Y6872186D01*
G01X9524292Y6857811D01*
G01X9524804Y6852868D01*
G01X9526167Y6852868D01*
G01X9545940Y6853095D01*
G01X9560429Y6852868D01*
G01X9565713Y6852186D01*
G01X9566224Y6850425D01*
G01X9566395Y6846959D01*
G01X9566224Y6843607D01*
G01X9565713Y6842186D01*
G01X9563440Y6841504D01*
G01X9543894Y6841277D01*
G01X9525258Y6841504D01*
G01X9524690Y6841391D01*
G01X9524349Y6840595D01*
G01X9524122Y6817414D01*
G01X9524122Y6795368D01*
G01X9525258Y6795141D01*
G01X9527303Y6794459D01*
G01X9531849Y6792641D01*
G01X9533895Y6791732D01*
G01X9537531Y6790368D01*
G01X9546622Y6786732D01*
G01X9548440Y6786050D01*
G01X9549804Y6785595D01*
G01X9551622Y6784914D01*
G01X9553894Y6784004D01*
G01X9555713Y6783323D01*
G01X9557076Y6782868D01*
G01X9558894Y6782186D01*
G01X9561394Y6781277D01*
G01X9563667Y6780368D01*
G01X9565485Y6779686D01*
G01X9567076Y6779232D01*
G01X9568440Y6778550D01*
G01X9568894Y6777982D01*
G01X9568894Y6777186D01*
G01X9568213Y6775368D01*
G01X9566395Y6770823D01*
G01X9565485Y6768777D01*
G01X9564576Y6767186D01*
G01X9563440Y6767186D01*
G01X9561849Y6767868D01*
G01X9560031Y6768550D01*
G01X9555940Y6770368D01*
G01X9554122Y6771050D01*
G01X9552531Y6771732D01*
G01X9548894Y6773095D01*
G01X9546849Y6774004D01*
G01X9540031Y6776732D01*
G01X9537985Y6777641D01*
G01X9533440Y6779459D01*
G01X9531394Y6780368D01*
G01X9527758Y6781732D01*
G01X9525713Y6782414D01*
G01X9524804Y6782414D01*
G01X9524349Y6781959D01*
G01X9524122Y6767414D01*
G37*
G36*
G01X7980259Y6756050D02*
G01X7979577Y6754232D01*
G01X7979122Y6753095D01*
G01X7964804Y6753095D01*
G01X7949804Y6753323D01*
G01X7946849Y6753550D01*
G01X7943668Y6754005D01*
G01X7942077Y6754686D01*
G01X7940259Y6755595D01*
G01X7938440Y6756732D01*
G01X7937304Y6757868D01*
G01X7935486Y6760141D01*
G01X7934577Y6761732D01*
G01X7933668Y6764005D01*
G01X7932986Y6766504D01*
G01X7932531Y6768777D01*
G01X7932077Y6771959D01*
G01X7931849Y6830823D01*
G01X7931849Y6887641D01*
G01X7932986Y6888095D01*
G01X7995713Y6888550D01*
G01X8042077Y6888379D01*
G01X8057986Y6887868D01*
G01X8058497Y6886164D01*
G01X8058668Y6882413D01*
G01X8058668Y6877641D01*
G01X8057531Y6877186D01*
G01X8001168Y6876732D01*
G01X7945259Y6876959D01*
G01X7944690Y6876845D01*
G01X7944350Y6876050D01*
G01X7944122Y6824913D01*
G01X7944350Y6774232D01*
G01X7944577Y6772414D01*
G01X7945031Y6770595D01*
G01X7945713Y6769232D01*
G01X7946622Y6768095D01*
G01X7947758Y6766959D01*
G01X7949577Y6765823D01*
G01X7961395Y6765368D01*
G01X7972531Y6765595D01*
G01X7979804Y6766050D01*
G01X7981168Y6765823D01*
G01X7981622Y6765027D01*
G01X7981622Y6763550D01*
G01X7980940Y6760823D01*
G01X7980486Y6758323D01*
G01X7980259Y6756050D01*
G37*
G36*
G01X8066622Y6858323D02*
G01X8066849Y6852868D01*
G01X8066849Y6848550D01*
G01X7955486Y6848550D01*
G01X7955259Y6849686D01*
G01X7955031Y6854686D01*
G01X7955259Y6857698D01*
G01X7955940Y6859005D01*
G01X8011622Y6859459D01*
G01X8066395Y6859459D01*
G01X8066622Y6858323D01*
G37*
G36*
G01X8052304Y6799914D02*
G01X8052304Y6768550D01*
G01X8040940Y6768550D01*
G01X8040940Y6779004D01*
G01X8039804Y6779232D01*
G01X8007077Y6779459D01*
G01X7975486Y6779459D01*
G01X7975486Y6820368D01*
G01X7987304Y6820368D01*
G01X7987304Y6789914D01*
G01X8013668Y6789914D01*
G01X8013668Y6789914D01*
G01X8040258Y6790141D01*
G01X8040713Y6791505D01*
G01X8040940Y6806277D01*
G01X8040940Y6819913D01*
G01X8039804Y6820141D01*
G01X8012986Y6820368D01*
G01X7987304Y6820368D01*
G01X7975486Y6820368D01*
G01X7975486Y6830823D01*
G01X7976622Y6831050D01*
G01X8015031Y6831277D01*
G01X8052304Y6831277D01*
G01X8052304Y6799914D01*
G37*
G36*
G01X8084350Y6821277D02*
G01X8082758Y6819913D01*
G01X8082190Y6819857D01*
G01X8081395Y6820595D01*
G01X8079577Y6822868D01*
G01X8078213Y6824686D01*
G01X8077077Y6825823D01*
G01X8075259Y6828095D01*
G01X8074122Y6829459D01*
G01X8073668Y6830823D01*
G01X8074577Y6831732D01*
G01X8076168Y6832641D01*
G01X8079804Y6834914D01*
G01X8081395Y6835823D01*
G01X8082758Y6836732D01*
G01X8083895Y6837641D01*
G01X8091168Y6843095D01*
G01X8092304Y6844232D01*
G01X8095486Y6846959D01*
G01X8096622Y6848095D01*
G01X8097986Y6849232D01*
G01X8099349Y6850595D01*
G01X8100486Y6851959D01*
G01X8105031Y6856504D01*
G01X8106849Y6858777D01*
G01X8109577Y6862414D01*
G01X8112304Y6865823D01*
G01X8113213Y6867186D01*
G01X8114122Y6868777D01*
G01X8115940Y6871504D01*
G01X8117077Y6873323D01*
G01X8118213Y6875368D01*
G01X8119122Y6876959D01*
G01X8120031Y6878777D01*
G01X8121168Y6880823D01*
G01X8122077Y6882641D01*
G01X8122759Y6884459D01*
G01X8124577Y6888550D01*
G01X8125486Y6890368D01*
G01X8126054Y6890993D01*
G01X8126849Y6891050D01*
G01X8128668Y6890368D01*
G01X8130940Y6889459D01*
G01X8132986Y6888777D01*
G01X8134804Y6888095D01*
G01X8136168Y6886959D01*
G01X8135940Y6885368D01*
G01X8133213Y6878550D01*
G01X8132304Y6876504D01*
G01X8128668Y6869232D01*
G01X8126849Y6866050D01*
G01X8123440Y6860595D01*
G01X8120259Y6856050D01*
G01X8118895Y6854459D01*
G01X8117986Y6853323D01*
G01X8116849Y6851504D01*
G01X8115031Y6849232D01*
G01X8113440Y6847641D01*
G01X8111622Y6845368D01*
G01X8110486Y6844232D01*
G01X8108668Y6841959D01*
G01X8104122Y6837414D01*
G01X8101395Y6835141D01*
G01X8099122Y6832868D01*
G01X8093668Y6828323D01*
G01X8092531Y6827186D01*
G01X8089350Y6824913D01*
G01X8088213Y6824004D01*
G01X8086622Y6822868D01*
G01X8084350Y6821277D01*
G37*
G36*
G01X8103667Y6757641D02*
G01X8100259Y6752186D01*
G01X8099463Y6751675D01*
G01X8098440Y6751959D01*
G01X8090259Y6757413D01*
G01X8089406Y6758152D01*
G01X8089122Y6759005D01*
G01X8089577Y6760368D01*
G01X8090713Y6761959D01*
G01X8098895Y6774232D01*
G01X8103440Y6780595D01*
G01X8104804Y6782641D01*
G01X8105940Y6784232D01*
G01X8106849Y6785368D01*
G01X8107986Y6786959D01*
G01X8109577Y6789232D01*
G01X8111168Y6791277D01*
G01X8112304Y6792868D01*
G01X8123213Y6807414D01*
G01X8123781Y6807868D01*
G01X8124577Y6807868D01*
G01X8126395Y6806959D01*
G01X8130486Y6804232D01*
G01X8132304Y6802868D01*
G01X8132929Y6802186D01*
G01X8132986Y6801505D01*
G01X8131849Y6799686D01*
G01X8123895Y6788323D01*
G01X8117077Y6778095D01*
G01X8116168Y6776277D01*
G01X8115940Y6775368D01*
G01X8120713Y6775368D01*
G01X8126168Y6775141D01*
G01X8137986Y6774686D01*
G01X8147077Y6774232D01*
G01X8161622Y6773777D01*
G01X8169804Y6773323D01*
G01X8176849Y6773095D01*
G01X8181565Y6773266D01*
G01X8182986Y6773777D01*
G01X8181168Y6776050D01*
G01X8180258Y6777641D01*
G01X8179122Y6779232D01*
G01X8178213Y6780368D01*
G01X8175940Y6783550D01*
G01X8175031Y6784686D01*
G01X8173895Y6786277D01*
G01X8172531Y6788323D01*
G01X8170258Y6791505D01*
G01X8168668Y6793777D01*
G01X8166395Y6797186D01*
G01X8165258Y6798777D01*
G01X8161168Y6804913D01*
G01X8160031Y6806732D01*
G01X8158213Y6809459D01*
G01X8157077Y6811277D01*
G01X8155713Y6813323D01*
G01X8152986Y6817868D01*
G01X8151850Y6819686D01*
G01X8150940Y6821277D01*
G01X8149804Y6823095D01*
G01X8148668Y6825141D01*
G01X8147531Y6826732D01*
G01X8146622Y6828095D01*
G01X8145940Y6829686D01*
G01X8145486Y6831050D01*
G01X8145770Y6831618D01*
G01X8146622Y6831959D01*
G01X8148440Y6832641D01*
G01X8150258Y6833550D01*
G01X8156395Y6836277D01*
G01X8157247Y6836334D01*
G01X8157986Y6835595D01*
G01X8159122Y6833550D01*
G01X8160031Y6831732D01*
G01X8163440Y6825595D01*
G01X8164577Y6823323D01*
G01X8170940Y6812186D01*
G01X8172077Y6810595D01*
G01X8173213Y6808550D01*
G01X8174349Y6806732D01*
G01X8175713Y6804686D01*
G01X8176849Y6802641D01*
G01X8177986Y6800823D01*
G01X8182077Y6794686D01*
G01X8183668Y6792414D01*
G01X8185258Y6790368D01*
G01X8186622Y6788323D01*
G01X8187986Y6786732D01*
G01X8188895Y6785595D01*
G01X8189577Y6784459D01*
G01X8190486Y6783323D01*
G01X8191622Y6782186D01*
G01X8193440Y6779914D01*
G01X8194577Y6778777D01*
G01X8199349Y6774686D01*
G01X8201168Y6773550D01*
G01X8202758Y6772641D01*
G01X8204804Y6771504D01*
G01X8206168Y6770141D01*
G01X8205940Y6768323D01*
G01X8205031Y6766504D01*
G01X8203895Y6764686D01*
G01X8201849Y6760595D01*
G01X8200940Y6759005D01*
G01X8200372Y6758323D01*
G01X8199577Y6758095D01*
G01X8197986Y6758323D01*
G01X8193440Y6759232D01*
G01X8190258Y6759686D01*
G01X8187986Y6760141D01*
G01X8185031Y6760368D01*
G01X8178895Y6761050D01*
G01X8169349Y6761504D01*
G01X8164349Y6761959D01*
G01X8157077Y6762414D01*
G01X8151622Y6762868D01*
G01X8140258Y6763323D01*
G01X8134349Y6763777D01*
G01X8123895Y6764232D01*
G01X8115259Y6764686D01*
G01X8111395Y6764914D01*
G01X8108838Y6764630D01*
G01X8107531Y6763777D01*
G01X8104804Y6759686D01*
G01X8103667Y6757641D01*
G37*
G36*
G01X8211849Y6819232D02*
G01X8210713Y6817868D01*
G01X8210031Y6817470D01*
G01X8209350Y6817641D01*
G01X8207077Y6819913D01*
G01X8205259Y6821277D01*
G01X8193440Y6833095D01*
G01X8190713Y6836277D01*
G01X8189577Y6837414D01*
G01X8187304Y6840141D01*
G01X8182759Y6845823D01*
G01X8181622Y6847414D01*
G01X8180258Y6849005D01*
G01X8179349Y6850141D01*
G01X8178440Y6851732D01*
G01X8177077Y6853777D01*
G01X8174804Y6856959D01*
G01X8173440Y6859232D01*
G01X8170713Y6863323D01*
G01X8167986Y6867868D01*
G01X8166849Y6869914D01*
G01X8164122Y6874686D01*
G01X8160486Y6881959D01*
G01X8159577Y6883550D01*
G01X8159520Y6884345D01*
G01X8160258Y6884914D01*
G01X8162304Y6885823D01*
G01X8169122Y6888550D01*
G01X8170258Y6888720D01*
G01X8170940Y6888323D01*
G01X8176395Y6877413D01*
G01X8177531Y6875595D01*
G01X8178668Y6873550D01*
G01X8180486Y6870368D01*
G01X8181622Y6868550D01*
G01X8185713Y6862414D01*
G01X8186849Y6860823D01*
G01X8187759Y6859686D01*
G01X8190031Y6856504D01*
G01X8195486Y6849686D01*
G01X8196622Y6848550D01*
G01X8199349Y6845368D01*
G01X8202986Y6841732D01*
G01X8204349Y6840141D01*
G01X8206168Y6838550D01*
G01X8211168Y6833550D01*
G01X8213440Y6831732D01*
G01X8214577Y6830595D01*
G01X8217758Y6827868D01*
G01X8218668Y6826732D01*
G01X8218668Y6825823D01*
G01X8217531Y6824913D01*
G01X8211849Y6819232D01*
G37*
G36*
G01X8306395Y6752868D02*
G01X8305258Y6751277D01*
G01X8304349Y6751050D01*
G01X8302077Y6752868D01*
G01X8300940Y6753550D01*
G01X8299349Y6754686D01*
G01X8295258Y6757413D01*
G01X8292986Y6758777D01*
G01X8284804Y6763323D01*
G01X8280713Y6765368D01*
G01X8279122Y6766277D01*
G01X8275486Y6768095D01*
G01X8273440Y6769232D01*
G01X8271849Y6770368D01*
G01X8271395Y6772641D01*
G01X8271622Y6775141D01*
G01X8271849Y6778550D01*
G01X8272077Y6780595D01*
G01X8272759Y6781277D01*
G01X8274349Y6780823D01*
G01X8276168Y6779914D01*
G01X8277759Y6779004D01*
G01X8278895Y6778323D01*
G01X8294349Y6770595D01*
G01X8295940Y6769914D01*
G01X8297304Y6769686D01*
G01X8297759Y6794459D01*
G01X8297759Y6819004D01*
G01X8285031Y6819004D01*
G01X8284804Y6817868D01*
G01X8282759Y6811732D01*
G01X8281395Y6808095D01*
G01X8278668Y6801959D01*
G01X8277759Y6800141D01*
G01X8275940Y6796959D01*
G01X8275031Y6795141D01*
G01X8274122Y6793550D01*
G01X8272986Y6791959D01*
G01X8271849Y6790141D01*
G01X8269577Y6786959D01*
G01X8268213Y6785141D01*
G01X8266395Y6782868D01*
G01X8264804Y6781050D01*
G01X8263668Y6779686D01*
G01X8261395Y6777414D01*
G01X8260486Y6776277D01*
G01X8259349Y6775141D01*
G01X8257986Y6774004D01*
G01X8256849Y6772868D01*
G01X8254577Y6771050D01*
G01X8253440Y6769914D01*
G01X8250031Y6767186D01*
G01X8245259Y6763777D01*
G01X8241168Y6761050D01*
G01X8239349Y6759914D01*
G01X8236168Y6758095D01*
G01X8234349Y6756959D01*
G01X8232531Y6756504D01*
G01X8231395Y6757413D01*
G01X8230031Y6759232D01*
G01X8228667Y6760823D01*
G01X8227758Y6761959D01*
G01X8224349Y6765368D01*
G01X8223668Y6766277D01*
G01X8224804Y6767186D01*
G01X8226622Y6768095D01*
G01X8230713Y6769914D01*
G01X8232531Y6770823D01*
G01X8236622Y6773095D01*
G01X8239804Y6774914D01*
G01X8241395Y6776050D01*
G01X8242531Y6776959D01*
G01X8243667Y6777641D01*
G01X8248440Y6781050D01*
G01X8250031Y6782414D01*
G01X8253667Y6786050D01*
G01X8254293Y6786732D01*
G01X8254349Y6787414D01*
G01X8252986Y6788777D01*
G01X8251168Y6789914D01*
G01X8249577Y6790823D01*
G01X8247758Y6791959D01*
G01X8244577Y6794232D01*
G01X8236395Y6799686D01*
G01X8233213Y6801959D01*
G01X8229122Y6804686D01*
G01X8227531Y6805823D01*
G01X8227077Y6806334D01*
G01X8227077Y6806959D01*
G01X8227986Y6808095D01*
G01X8230259Y6810823D01*
G01X8232077Y6813095D01*
G01X8233440Y6814459D01*
G01X8234122Y6815084D01*
G01X8234804Y6815141D01*
G01X8236622Y6814004D01*
G01X8238895Y6812186D01*
G01X8240486Y6810823D01*
G01X8243895Y6808095D01*
G01X8247531Y6805368D01*
G01X8250713Y6803095D01*
G01X8251849Y6802186D01*
G01X8255031Y6799914D01*
G01X8256395Y6799004D01*
G01X8258213Y6797868D01*
G01X8260258Y6796505D01*
G01X8262304Y6796050D01*
G01X8263440Y6796959D01*
G01X8264349Y6798550D01*
G01X8267077Y6802641D01*
G01X8267986Y6804232D01*
G01X8271395Y6811050D01*
G01X8272304Y6813095D01*
G01X8273668Y6816732D01*
G01X8274349Y6818323D01*
G01X8271452Y6818834D01*
G01X8262304Y6819004D01*
G01X8250031Y6819004D01*
G01X8250031Y6815368D01*
G01X8248667Y6814913D01*
G01X8244122Y6814459D01*
G01X8240259Y6814686D01*
G01X8239349Y6815595D01*
G01X8239143Y6848550D01*
G01X8250031Y6848550D01*
G01X8250031Y6829004D01*
G01X8273668Y6829004D01*
G01X8273668Y6829004D01*
G01X8297531Y6829232D01*
G01X8297759Y6838777D01*
G01X8297759Y6848095D01*
G01X8296622Y6848323D01*
G01X8272759Y6848550D01*
G01X8250031Y6848550D01*
G01X8239143Y6848550D01*
G01X8239122Y6851959D01*
G01X8239122Y6867413D01*
G01X8250031Y6867413D01*
G01X8250031Y6859005D01*
G01X8251168Y6858777D01*
G01X8274577Y6858550D01*
G01X8274577Y6858550D01*
G01X8297077Y6858777D01*
G01X8297531Y6859686D01*
G01X8297759Y6869232D01*
G01X8297759Y6878095D01*
G01X8250486Y6878095D01*
G01X8250259Y6876959D01*
G01X8250031Y6867413D01*
G01X8239122Y6867413D01*
G01X8239122Y6887641D01*
G01X8240259Y6887868D01*
G01X8274804Y6888095D01*
G01X8308213Y6888095D01*
G01X8308440Y6886959D01*
G01X8308668Y6826959D01*
G01X8309122Y6767414D01*
G01X8309804Y6765823D01*
G01X8310713Y6764005D01*
G01X8311849Y6762414D01*
G01X8312304Y6761277D01*
G01X8311622Y6759914D01*
G01X8310486Y6758323D01*
G01X8306395Y6752868D01*
G37*
G36*
G01X8361849Y6819232D02*
G01X8361622Y6750141D01*
G01X8356168Y6749914D01*
G01X8350940Y6749914D01*
G01X8350713Y6751504D01*
G01X8350486Y6770141D01*
G01X8350713Y6787868D01*
G01X8350713Y6790141D01*
G01X8350486Y6834914D01*
G01X8350486Y6878095D01*
G01X8340031Y6878095D01*
G01X8332190Y6877868D01*
G01X8329577Y6877186D01*
G01X8329804Y6875595D01*
G01X8330486Y6873777D01*
G01X8331168Y6871504D01*
G01X8331849Y6869459D01*
G01X8332531Y6867186D01*
G01X8333895Y6863095D01*
G01X8334577Y6860823D01*
G01X8335940Y6856732D01*
G01X8336622Y6854459D01*
G01X8337304Y6852414D01*
G01X8337986Y6850595D01*
G01X8338440Y6848777D01*
G01X8339122Y6846959D01*
G01X8339804Y6844686D01*
G01X8341168Y6840595D01*
G01X8341622Y6838777D01*
G01X8342304Y6836959D01*
G01X8342531Y6835141D01*
G01X8341622Y6833550D01*
G01X8339349Y6830368D01*
G01X8337986Y6828323D01*
G01X8335258Y6823777D01*
G01X8333213Y6819686D01*
G01X8332531Y6818095D01*
G01X8331622Y6816050D01*
G01X8330940Y6814004D01*
G01X8330031Y6810368D01*
G01X8329804Y6808777D01*
G01X8329349Y6806505D01*
G01X8329122Y6800368D01*
G01X8329577Y6794914D01*
G01X8330258Y6793095D01*
G01X8331395Y6791050D01*
G01X8333440Y6789459D01*
G01X8335713Y6788550D01*
G01X8340940Y6788095D01*
G01X8345940Y6788550D01*
G01X8348213Y6789004D01*
G01X8349236Y6788777D01*
G01X8349577Y6788095D01*
G01X8349122Y6786505D01*
G01X8348440Y6784232D01*
G01X8347986Y6781959D01*
G01X8347531Y6780141D01*
G01X8346849Y6778095D01*
G01X8346224Y6777357D01*
G01X8345259Y6776959D01*
G01X8342531Y6776505D01*
G01X8338213Y6776277D01*
G01X8334804Y6776505D01*
G01X8332986Y6776959D01*
G01X8330940Y6777414D01*
G01X8329349Y6777868D01*
G01X8327531Y6778550D01*
G01X8325713Y6779459D01*
G01X8324349Y6780368D01*
G01X8322077Y6782641D01*
G01X8320940Y6784004D01*
G01X8319804Y6785823D01*
G01X8318895Y6787868D01*
G01X8318440Y6789686D01*
G01X8317759Y6791732D01*
G01X8317304Y6794686D01*
G01X8317077Y6796959D01*
G01X8316849Y6799459D01*
G01X8317077Y6801959D01*
G01X8317531Y6807868D01*
G01X8317986Y6810141D01*
G01X8318668Y6812868D01*
G01X8319122Y6814913D01*
G01X8319577Y6816277D01*
G01X8320258Y6817868D01*
G01X8320940Y6819686D01*
G01X8322304Y6822868D01*
G01X8324122Y6826505D01*
G01X8325031Y6828095D01*
G01X8326167Y6829913D01*
G01X8328895Y6834004D01*
G01X8330031Y6835823D01*
G01X8330713Y6837414D01*
G01X8330713Y6839004D01*
G01X8330031Y6840823D01*
G01X8324577Y6857186D01*
G01X8323895Y6859005D01*
G01X8323440Y6860595D01*
G01X8322758Y6862414D01*
G01X8321849Y6865141D01*
G01X8321167Y6867413D01*
G01X8320486Y6869232D01*
G01X8318668Y6874232D01*
G01X8317986Y6876277D01*
G01X8317531Y6877868D01*
G01X8317304Y6883323D01*
G01X8317304Y6888095D01*
G01X8361849Y6888095D01*
G01X8361849Y6819232D01*
G37*
G36*
G01X8489122Y6788323D02*
G01X8488667Y6751959D01*
G01X8483440Y6751732D01*
G01X8479690Y6751902D01*
G01X8477986Y6752413D01*
G01X8477474Y6756902D01*
G01X8477304Y6769004D01*
G01X8477304Y6784914D01*
G01X8475258Y6784686D01*
G01X8439349Y6784459D01*
G01X8405031Y6784686D01*
G01X8404577Y6784573D01*
G01X8404122Y6783777D01*
G01X8403667Y6778550D01*
G01X8403895Y6773777D01*
G01X8404349Y6771277D01*
G01X8405486Y6768323D01*
G01X8407531Y6766504D01*
G01X8409804Y6765368D01*
G01X8418440Y6764914D01*
G01X8426622Y6765141D01*
G01X8431622Y6765595D01*
G01X8433440Y6765823D01*
G01X8435031Y6765141D01*
G01X8435258Y6762868D01*
G01X8434804Y6760141D01*
G01X8434349Y6758323D01*
G01X8434122Y6756504D01*
G01X8433668Y6754686D01*
G01X8432077Y6753777D01*
G01X8420031Y6753550D01*
G01X8408440Y6753777D01*
G01X8405940Y6754005D01*
G01X8403213Y6754459D01*
G01X8401622Y6755141D01*
G01X8399804Y6756050D01*
G01X8397986Y6757186D01*
G01X8395713Y6759459D01*
G01X8394804Y6760823D01*
G01X8393440Y6763550D01*
G01X8392986Y6765141D01*
G01X8392077Y6769686D01*
G01X8391889Y6802868D01*
G01X8403667Y6802868D01*
G01X8403667Y6795823D01*
G01X8404804Y6795596D01*
G01X8441395Y6795368D01*
G01X8441395Y6795368D01*
G01X8477077Y6795596D01*
G01X8477304Y6804004D01*
G01X8477304Y6812186D01*
G01X8404122Y6812186D01*
G01X8403895Y6811050D01*
G01X8403667Y6802868D01*
G01X8391889Y6802868D01*
G01X8391849Y6809913D01*
G01X8391970Y6831050D01*
G01X8403667Y6831050D01*
G01X8403838Y6825595D01*
G01X8404349Y6823323D01*
G01X8405145Y6822868D01*
G01X8406168Y6822868D01*
G01X8441622Y6823095D01*
G01X8476395Y6822868D01*
G01X8476395Y6822868D01*
G01X8477077Y6822868D01*
G01X8477304Y6831277D01*
G01X8477304Y6839459D01*
G01X8476167Y6839686D01*
G01X8439804Y6839914D01*
G01X8413270Y6839686D01*
G01X8404122Y6839004D01*
G01X8403667Y6831050D01*
G01X8391970Y6831050D01*
G01X8392020Y6839686D01*
G01X8392531Y6849914D01*
G01X8432304Y6850368D01*
G01X8471395Y6850368D01*
G01X8471167Y6851732D01*
G01X8470486Y6853550D01*
G01X8469349Y6855141D01*
G01X8467077Y6858777D01*
G01X8463668Y6864914D01*
G01X8462304Y6866504D01*
G01X8450770Y6867016D01*
G01X8417986Y6867186D01*
G01X8374577Y6867186D01*
G01X8374349Y6868323D01*
G01X8374122Y6873550D01*
G01X8374122Y6877641D01*
G01X8375259Y6877868D01*
G01X8416395Y6878095D01*
G01X8456395Y6878095D01*
G01X8456395Y6879232D01*
G01X8455940Y6881050D01*
G01X8455031Y6883095D01*
G01X8451395Y6892186D01*
G01X8451224Y6893323D01*
G01X8451622Y6894005D01*
G01X8454122Y6894686D01*
G01X8456849Y6895368D01*
G01X8458895Y6895823D01*
G01X8460713Y6896050D01*
G01X8462304Y6896277D01*
G01X8463042Y6895936D01*
G01X8463440Y6894914D01*
G01X8464122Y6892868D01*
G01X8464804Y6891277D01*
G01X8465258Y6889686D01*
G01X8466622Y6886050D01*
G01X8467304Y6884459D01*
G01X8468213Y6882186D01*
G01X8469349Y6879686D01*
G01X8470713Y6878323D01*
G01X8493440Y6878095D01*
G01X8515486Y6878095D01*
G01X8515713Y6876504D01*
G01X8515940Y6871504D01*
G01X8515770Y6868834D01*
G01X8515258Y6867641D01*
G01X8495486Y6867186D01*
G01X8481168Y6866959D01*
G01X8476395Y6866277D01*
G01X8476849Y6864686D01*
G01X8478668Y6861504D01*
G01X8479804Y6859686D01*
G01X8481168Y6857641D01*
G01X8482304Y6855823D01*
G01X8485031Y6851732D01*
G01X8485940Y6850595D01*
G01X8487304Y6848777D01*
G01X8488895Y6846504D01*
G01X8490258Y6844914D01*
G01X8491168Y6843777D01*
G01X8491849Y6842641D01*
G01X8492758Y6841504D01*
G01X8493895Y6840368D01*
G01X8496168Y6837641D01*
G01X8498895Y6834459D01*
G01X8504804Y6828550D01*
G01X8506168Y6826959D01*
G01X8507986Y6825368D01*
G01X8512986Y6820368D01*
G01X8515258Y6818550D01*
G01X8517304Y6816505D01*
G01X8518667Y6815368D01*
G01X8519236Y6814516D01*
G01X8519122Y6813777D01*
G01X8517986Y6811959D01*
G01X8513895Y6805823D01*
G01X8512986Y6804686D01*
G01X8512077Y6804686D01*
G01X8510940Y6805595D01*
G01X8503667Y6812868D01*
G01X8501395Y6814686D01*
G01X8499122Y6816959D01*
G01X8497304Y6819232D01*
G01X8493895Y6822641D01*
G01X8492531Y6824232D01*
G01X8490940Y6825823D01*
G01X8490145Y6825936D01*
G01X8489577Y6825368D01*
G01X8489122Y6788323D01*
G37*
G36*
G01X8618895Y6751732D02*
G01X8617986Y6750595D01*
G01X8617077Y6750595D01*
G01X8615713Y6751050D01*
G01X8614122Y6751732D01*
G01X8610031Y6753550D01*
G01X8608213Y6754232D01*
G01X8606167Y6755141D01*
G01X8592986Y6761732D01*
G01X8591395Y6762641D01*
G01X8589804Y6763777D01*
G01X8587758Y6764914D01*
G01X8585940Y6766050D01*
G01X8583895Y6767186D01*
G01X8582304Y6768095D01*
G01X8579122Y6770368D01*
G01X8577986Y6771277D01*
G01X8573895Y6774004D01*
G01X8572304Y6774232D01*
G01X8570940Y6773550D01*
G01X8569804Y6772641D01*
G01X8566167Y6769914D01*
G01X8565031Y6769004D01*
G01X8563440Y6767868D01*
G01X8557986Y6764459D01*
G01X8556622Y6763550D01*
G01X8554804Y6762414D01*
G01X8552531Y6761050D01*
G01X8548440Y6759005D01*
G01X8546849Y6758095D01*
G01X8543213Y6756277D01*
G01X8541168Y6755368D01*
G01X8539349Y6754459D01*
G01X8537758Y6753777D01*
G01X8533667Y6751959D01*
G01X8532304Y6751959D01*
G01X8530258Y6754005D01*
G01X8529349Y6755141D01*
G01X8528213Y6756959D01*
G01X8526622Y6758550D01*
G01X8523895Y6761732D01*
G01X8523611Y6762243D01*
G01X8524122Y6762868D01*
G01X8526395Y6763777D01*
G01X8533213Y6765823D01*
G01X8536849Y6767186D01*
G01X8540940Y6769004D01*
G01X8543213Y6769914D01*
G01X8545258Y6770823D01*
G01X8547077Y6771732D01*
G01X8551167Y6774004D01*
G01X8552758Y6774914D01*
G01X8553895Y6775595D01*
G01X8555486Y6776505D01*
G01X8559577Y6779232D01*
G01X8561167Y6780368D01*
G01X8562531Y6781505D01*
G01X8562986Y6782243D01*
G01X8562986Y6783095D01*
G01X8562304Y6784232D01*
G01X8561167Y6785141D01*
G01X8559577Y6786959D01*
G01X8557986Y6788550D01*
G01X8555258Y6791732D01*
G01X8554122Y6793095D01*
G01X8553213Y6794459D01*
G01X8552304Y6795596D01*
G01X8550940Y6797414D01*
G01X8547758Y6802186D01*
G01X8546622Y6804004D01*
G01X8545486Y6806050D01*
G01X8543667Y6809232D01*
G01X8540031Y6816505D01*
G01X8537304Y6822641D01*
G01X8536395Y6824913D01*
G01X8535486Y6827414D01*
G01X8535008Y6829004D01*
G01X8547758Y6829004D01*
G01X8547986Y6827414D01*
G01X8548667Y6825368D01*
G01X8549349Y6824004D01*
G01X8549804Y6822414D01*
G01X8551167Y6819232D01*
G01X8554122Y6813323D01*
G01X8555258Y6811505D01*
G01X8556395Y6809232D01*
G01X8557531Y6807641D01*
G01X8558440Y6806505D01*
G01X8559349Y6804913D01*
G01X8560486Y6803323D01*
G01X8561849Y6801505D01*
G01X8563440Y6799232D01*
G01X8564804Y6797641D01*
G01X8565940Y6796505D01*
G01X8566849Y6795368D01*
G01X8568213Y6793777D01*
G01X8570940Y6791050D01*
G01X8571452Y6790596D01*
G01X8571452Y6790596D01*
G01X8572077Y6790596D01*
G01X8573440Y6791277D01*
G01X8575258Y6793550D01*
G01X8578668Y6797641D01*
G01X8579577Y6799004D01*
G01X8581395Y6802186D01*
G01X8582531Y6803777D01*
G01X8583895Y6805823D01*
G01X8585031Y6807641D01*
G01X8587758Y6813095D01*
G01X8588668Y6815141D01*
G01X8589577Y6816959D01*
G01X8590258Y6818550D01*
G01X8590940Y6820368D01*
G01X8592304Y6824459D01*
G01X8592986Y6826277D01*
G01X8593440Y6827868D01*
G01X8593440Y6828436D01*
G01X8592986Y6828777D01*
G01X8570031Y6829004D01*
G01X8547758Y6829004D01*
G01X8535008Y6829004D01*
G01X8534804Y6829686D01*
G01X8534576Y6834686D01*
G01X8534804Y6837584D01*
G01X8535486Y6838550D01*
G01X8537077Y6838777D01*
G01X8550940Y6839004D01*
G01X8564804Y6838777D01*
G01X8565315Y6841391D01*
G01X8565486Y6849686D01*
G01X8565486Y6860823D01*
G01X8564349Y6861050D01*
G01X8544577Y6861277D01*
G01X8530599Y6861504D01*
G01X8525940Y6862186D01*
G01X8525713Y6863777D01*
G01X8525486Y6867186D01*
G01X8525713Y6870595D01*
G01X8526622Y6871732D01*
G01X8545940Y6872186D01*
G01X8565031Y6871959D01*
G01X8565372Y6874686D01*
G01X8565486Y6883323D01*
G01X8565486Y6894914D01*
G01X8566622Y6895141D01*
G01X8572531Y6895368D01*
G01X8577304Y6895368D01*
G01X8577304Y6872641D01*
G01X8578440Y6872413D01*
G01X8597076Y6872186D01*
G01X8610372Y6872016D01*
G01X8615258Y6871504D01*
G01X8615770Y6869857D01*
G01X8615940Y6866277D01*
G01X8615940Y6861732D01*
G01X8614804Y6861504D01*
G01X8595940Y6861277D01*
G01X8582531Y6861050D01*
G01X8577758Y6860368D01*
G01X8577304Y6849459D01*
G01X8577531Y6841845D01*
G01X8578213Y6839004D01*
G01X8580258Y6838777D01*
G01X8597304Y6839004D01*
G01X8613895Y6838777D01*
G01X8614804Y6837868D01*
G01X8615031Y6833323D01*
G01X8615031Y6829459D01*
G01X8613895Y6829232D01*
G01X8608895Y6829004D01*
G01X8605997Y6828777D01*
G01X8605031Y6828095D01*
G01X8604577Y6826277D01*
G01X8603895Y6824232D01*
G01X8603440Y6822414D01*
G01X8602758Y6820595D01*
G01X8600940Y6815595D01*
G01X8600031Y6813550D01*
G01X8599349Y6811732D01*
G01X8598668Y6810141D01*
G01X8594122Y6801050D01*
G01X8592986Y6799004D01*
G01X8590713Y6795368D01*
G01X8587986Y6791277D01*
G01X8586849Y6789686D01*
G01X8582304Y6784004D01*
G01X8581622Y6782868D01*
G01X8581679Y6782243D01*
G01X8582304Y6781732D01*
G01X8584122Y6780595D01*
G01X8590258Y6776505D01*
G01X8594349Y6774232D01*
G01X8596622Y6773095D01*
G01X8599804Y6771277D01*
G01X8603440Y6769459D01*
G01X8605713Y6768550D01*
G01X8607531Y6767641D01*
G01X8613895Y6764914D01*
G01X8615713Y6764232D01*
G01X8619804Y6762868D01*
G01X8623440Y6761504D01*
G01X8624804Y6760823D01*
G01X8624804Y6759686D01*
G01X8621167Y6755141D01*
G01X8620258Y6753550D01*
G01X8618895Y6751732D01*
G37*
G36*
G01X8665713Y6754914D02*
G01X8665258Y6753323D01*
G01X8657986Y6753095D01*
G01X8650258Y6753323D01*
G01X8647986Y6753777D01*
G01X8645258Y6754459D01*
G01X8642986Y6755595D01*
G01X8641395Y6756732D01*
G01X8640031Y6758323D01*
G01X8638667Y6760368D01*
G01X8637986Y6761959D01*
G01X8637304Y6764005D01*
G01X8636849Y6790823D01*
G01X8636679Y6809970D01*
G01X8636168Y6816505D01*
G01X8634804Y6816959D01*
G01X8631622Y6817868D01*
G01X8630031Y6818550D01*
G01X8627986Y6819232D01*
G01X8626167Y6819686D01*
G01X8624349Y6820368D01*
G01X8622304Y6821050D01*
G01X8620713Y6821959D01*
G01X8620202Y6823436D01*
G01X8620031Y6826505D01*
G01X8620258Y6831050D01*
G01X8620713Y6832186D01*
G01X8621849Y6832641D01*
G01X8623667Y6832186D01*
G01X8627758Y6830823D01*
G01X8632304Y6829459D01*
G01X8634804Y6828777D01*
G01X8636054Y6828777D01*
G01X8636622Y6829232D01*
G01X8636849Y6842868D01*
G01X8636849Y6855823D01*
G01X8620031Y6855823D01*
G01X8619804Y6856959D01*
G01X8619577Y6861959D01*
G01X8619577Y6865823D01*
G01X8620713Y6866050D01*
G01X8629122Y6866277D01*
G01X8636395Y6866277D01*
G01X8636622Y6867413D01*
G01X8636849Y6881504D01*
G01X8636849Y6894459D01*
G01X8647758Y6894459D01*
G01X8647986Y6893323D01*
G01X8648213Y6879459D01*
G01X8648213Y6866732D01*
G01X8649349Y6866504D01*
G01X8658895Y6866277D01*
G01X8667304Y6866277D01*
G01X8667531Y6864232D01*
G01X8667758Y6859459D01*
G01X8667531Y6857300D01*
G01X8666849Y6856277D01*
G01X8657077Y6855823D01*
G01X8648213Y6855823D01*
G01X8648213Y6824459D01*
G01X8649576Y6824004D01*
G01X8652077Y6823323D01*
G01X8653895Y6822868D01*
G01X8655940Y6822186D01*
G01X8658440Y6821505D01*
G01X8660258Y6821050D01*
G01X8662304Y6820368D01*
G01X8664804Y6819686D01*
G01X8666622Y6819232D01*
G01X8668213Y6818777D01*
G01X8668895Y6817982D01*
G01X8669122Y6816050D01*
G01X8668895Y6812868D01*
G01X8668440Y6808323D01*
G01X8667986Y6806959D01*
G01X8667531Y6806505D01*
G01X8666622Y6806505D01*
G01X8664804Y6806959D01*
G01X8662986Y6807641D01*
G01X8660940Y6808323D01*
G01X8659349Y6808777D01*
G01X8657531Y6809459D01*
G01X8655486Y6810141D01*
G01X8653895Y6810595D01*
G01X8652077Y6811277D01*
G01X8649576Y6811959D01*
G01X8648213Y6812186D01*
G01X8648213Y6791277D01*
G01X8648440Y6769686D01*
G01X8648895Y6768095D01*
G01X8650258Y6766504D01*
G01X8652986Y6765595D01*
G01X8657304Y6765368D01*
G01X8660713Y6765595D01*
G01X8664349Y6765823D01*
G01X8666565Y6765595D01*
G01X8667304Y6764914D01*
G01X8666168Y6756959D01*
G01X8665713Y6754914D01*
G37*
G36*
G01X8709122Y6772414D02*
G01X8708895Y6751504D01*
G01X8703440Y6751277D01*
G01X8698213Y6751277D01*
G01X8697986Y6752413D01*
G01X8697758Y6774004D01*
G01X8697758Y6794459D01*
G01X8696622Y6794686D01*
G01X8693895Y6795141D01*
G01X8690031Y6795368D01*
G01X8687077Y6795596D01*
G01X8684349Y6796050D01*
G01X8680258Y6796277D01*
G01X8677531Y6796505D01*
G01X8675486Y6796959D01*
G01X8674406Y6797414D01*
G01X8673895Y6798323D01*
G01X8673667Y6800368D01*
G01X8673895Y6801959D01*
G01X8674349Y6804686D01*
G01X8675031Y6807186D01*
G01X8676849Y6807641D01*
G01X8678895Y6807414D01*
G01X8684349Y6806959D01*
G01X8687986Y6806505D01*
G01X8694349Y6806050D01*
G01X8696395Y6805823D01*
G01X8697758Y6805823D01*
G01X8697758Y6894459D01*
G01X8698895Y6894686D01*
G01X8704349Y6894914D01*
G01X8708668Y6894914D01*
G01X8708895Y6893777D01*
G01X8709122Y6848550D01*
G01X8709122Y6804459D01*
G01X8710713Y6804459D01*
G01X8712986Y6804232D01*
G01X8716167Y6803777D01*
G01X8723440Y6803323D01*
G01X8726167Y6802868D01*
G01X8730713Y6802641D01*
G01X8733895Y6802414D01*
G01X8736167Y6801959D01*
G01X8740486Y6801732D01*
G01X8743895Y6801505D01*
G01X8746167Y6801050D01*
G01X8750486Y6800823D01*
G01X8753895Y6800595D01*
G01X8756622Y6800141D01*
G01X8760940Y6799914D01*
G01X8763895Y6799686D01*
G01X8765486Y6799232D01*
G01X8766167Y6798436D01*
G01X8766395Y6796505D01*
G01X8766167Y6793323D01*
G01X8765713Y6791050D01*
G01X8765372Y6789800D01*
G01X8764804Y6789232D01*
G01X8760713Y6789004D01*
G01X8756622Y6789232D01*
G01X8754349Y6789686D01*
G01X8750031Y6789914D01*
G01X8746622Y6790141D01*
G01X8743895Y6790596D01*
G01X8739577Y6790823D01*
G01X8736622Y6791050D01*
G01X8733440Y6791505D01*
G01X8725713Y6791959D01*
G01X8723440Y6792414D01*
G01X8719122Y6792641D01*
G01X8715713Y6792868D01*
G01X8712986Y6793323D01*
G01X8710031Y6793323D01*
G01X8709349Y6787982D01*
G01X8709122Y6772414D01*
G37*
G36*
G01X8731849Y6856959D02*
G01X8724122Y6849232D01*
G01X8722986Y6849686D01*
G01X8721849Y6851050D01*
G01X8719577Y6853323D01*
G01X8718213Y6855141D01*
G01X8716849Y6856732D01*
G01X8716395Y6857641D01*
G01X8717076Y6858550D01*
G01X8718895Y6859914D01*
G01X8721622Y6862641D01*
G01X8723440Y6864005D01*
G01X8725713Y6865823D01*
G01X8727304Y6867413D01*
G01X8741508Y6878777D01*
G01X8742304Y6878777D01*
G01X8743667Y6877868D01*
G01X8744804Y6876732D01*
G01X8747531Y6873550D01*
G01X8748440Y6872641D01*
G01X8748440Y6871504D01*
G01X8747531Y6870595D01*
G01X8746395Y6869686D01*
G01X8743213Y6866959D01*
G01X8740940Y6865141D01*
G01X8739804Y6864005D01*
G01X8737531Y6862186D01*
G01X8734122Y6858777D01*
G01X8731849Y6856959D01*
G37*
G36*
G01X8740258Y6821732D02*
G01X8734122Y6815595D01*
G01X8733611Y6815141D01*
G01X8732986Y6815141D01*
G01X8731622Y6816505D01*
G01X8727531Y6821277D01*
G01X8726395Y6822868D01*
G01X8726224Y6823834D01*
G01X8726622Y6824459D01*
G01X8727758Y6825595D01*
G01X8730486Y6827868D01*
G01X8732758Y6829686D01*
G01X8734122Y6831050D01*
G01X8736167Y6832641D01*
G01X8747531Y6841732D01*
G01X8749577Y6843323D01*
G01X8750429Y6843720D01*
G01X8751167Y6843550D01*
G01X8755713Y6839004D01*
G01X8756849Y6837641D01*
G01X8756849Y6836277D01*
G01X8755713Y6835368D01*
G01X8753440Y6833095D01*
G01X8751622Y6831732D01*
G01X8750031Y6830141D01*
G01X8747758Y6828323D01*
G01X8746622Y6827186D01*
G01X8744349Y6825368D01*
G01X8742076Y6823095D01*
G01X8740258Y6821732D01*
G37*
G36*
G01X8793440Y6815141D02*
G01X8793213Y6782868D01*
G01X8793213Y6751277D01*
G01X8782758Y6751277D01*
G01X8782531Y6752413D01*
G01X8782304Y6787641D01*
G01X8782304Y6821732D01*
G01X8781395Y6821505D01*
G01X8780031Y6820595D01*
G01X8768440Y6809004D01*
G01X8766849Y6806959D01*
G01X8765031Y6805368D01*
G01X8764236Y6805198D01*
G01X8763667Y6805595D01*
G01X8762531Y6806959D01*
G01X8757076Y6812414D01*
G01X8756736Y6813038D01*
G01X8757076Y6813550D01*
G01X8761395Y6817868D01*
G01X8762531Y6818777D01*
G01X8763895Y6819913D01*
G01X8767304Y6823323D01*
G01X8769576Y6825141D01*
G01X8770713Y6826277D01*
G01X8772986Y6828095D01*
G01X8774122Y6829232D01*
G01X8775258Y6830141D01*
G01X8776849Y6829913D01*
G01X8778213Y6828777D01*
G01X8779349Y6827641D01*
G01X8780713Y6826732D01*
G01X8781849Y6826505D01*
G01X8782304Y6833777D01*
G01X8782304Y6840823D01*
G01X8781168Y6841050D01*
G01X8769804Y6841277D01*
G01X8759577Y6841277D01*
G01X8759349Y6842414D01*
G01X8759122Y6847641D01*
G01X8759122Y6851732D01*
G01X8760713Y6851959D01*
G01X8772304Y6852186D01*
G01X8782304Y6852186D01*
G01X8782304Y6863323D01*
G01X8782077Y6871675D01*
G01X8781395Y6874459D01*
G01X8779804Y6874686D01*
G01X8777531Y6875141D01*
G01X8774576Y6875368D01*
G01X8772531Y6875595D01*
G01X8770713Y6876050D01*
G01X8767758Y6876277D01*
G01X8765258Y6876504D01*
G01X8762986Y6876959D01*
G01X8760031Y6877186D01*
G01X8757986Y6877868D01*
G01X8757588Y6878607D01*
G01X8757758Y6879459D01*
G01X8758440Y6881277D01*
G01X8758895Y6882868D01*
G01X8760258Y6886504D01*
G01X8761167Y6887868D01*
G01X8762758Y6888550D01*
G01X8770713Y6887413D01*
G01X8774804Y6886959D01*
G01X8777531Y6886504D01*
G01X8781168Y6886050D01*
G01X8783895Y6885595D01*
G01X8786849Y6885368D01*
G01X8789349Y6885141D01*
G01X8792077Y6884686D01*
G01X8795940Y6884459D01*
G01X8798440Y6884232D01*
G01X8801167Y6883777D01*
G01X8805258Y6883550D01*
G01X8807986Y6883323D01*
G01X8810258Y6882868D01*
G01X8813895Y6882641D01*
G01X8816622Y6882186D01*
G01X8817077Y6881504D01*
G01X8817077Y6880368D01*
G01X8816395Y6878095D01*
G01X8815713Y6875595D01*
G01X8815258Y6873323D01*
G01X8814576Y6871959D01*
G01X8813895Y6871448D01*
G01X8812758Y6871277D01*
G01X8810713Y6871504D01*
G01X8802986Y6871959D01*
G01X8800713Y6872413D01*
G01X8796168Y6872641D01*
G01X8793213Y6872641D01*
G01X8793213Y6852186D01*
G01X8804804Y6852186D01*
G01X8813667Y6851959D01*
G01X8817077Y6851277D01*
G01X8817588Y6849629D01*
G01X8817758Y6846504D01*
G01X8817304Y6841959D01*
G01X8814179Y6841448D01*
G01X8805713Y6841277D01*
G01X8794576Y6841277D01*
G01X8794804Y6839914D01*
G01X8795486Y6837868D01*
G01X8796168Y6836050D01*
G01X8796622Y6834232D01*
G01X8797304Y6832414D01*
G01X8798213Y6830141D01*
G01X8798895Y6828095D01*
G01X8802531Y6819913D01*
G01X8803213Y6818323D01*
G01X8805940Y6812868D01*
G01X8808213Y6808777D01*
G01X8810031Y6805595D01*
G01X8810940Y6803777D01*
G01X8812077Y6801959D01*
G01X8814349Y6798777D01*
G01X8815713Y6796732D01*
G01X8817986Y6793550D01*
G01X8818895Y6791959D01*
G01X8818895Y6790368D01*
G01X8818213Y6788550D01*
G01X8817304Y6786505D01*
G01X8816395Y6784686D01*
G01X8815485Y6782641D01*
G01X8814349Y6780595D01*
G01X8813667Y6780198D01*
G01X8812986Y6780368D01*
G01X8812077Y6781505D01*
G01X8811167Y6783095D01*
G01X8807077Y6789232D01*
G01X8805940Y6791277D01*
G01X8804804Y6793095D01*
G01X8802077Y6797868D01*
G01X8801167Y6799686D01*
G01X8800258Y6801732D01*
G01X8799576Y6803323D01*
G01X8797758Y6806959D01*
G01X8796849Y6809004D01*
G01X8795940Y6811277D01*
G01X8795031Y6813323D01*
G01X8794122Y6815141D01*
G01X8793724Y6815482D01*
G01X8793440Y6815141D01*
G37*
G36*
G01X8967304Y6809459D02*
G01X8966849Y6805141D01*
G01X8896167Y6804913D01*
G01X8843383Y6805084D01*
G01X8825485Y6805595D01*
G01X8825031Y6810368D01*
G01X8825031Y6814459D01*
G01X8826622Y6814686D01*
G01X8897304Y6814913D01*
G01X8949236Y6814743D01*
G01X8966849Y6814232D01*
G01X8967304Y6809459D01*
G37*
G36*
G01X8953952Y6869686D02*
G01X8954122Y6848095D01*
G01X8954122Y6819459D01*
G01X8943667Y6819459D01*
G01X8943440Y6820595D01*
G01X8943213Y6822868D01*
G01X8942929Y6823777D01*
G01X8942077Y6824232D01*
G01X8895258Y6824459D01*
G01X8849577Y6824459D01*
G01X8849349Y6823323D01*
G01X8849122Y6821050D01*
G01X8848838Y6820141D01*
G01X8847986Y6819686D01*
G01X8842531Y6819459D01*
G01X8838213Y6819459D01*
G01X8837986Y6821505D01*
G01X8837786Y6846277D01*
G01X8849122Y6846277D01*
G01X8849122Y6834459D01*
G01X8850258Y6834232D01*
G01X8870713Y6834004D01*
G01X8870713Y6834004D01*
G01X8890258Y6834232D01*
G01X8890486Y6839686D01*
G01X8890713Y6845368D01*
G01X8890599Y6845766D01*
G01X8889804Y6846050D01*
G01X8868895Y6846277D01*
G01X8901849Y6846277D01*
G01X8901849Y6834004D01*
G01X8922304Y6834004D01*
G01X8922304Y6834004D01*
G01X8942986Y6834232D01*
G01X8943213Y6840368D01*
G01X8943213Y6846277D01*
G01X8901849Y6846277D01*
G01X8868895Y6846277D01*
G01X8849122Y6846277D01*
G01X8837786Y6846277D01*
G01X8837758Y6849686D01*
G01X8838063Y6867641D01*
G01X8849122Y6867641D01*
G01X8849122Y6855823D01*
G01X8869577Y6855823D01*
G01X8869577Y6855823D01*
G01X8890258Y6856050D01*
G01X8890713Y6856732D01*
G01X8890713Y6857868D01*
G01X8890486Y6862641D01*
G01X8890713Y6867186D01*
G01X8885656Y6867527D01*
G01X8870031Y6867641D01*
G01X8901849Y6867641D01*
G01X8901849Y6855823D01*
G01X8922304Y6855823D01*
G01X8922304Y6855823D01*
G01X8942986Y6856050D01*
G01X8943213Y6861959D01*
G01X8943213Y6867641D01*
G01X8901849Y6867641D01*
G01X8870031Y6867641D01*
G01X8849122Y6867641D01*
G01X8838063Y6867641D01*
G01X8838213Y6876504D01*
G01X8840258Y6877413D01*
G01X8854804Y6877641D01*
G01X8868440Y6877413D01*
G01X8869577Y6877641D01*
G01X8869690Y6878266D01*
G01X8869122Y6879232D01*
G01X8861849Y6886504D01*
G01X8860486Y6888323D01*
G01X8859577Y6889914D01*
G01X8860713Y6890823D01*
G01X8862531Y6891732D01*
G01X8864122Y6892641D01*
G01X8866167Y6893777D01*
G01X8868440Y6894914D01*
G01X8870031Y6895595D01*
G01X8870940Y6894914D01*
G01X8872304Y6892868D01*
G01X8873667Y6891050D01*
G01X8874804Y6889459D01*
G01X8876167Y6887413D01*
G01X8877531Y6885823D01*
G01X8878440Y6884686D01*
G01X8879577Y6882868D01*
G01X8881395Y6880595D01*
G01X8883213Y6878550D01*
G01X8887304Y6877868D01*
G01X8897758Y6877641D01*
G01X8912076Y6877413D01*
G01X8913213Y6877641D01*
G01X8913327Y6878152D01*
G01X8912758Y6878777D01*
G01X8910713Y6880141D01*
G01X8909349Y6881504D01*
G01X8909349Y6882129D01*
G01X8909804Y6882641D01*
G01X8910940Y6883777D01*
G01X8912304Y6885595D01*
G01X8916167Y6889459D01*
G01X8918895Y6892641D01*
G01X8921167Y6894914D01*
G01X8922304Y6895823D01*
G01X8923213Y6895823D01*
G01X8924804Y6894686D01*
G01X8926849Y6893323D01*
G01X8928667Y6892186D01*
G01X8930258Y6891050D01*
G01X8930599Y6890254D01*
G01X8930258Y6889232D01*
G01X8928895Y6887641D01*
G01X8927077Y6885368D01*
G01X8924349Y6882186D01*
G01X8922531Y6879914D01*
G01X8921622Y6878550D01*
G01X8921679Y6877811D01*
G01X8922304Y6877413D01*
G01X8923895Y6877413D01*
G01X8938667Y6877641D01*
G01X8953440Y6877186D01*
G01X8953952Y6869686D01*
G37*
G36*
G01X8945940Y6772868D02*
G01X8945485Y6751504D01*
G01X8940258Y6751277D01*
G01X8936565Y6751448D01*
G01X8935031Y6751959D01*
G01X8934576Y6755595D01*
G01X8934576Y6758550D01*
G01X8856395Y6758550D01*
G01X8856167Y6757413D01*
G01X8855940Y6754005D01*
G01X8855940Y6751732D01*
G01X8854804Y6751504D01*
G01X8849577Y6751277D01*
G01X8845486Y6751277D01*
G01X8845258Y6752413D01*
G01X8845031Y6774232D01*
G01X8845031Y6776277D01*
G01X8855940Y6776277D01*
G01X8856110Y6770709D01*
G01X8856622Y6768550D01*
G01X8895713Y6768095D01*
G01X8895713Y6768095D01*
G01X8934349Y6768323D01*
G01X8934576Y6777186D01*
G01X8934576Y6785823D01*
G01X8856395Y6785823D01*
G01X8856167Y6784686D01*
G01X8855940Y6776277D01*
G01X8845031Y6776277D01*
G01X8845031Y6794914D01*
G01X8846622Y6795141D01*
G01X8896622Y6795368D01*
G01X8933042Y6795198D01*
G01X8945485Y6794686D01*
G01X8945940Y6772868D01*
G37*
G36*
G01X9071167Y6752868D02*
G01X9070258Y6751732D01*
G01X9069349Y6751732D01*
G01X9067986Y6753323D01*
G01X9065258Y6757413D01*
G01X9064122Y6759232D01*
G01X9063213Y6760823D01*
G01X9062076Y6762868D01*
G01X9059122Y6768777D01*
G01X9057304Y6772868D01*
G01X9056622Y6774686D01*
G01X9056167Y6776050D01*
G01X9055486Y6777868D01*
G01X9054576Y6780368D01*
G01X9053895Y6782641D01*
G01X9052531Y6787414D01*
G01X9050713Y6795596D01*
G01X9050258Y6799232D01*
G01X9049804Y6801050D01*
G01X9049576Y6803550D01*
G01X9049349Y6805595D01*
G01X9048895Y6808323D01*
G01X9048667Y6812641D01*
G01X9048667Y6814913D01*
G01X8992304Y6814913D01*
G01X8992304Y6811732D01*
G01X8992076Y6809232D01*
G01X8991395Y6808095D01*
G01X8986167Y6807641D01*
G01X8982758Y6807868D01*
G01X8981167Y6808550D01*
G01X8980656Y6817073D01*
G01X8980486Y6840823D01*
G01X8980509Y6844004D01*
G01X8992304Y6844004D01*
G01X8992304Y6825368D01*
G01X8994349Y6825595D01*
G01X9021395Y6825823D01*
G01X9046849Y6825595D01*
G01X9046849Y6825595D01*
G01X9047531Y6825595D01*
G01X9047985Y6826505D01*
G01X9048213Y6844686D01*
G01X9047985Y6857868D01*
G01X9047304Y6862414D01*
G01X9045713Y6862414D01*
G01X9019349Y6862186D01*
G01X8992986Y6862414D01*
G01X8992474Y6857925D01*
G01X8992304Y6844004D01*
G01X8980509Y6844004D01*
G01X8980656Y6864459D01*
G01X8981167Y6872641D01*
G01X9000713Y6873095D01*
G01X9014804Y6873209D01*
G01X9019349Y6873550D01*
G01X9017985Y6874686D01*
G01X9013895Y6877413D01*
G01X9012076Y6878550D01*
G01X9011679Y6879118D01*
G01X9011849Y6879914D01*
G01X9012985Y6881732D01*
G01X9014122Y6883323D01*
G01X9016849Y6886959D01*
G01X9023213Y6894914D01*
G01X9024349Y6895595D01*
G01X9025713Y6895368D01*
G01X9027531Y6894232D01*
G01X9029804Y6892868D01*
G01X9031849Y6891504D01*
G01X9033213Y6890368D01*
G01X9033213Y6889005D01*
G01X9031849Y6886959D01*
G01X9030486Y6885141D01*
G01X9029576Y6883777D01*
G01X9027304Y6880595D01*
G01X9025486Y6877868D01*
G01X9024349Y6876277D01*
G01X9023213Y6874459D01*
G01X9023042Y6873720D01*
G01X9023440Y6873323D01*
G01X9041849Y6873095D01*
G01X9059576Y6873095D01*
G01X9059576Y6848323D01*
G01X9059804Y6822868D01*
G01X9060258Y6814686D01*
G01X9060713Y6807868D01*
G01X9061622Y6801505D01*
G01X9062531Y6796050D01*
G01X9064349Y6788777D01*
G01X9065258Y6785595D01*
G01X9065940Y6783777D01*
G01X9066622Y6781732D01*
G01X9067304Y6779914D01*
G01X9070031Y6773777D01*
G01X9071167Y6771504D01*
G01X9073440Y6767414D01*
G01X9074576Y6765595D01*
G01X9076849Y6762414D01*
G01X9077758Y6761277D01*
G01X9078440Y6760368D01*
G01X9078213Y6759232D01*
G01X9077077Y6758095D01*
G01X9075258Y6756732D01*
G01X9073667Y6755368D01*
G01X9071167Y6752868D01*
G37*
G36*
G01X9115713Y6756959D02*
G01X9115031Y6755141D01*
G01X9114576Y6754005D01*
G01X9106394Y6754005D01*
G01X9097304Y6754459D01*
G01X9095485Y6754914D01*
G01X9094122Y6755368D01*
G01X9092531Y6756277D01*
G01X9090940Y6757413D01*
G01X9089804Y6758550D01*
G01X9088667Y6760141D01*
G01X9087758Y6761959D01*
G01X9087076Y6763777D01*
G01X9086622Y6765595D01*
G01X9086167Y6770141D01*
G01X9085940Y6793095D01*
G01X9085940Y6815368D01*
G01X9084349Y6815823D01*
G01X9082077Y6816505D01*
G01X9078895Y6817414D01*
G01X9076849Y6818095D01*
G01X9074576Y6818777D01*
G01X9069804Y6820141D01*
G01X9068440Y6820595D01*
G01X9067531Y6821959D01*
G01X9067304Y6827186D01*
G01X9067474Y6830368D01*
G01X9067986Y6831732D01*
G01X9070031Y6831959D01*
G01X9074576Y6830595D01*
G01X9076622Y6830141D01*
G01X9081395Y6828550D01*
G01X9084349Y6827868D01*
G01X9085940Y6827641D01*
G01X9085940Y6857641D01*
G01X9067758Y6857641D01*
G01X9067531Y6859232D01*
G01X9067304Y6864005D01*
G01X9067304Y6867186D01*
G01X9068440Y6867413D01*
G01X9077758Y6867641D01*
G01X9085940Y6867641D01*
G01X9085940Y6881050D01*
G01X9086111Y6891220D01*
G01X9086622Y6894914D01*
G01X9092304Y6895368D01*
G01X9097304Y6895368D01*
G01X9097304Y6881959D01*
G01X9097474Y6871789D01*
G01X9097986Y6868095D01*
G01X9107758Y6867641D01*
G01X9116849Y6867641D01*
G01X9117076Y6866504D01*
G01X9117304Y6861959D01*
G01X9117133Y6859289D01*
G01X9116622Y6858095D01*
G01X9107076Y6857641D01*
G01X9098213Y6857641D01*
G01X9097758Y6856504D01*
G01X9097304Y6839914D01*
G01X9097531Y6828209D01*
G01X9098213Y6824004D01*
G01X9100713Y6823095D01*
G01X9103895Y6822186D01*
G01X9106622Y6821505D01*
G01X9108895Y6820823D01*
G01X9111394Y6820141D01*
G01X9113440Y6819686D01*
G01X9115485Y6819004D01*
G01X9117758Y6818323D01*
G01X9118497Y6817868D01*
G01X9118895Y6816959D01*
G01X9118895Y6814686D01*
G01X9118667Y6811959D01*
G01X9118440Y6809686D01*
G01X9117986Y6807414D01*
G01X9117645Y6806164D01*
G01X9117076Y6805595D01*
G01X9115713Y6805823D01*
G01X9113895Y6806505D01*
G01X9101622Y6810595D01*
G01X9099804Y6811050D01*
G01X9098440Y6811050D01*
G01X9097531Y6809686D01*
G01X9097304Y6791277D01*
G01X9097531Y6773323D01*
G01X9097758Y6770823D01*
G01X9098213Y6768550D01*
G01X9099122Y6767414D01*
G01X9100258Y6766504D01*
G01X9101622Y6766050D01*
G01X9106849Y6765823D01*
G01X9112076Y6766050D01*
G01X9114804Y6766277D01*
G01X9116849Y6766277D01*
G01X9116849Y6764686D01*
G01X9116622Y6762414D01*
G01X9116167Y6760595D01*
G01X9115940Y6758550D01*
G01X9115713Y6756959D01*
G37*
G36*
G01X9207076Y6757413D02*
G01X9206395Y6754459D01*
G01X9203099Y6753777D01*
G01X9194122Y6753550D01*
G01X9181622Y6753777D01*
G01X9178440Y6754232D01*
G01X9174349Y6755141D01*
G01X9172531Y6755823D01*
G01X9170940Y6756732D01*
G01X9169804Y6757641D01*
G01X9167531Y6759914D01*
G01X9166622Y6761050D01*
G01X9165031Y6764232D01*
G01X9164122Y6766732D01*
G01X9163440Y6769686D01*
G01X9163213Y6797641D01*
G01X9163213Y6824004D01*
G01X9126395Y6824004D01*
G01X9126167Y6825141D01*
G01X9125940Y6830141D01*
G01X9125940Y6834004D01*
G01X9127076Y6834459D01*
G01X9144804Y6834914D01*
G01X9161849Y6834686D01*
G01X9162758Y6835141D01*
G01X9163213Y6847868D01*
G01X9163213Y6859914D01*
G01X9164804Y6860141D01*
G01X9170486Y6860368D01*
G01X9174576Y6860368D01*
G01X9175031Y6859232D01*
G01X9175486Y6846504D01*
G01X9175656Y6837754D01*
G01X9176167Y6834686D01*
G01X9177531Y6834686D01*
G01X9221167Y6834914D01*
G01X9253554Y6834743D01*
G01X9264804Y6834232D01*
G01X9265315Y6832584D01*
G01X9265485Y6829004D01*
G01X9265485Y6824459D01*
G01X9264349Y6824232D01*
G01X9219349Y6824004D01*
G01X9175486Y6824004D01*
G01X9175486Y6798550D01*
G01X9175713Y6772414D01*
G01X9176395Y6770595D01*
G01X9177758Y6768323D01*
G01X9179804Y6766732D01*
G01X9181849Y6765823D01*
G01X9184349Y6765141D01*
G01X9191395Y6764914D01*
G01X9197531Y6765141D01*
G01X9202076Y6765595D01*
G01X9205258Y6765823D01*
G01X9207758Y6765823D01*
G01X9207986Y6764686D01*
G01X9207986Y6762186D01*
G01X9207531Y6760141D01*
G01X9207076Y6757413D01*
G37*
G36*
G01X9260031Y6863777D02*
G01X9259576Y6849686D01*
G01X9254349Y6849459D01*
G01X9248895Y6849914D01*
G01X9248383Y6852527D01*
G01X9248213Y6859459D01*
G01X9248213Y6868550D01*
G01X9246622Y6868323D01*
G01X9195031Y6868095D01*
G01X9144577Y6868323D01*
G01X9144179Y6868266D01*
G01X9143895Y6867641D01*
G01X9143895Y6866050D01*
G01X9144122Y6858323D01*
G01X9143667Y6850595D01*
G01X9142076Y6849686D01*
G01X9136849Y6849459D01*
G01X9133667Y6849629D01*
G01X9132304Y6850141D01*
G01X9131622Y6851959D01*
G01X9131395Y6865141D01*
G01X9131849Y6877868D01*
G01X9133440Y6878777D01*
G01X9160713Y6879005D01*
G01X9186849Y6879005D01*
G01X9187304Y6880141D01*
G01X9189122Y6884232D01*
G01X9192758Y6891504D01*
G01X9194576Y6894686D01*
G01X9195713Y6896277D01*
G01X9197531Y6896277D01*
G01X9199576Y6895368D01*
G01X9201849Y6894459D01*
G01X9203895Y6893550D01*
G01X9205485Y6892641D01*
G01X9206395Y6891504D01*
G01X9205940Y6890141D01*
G01X9204804Y6888323D01*
G01X9203667Y6886050D01*
G01X9202758Y6884459D01*
G01X9202076Y6883323D01*
G01X9201167Y6881504D01*
G01X9200713Y6879686D01*
G01X9208156Y6879175D01*
G01X9251963Y6878834D01*
G01X9259576Y6878323D01*
G01X9260031Y6863777D01*
G37*
G36*
G01X9218667Y6780823D02*
G01X9217758Y6779914D01*
G01X9216622Y6779914D01*
G01X9214576Y6781959D01*
G01X9212986Y6783095D01*
G01X9209122Y6786959D01*
G01X9208213Y6788095D01*
G01X9208042Y6788550D01*
G01X9208440Y6789004D01*
G01X9211849Y6792414D01*
G01X9212986Y6793777D01*
G01X9215713Y6796505D01*
G01X9217531Y6798095D01*
G01X9222531Y6803095D01*
G01X9224804Y6804913D01*
G01X9229576Y6809686D01*
G01X9231622Y6811277D01*
G01X9233213Y6812641D01*
G01X9234349Y6813550D01*
G01X9235485Y6814686D01*
G01X9236849Y6815823D01*
G01X9238440Y6816050D01*
G01X9239576Y6815141D01*
G01X9242986Y6811732D01*
G01X9244349Y6810595D01*
G01X9245485Y6809459D01*
G01X9245485Y6808323D01*
G01X9240940Y6803777D01*
G01X9237758Y6801050D01*
G01X9227531Y6790823D01*
G01X9224804Y6787641D01*
G01X9221394Y6784232D01*
G01X9220031Y6782414D01*
G01X9218667Y6780823D01*
G37*
G36*
G01X9417758Y6869686D02*
G01X9417531Y6865141D01*
G01X9346167Y6864914D01*
G01X9292701Y6865141D01*
G01X9274576Y6865823D01*
G01X9274122Y6870595D01*
G01X9274349Y6873664D01*
G01X9275031Y6875141D01*
G01X9283667Y6875652D01*
G01X9307758Y6875823D01*
G01X9340031Y6875595D01*
G01X9340940Y6876050D01*
G01X9341054Y6876618D01*
G01X9340485Y6876959D01*
G01X9338667Y6878095D01*
G01X9338099Y6879061D01*
G01X9338213Y6880141D01*
G01X9339122Y6881732D01*
G01X9340258Y6883323D01*
G01X9341622Y6885368D01*
G01X9342758Y6887413D01*
G01X9343667Y6889005D01*
G01X9344804Y6890595D01*
G01X9347531Y6894686D01*
G01X9349122Y6896050D01*
G01X9350713Y6895823D01*
G01X9356167Y6893095D01*
G01X9358213Y6892186D01*
G01X9358838Y6891618D01*
G01X9358895Y6890823D01*
G01X9357986Y6889005D01*
G01X9356849Y6887186D01*
G01X9355940Y6885595D01*
G01X9354804Y6883777D01*
G01X9353440Y6881504D01*
G01X9351167Y6877413D01*
G01X9350826Y6876504D01*
G01X9351167Y6876050D01*
G01X9384349Y6875823D01*
G01X9408838Y6875595D01*
G01X9417304Y6874914D01*
G01X9417758Y6869686D01*
G37*
G36*
G01X9289804Y6764232D02*
G01X9287531Y6762414D01*
G01X9286508Y6761618D01*
G01X9285713Y6761504D01*
G01X9284576Y6762414D01*
G01X9283213Y6764232D01*
G01X9279576Y6768777D01*
G01X9278440Y6770823D01*
G01X9278497Y6771561D01*
G01X9279122Y6771959D01*
G01X9280486Y6772641D01*
G01X9282076Y6773777D01*
G01X9284349Y6775141D01*
G01X9294576Y6781959D01*
G01X9298213Y6784232D01*
G01X9300258Y6785368D01*
G01X9301849Y6786277D01*
G01X9303440Y6787414D01*
G01X9305486Y6788550D01*
G01X9309122Y6790823D01*
G01X9311167Y6791959D01*
G01X9313213Y6793323D01*
G01X9315258Y6794459D01*
G01X9316849Y6794459D01*
G01X9317985Y6792868D01*
G01X9319349Y6791277D01*
G01X9322076Y6787868D01*
G01X9322531Y6786732D01*
G01X9322076Y6785823D01*
G01X9320713Y6784914D01*
G01X9318894Y6783777D01*
G01X9314804Y6781050D01*
G01X9312531Y6779686D01*
G01X9298213Y6770141D01*
G01X9296622Y6769004D01*
G01X9293894Y6767186D01*
G01X9292076Y6765823D01*
G01X9289804Y6764232D01*
G37*
G36*
G01X9375031Y6755368D02*
G01X9374804Y6754005D01*
G01X9364576Y6753550D01*
G01X9353895Y6753777D01*
G01X9349804Y6754232D01*
G01X9347985Y6754914D01*
G01X9345713Y6756050D01*
G01X9344122Y6757413D01*
G01X9342985Y6758550D01*
G01X9341849Y6760141D01*
G01X9340940Y6761732D01*
G01X9340258Y6763095D01*
G01X9339804Y6764686D01*
G01X9339349Y6767868D01*
G01X9338894Y6769686D01*
G01X9338667Y6789686D01*
G01X9338667Y6808550D01*
G01X9336622Y6808323D01*
G01X9320940Y6808095D01*
G01X9306622Y6808323D01*
G01X9306054Y6808209D01*
G01X9305713Y6807414D01*
G01X9305486Y6804686D01*
G01X9305258Y6803380D01*
G01X9304576Y6802641D01*
G01X9299122Y6802186D01*
G01X9295599Y6802357D01*
G01X9294122Y6802868D01*
G01X9293667Y6827641D01*
G01X9293690Y6829459D01*
G01X9305486Y6829459D01*
G01X9305713Y6821561D01*
G01X9306395Y6818777D01*
G01X9307985Y6818777D01*
G01X9307985Y6818777D01*
G01X9347531Y6819004D01*
G01X9386849Y6819459D01*
G01X9387303Y6830595D01*
G01X9387076Y6838720D01*
G01X9386394Y6841732D01*
G01X9345713Y6842186D01*
G01X9305940Y6842186D01*
G01X9305713Y6841050D01*
G01X9305486Y6829459D01*
G01X9293690Y6829459D01*
G01X9293894Y6845823D01*
G01X9294576Y6852186D01*
G01X9346622Y6852641D01*
G01X9385088Y6852470D01*
G01X9398213Y6851959D01*
G01X9398895Y6849686D01*
G01X9399122Y6825823D01*
G01X9398951Y6808891D01*
G01X9398440Y6802641D01*
G01X9396679Y6801959D01*
G01X9392758Y6801732D01*
G01X9387758Y6801732D01*
G01X9387531Y6802868D01*
G01X9387303Y6805823D01*
G01X9387076Y6807300D01*
G01X9386394Y6808095D01*
G01X9384349Y6808323D01*
G01X9367986Y6808095D01*
G01X9352076Y6808323D01*
G01X9351508Y6808323D01*
G01X9351167Y6807868D01*
G01X9350940Y6789004D01*
G01X9351394Y6769914D01*
G01X9352304Y6767868D01*
G01X9353440Y6766504D01*
G01X9354804Y6765823D01*
G01X9356622Y6765141D01*
G01X9364576Y6764914D01*
G01X9372076Y6765141D01*
G01X9374349Y6765595D01*
G01X9375656Y6765595D01*
G01X9376394Y6765141D01*
G01X9376622Y6763095D01*
G01X9376167Y6761050D01*
G01X9375940Y6759232D01*
G01X9375485Y6757186D01*
G01X9375031Y6755368D01*
G37*
G36*
G01X9413213Y6763095D02*
G01X9412076Y6761277D01*
G01X9411394Y6760652D01*
G01X9410713Y6760595D01*
G01X9409576Y6761277D01*
G01X9408213Y6762186D01*
G01X9406394Y6763323D01*
G01X9394122Y6771504D01*
G01X9390940Y6773777D01*
G01X9388895Y6775141D01*
G01X9387303Y6776277D01*
G01X9386167Y6777186D01*
G01X9384576Y6778323D01*
G01X9382531Y6779686D01*
G01X9380940Y6781050D01*
G01X9379804Y6781959D01*
G01X9378213Y6782868D01*
G01X9376622Y6784004D01*
G01X9372986Y6786732D01*
G01X9372531Y6787243D01*
G01X9372531Y6787868D01*
G01X9373440Y6789004D01*
G01X9374804Y6790368D01*
G01X9376167Y6791959D01*
G01X9377304Y6793323D01*
G01X9378440Y6794459D01*
G01X9379576Y6795368D01*
G01X9380201Y6795539D01*
G01X9381167Y6795141D01*
G01X9383440Y6793550D01*
G01X9385713Y6791732D01*
G01X9391167Y6787641D01*
G01X9397531Y6783095D01*
G01X9398895Y6782186D01*
G01X9400713Y6781050D01*
G01X9406849Y6776959D01*
G01X9408667Y6775823D01*
G01X9410713Y6774686D01*
G01X9412531Y6773550D01*
G01X9414122Y6772641D01*
G01X9415940Y6771504D01*
G01X9417304Y6770368D01*
G01X9417474Y6769743D01*
G01X9417076Y6768777D01*
G01X9415485Y6766504D01*
G01X9414122Y6764686D01*
G01X9413213Y6763095D01*
G37*
G04 Text End*

G04 PolygonModel Start*
G01X9060947Y5252934D02*
G01X8932454Y5252934D01*
G01X8932454Y5252934D02*
G01X8932454Y5436352D01*
G01X8932454Y5436352D02*
G01X9060947Y5436352D01*
G01X9156187Y5252934D02*
G01X9284680Y5252934D01*
G01X9284680Y5252934D02*
G01X9284680Y5436352D01*
G01X9284680Y5436352D02*
G01X9156187Y5436352D01*
G01X9060947Y3525734D02*
G01X8932454Y3525734D01*
G01X8932454Y3525734D02*
G01X8932454Y3709152D01*
G01X8932454Y3709152D02*
G01X9060947Y3709152D01*
G01X9156187Y3525734D02*
G01X9284680Y3525734D01*
G01X9284680Y3525734D02*
G01X9284680Y3709152D01*
G01X9284680Y3709152D02*
G01X9156187Y3709152D01*
G01X9060947Y1823934D02*
G01X8932454Y1823934D01*
G01X8932454Y1823934D02*
G01X8932454Y2007352D01*
G01X8932454Y2007352D02*
G01X9060947Y2007352D01*
G01X9156187Y1823934D02*
G01X9284680Y1823934D01*
G01X9284680Y1823934D02*
G01X9284680Y2007352D01*
G01X9284680Y2007352D02*
G01X9156187Y2007352D01*
G01X6530387Y1639052D02*
G01X6658881Y1639052D01*
G01X6658881Y1639052D02*
G01X6658881Y1455634D01*
G01X6658881Y1455634D02*
G01X6530387Y1455634D01*
G01X6435147Y1639052D02*
G01X6306654Y1639052D01*
G01X6306654Y1639052D02*
G01X6306654Y1455634D01*
G01X6306654Y1455634D02*
G01X6435147Y1455634D01*
G01X6530387Y3315452D02*
G01X6658881Y3315452D01*
G01X6658881Y3315452D02*
G01X6658881Y3132034D01*
G01X6658881Y3132034D02*
G01X6530387Y3132034D01*
G01X6435147Y3315452D02*
G01X6306654Y3315452D01*
G01X6306654Y3315452D02*
G01X6306654Y3132034D01*
G01X6306654Y3132034D02*
G01X6435147Y3132034D01*
G01X6530387Y5068052D02*
G01X6658881Y5068052D01*
G01X6658881Y5068052D02*
G01X6658881Y4884634D01*
G01X6658881Y4884634D02*
G01X6530387Y4884634D01*
G01X6435147Y5068052D02*
G01X6306654Y5068052D01*
G01X6306654Y5068052D02*
G01X6306654Y4884634D01*
G01X6306654Y4884634D02*
G01X6435147Y4884634D01*

M02*

